<?xml version="1.0" encoding="UTF-8"?>
<!DOCTYPE svg PUBLIC "-//W3C//DTD SVG 1.0//EN" "http://www.w3.org/TR/2001/REC-SVG-20010904/DTD/svg10.dtd">
<!-- Creator: CorelDRAW 2020 (64 Bit) -->
<svg xmlns="http://www.w3.org/2000/svg" xml:space="preserve" width="58.1611mm" height="21.2965mm" version="1.0" style="shape-rendering:geometricPrecision; text-rendering:geometricPrecision; image-rendering:optimizeQuality; fill-rule:evenodd; clip-rule:evenodd"
viewBox="0 0 365.15 133.71"
 xmlns:xlink="http://www.w3.org/1999/xlink"
 xmlns:xodm="http://www.corel.com/coreldraw/odm/2003">
 <defs>
  <style type="text/css">
   <![CDATA[
    .fil23 {fill:none}
    .fil0 {fill:#E44743}
    .fil8 {fill:#FEFEFE;fill-rule:nonzero}
    .fil3 {fill:#FDE9E3;fill-rule:nonzero}
    .fil2 {fill:#FCD7CA;fill-rule:nonzero}
    .fil20 {fill:#FCD7C9;fill-rule:nonzero}
    .fil1 {fill:#FBC5B0;fill-rule:nonzero}
    .fil18 {fill:#F8A779;fill-rule:nonzero}
    .fil9 {fill:#F79E6F;fill-rule:nonzero}
    .fil19 {fill:#F69168;fill-rule:nonzero}
    .fil5 {fill:#F37947;fill-rule:nonzero}
    .fil15 {fill:#F4A387;fill-rule:nonzero}
    .fil7 {fill:#EE6B41;fill-rule:nonzero}
    .fil11 {fill:#F5CFC1;fill-rule:nonzero}
    .fil4 {fill:#EEAD96;fill-rule:nonzero}
    .fil13 {fill:#EB8057;fill-rule:nonzero}
    .fil21 {fill:#E44743;fill-rule:nonzero}
    .fil10 {fill:#E88D5E;fill-rule:nonzero}
    .fil14 {fill:#DD734C;fill-rule:nonzero}
    .fil6 {fill:#DC653B;fill-rule:nonzero}
    .fil12 {fill:#D45739;fill-rule:nonzero}
    .fil16 {fill:#D4603A;fill-rule:nonzero}
    .fil17 {fill:#9B4338;fill-rule:nonzero}
    .fil22 {fill:#333333;fill-rule:nonzero}
   ]]>
  </style>
 </defs>
 <g id="Camada_x0020_1">
  <metadata id="CorelCorpID_0Corel-Layer"/>
  <g id="_2428738274320">
   <g>
    <g>
     <circle class="fil0" cx="74.07" cy="66.85" r="22.78"/>
     <g>
      <path class="fil1" d="M38.14 76.7c3.56,7.7 4.15,21.32 15.41,18.07 15.34,-4.43 -15.41,-18.07 -15.41,-18.07z"/>
      <path class="fil2" d="M39.31 77.16c6.41,4.79 22.57,12.92 14.63,16.08 -10.71,4.25 -14.63,-16.08 -14.63,-16.08z"/>
      <path class="fil1" d="M39.01 77.66c0,0 1.67,6.39 11.29,15.49 0,0 -8.6,-9.52 -10.88,-15.97l-0.41 0.48z"/>
      <path class="fil1" d="M39.33 76.76c0,0 2.81,6.01 14.39,13.71 0,0 -10.59,-8.22 -14.04,-14.22l-0.35 0.52z"/>
      <path class="fil3" d="M50.3 93.15c-3.92,-3.72 -7.5,-6.16 -10.78,-14.36 3.03,5.58 5.49,9.08 10.78,14.36z"/>
      <path class="fil3" d="M52.94 90.27c-4.71,-3.37 -8.84,-5.49 -13.72,-13.5 4.14,5.37 7.31,8.68 13.72,13.5z"/>
      <path class="fil4" d="M43.2 79.21c-3.59,-1.92 -5.07,-2.51 -5.07,-2.51 3.35,7.26 4.07,19.75 13.55,18.47 -3.8,-3.02 -6.48,-10.67 -8.48,-15.96z"/>
      <path class="fil1" d="M52.01 32.1c-3.62,-0.62 -6.99,1.13 -9.73,2.88 -3.67,2.34 -6.23,4.67 -6.77,1.37 -0.74,-4.57 7.45,-8.67 16.5,-4.25z"/>
      <path class="fil4" d="M35.94 36.53c-0.71,-4.39 6.79,-8.33 15.4,-4.74 -8.79,-3.91 -16.56,0.1 -15.83,4.56 0.17,1.04 0.54,1.52 1.08,1.62 -0.31,-0.24 -0.53,-0.69 -0.65,-1.43z"/>
      <path class="fil4" d="M45.45 30.25c-0.74,2.09 -3.42,4.69 -7.1,6.63 -0.7,0.37 -1.39,0.69 -2.08,0.97 1.12,0.63 3.25,-1.12 6,-2.87 2.75,-1.75 6.12,-3.49 9.73,-2.88 -2.28,-1.12 -4.51,-1.69 -6.56,-1.85z"/>
      <path class="fil4" d="M33.65 64.88c-0.44,6 -6.92,6.56 -4.92,9.16 2.19,2.85 6.59,-1.39 4.92,-9.16z"/>
      <path class="fil5" d="M68.33 46.29c-4.5,1.39 -30.04,7.34 -26.87,34.98 0.39,3.38 -12.97,-11.6 -7.85,-28.96 4.93,-16.71 15.1,-23.31 33.29,-25.1 22.3,-2.2 1.43,19.08 1.43,19.08z"/>
      <path class="fil6" d="M59.4 48.18c-6.33,2.73 -21.35,12.29 -18.39,31.1 -3.08,-3.05 -14.1,-30.54 17.03,-48.23 -2.73,7.08 1.36,17.13 1.36,17.13zm7.5 -20.97c-18.19,1.8 -28.36,8.39 -33.29,25.1 -5.12,17.36 8.23,32.35 7.85,28.96 -3.16,-27.65 22.37,-33.6 26.87,-34.98 0,0 20.87,-21.28 -1.43,-19.08z"/>
      <path class="fil1" d="M41.28 76.85c2.31,8.89 15.79,32.07 2.14,28.63 -17.38,-4.37 -2.14,-28.63 -2.14,-28.63z"/>
      <path class="fil2" d="M40.78 79.18c3.07,8.87 13.54,27.47 3.4,25.22 -13.67,-3.03 -3.4,-25.22 -3.4,-25.22z"/>
      <path class="fil7" d="M33.43 66.52c-0.65,-3.44 -3.26,-18.06 10.15,-30.63 -7.46,10.88 -10.27,18.85 -10.15,30.63z"/>
      <path class="fil8" d="M47.23 58.62c-0,-0 -0,-0 -0,-0.01 4.01,-4.95 9.31,-7.96 13.68,-9.8 0,0 0,0 0,0 -4.37,1.84 -9.67,4.85 -13.68,9.8z"/>
      <path class="fil9" d="M46.58 57.87c-2.56,-2.55 -7.2,-3.94 -3.38,-9.04 3.28,-4.38 3.61,-6.28 3.96,-8.86 1.6,-1.51 3.4,-2.92 5.4,-4.16 0.16,1.74 0.58,2.95 1.47,2.95 0.41,0 0.92,-0.25 1.55,-0.82 0.55,-0.49 1.05,-0.78 1.52,-0.89 0,0.25 0.01,0.49 0.02,0.74 -0.03,1.66 0.17,3.1 0.54,4.33 0.68,3.47 1.74,6.06 1.74,6.06 -3.2,1.38 -8.62,4.51 -12.82,9.69z"/>
      <path class="fil10" d="M47.23 58.61c-0.19,-0.26 -0.41,-0.5 -0.65,-0.74 4.2,-5.19 9.62,-8.31 12.82,-9.69 0,0 -1.05,-2.59 -1.74,-6.06 0.71,2.4 2.03,4.05 3.36,5.08 -0.02,0.56 -0.06,1.1 -0.11,1.61 -4.37,1.84 -9.68,4.85 -13.68,9.8zm0.23 -20.64c0.25,-1.43 0.65,-3.17 1.52,-5.52 0.09,-0.23 0.17,-0.46 0.25,-0.68 1.08,-0.55 2.21,-1.05 3.39,-1.49 -0.08,1.25 -0.14,2.52 -0.13,3.68 -1.77,1.21 -3.46,2.57 -5.02,4.02zm9.66 -0.18c-0.01,-0.25 -0.02,-0.49 -0.02,-0.74 0.02,-0 0.04,-0.01 0.05,-0.01 -0.02,0.25 -0.03,0.5 -0.03,0.75z"/>
      <path class="fil6" d="M49.16 56.25c0.41,-1.34 3.32,-6.02 10.07,-7.39 0,0 -7.09,5.15 -10.07,7.39z"/>
      <path class="fil6" d="M40.11 73.47c-0.58,-1.39 -1.24,-6.65 2.82,-11 0,0 -1.89,7.19 -2.82,11z"/>
      <path class="fil1" d="M59.23 48.86c-6.48,5.64 -0.12,11.96 -5.7,12.72 -4.42,0.6 -3.65,-8.26 5.7,-12.72z"/>
      <path class="fil4" d="M56.67 52.21c0.75,-1.12 0.93,-1.93 2.56,-3.35 -7.86,3.75 -9.66,10.62 -7.4,12.35 -0.93,-5.33 2.26,-8.31 4.84,-8.99z"/>
      <path class="fil1" d="M40.41 79.37c-2.66,-5.09 -6.56,-18.12 -1.21,-30.44 3.07,-7.07 12.1,-16.01 21.23,-18.99l1.02 1.96c-10.8,3.07 -17.89,10.51 -21.51,17.78 -4,8.04 -4.1,19.39 0.84,29.42l-0.37 0.28z"/>
      <path class="fil11" d="M62.58 48.15c-0,-0 -0,-0 -0,-0 0.05,-0.02 0.1,-0.04 0.15,-0.06 -0.05,0.02 -0.1,0.04 -0.15,0.06z"/>
      <path class="fil12" d="M62.57 48.15c-0.49,-0.23 -1.02,-0.54 -1.55,-0.95 0.03,-0.77 0.02,-1.57 -0.03,-2.37 1.07,1.4 2.36,2.24 3.4,2.63 -0.53,0.19 -1.09,0.4 -1.67,0.63 -0.05,0.02 -0.1,0.04 -0.15,0.06zm-3.71 -10.55c-0.39,-0.38 -0.83,-0.6 -1.33,-0.6 -0.12,0 -0.25,0.01 -0.37,0.04 0.07,-1.19 0.27,-2.48 0.61,-3.88 0.61,-0.25 1.24,-0.48 1.88,-0.7 -0.52,1.92 -0.76,3.63 -0.78,5.15z"/>
      <path class="fil11" d="M55.31 29.36c-0.03,-0.01 -0.06,-0.02 -0.09,-0.03 0.16,-0.05 0.32,-0.1 0.49,-0.15 0.04,0.01 0.08,0.02 0.12,0.03 -0.17,0.05 -0.34,0.1 -0.51,0.15z"/>
      <path class="fil12" d="M57.85 30.93c-0.44,-0.83 -1.52,-1.28 -2.54,-1.58 0.17,-0.05 0.34,-0.1 0.51,-0.15 0.87,0.21 2.35,0.5 3.22,1.22 -0.4,0.16 -0.8,0.32 -1.2,0.5z"/>
      <path class="fil13" d="M57.67 42.12c-0.37,-1.24 -0.58,-2.68 -0.54,-4.33 0.07,1.51 0.28,2.99 0.54,4.33z"/>
      <path class="fil14" d="M61.03 47.2c-1.33,-1.03 -2.64,-2.68 -3.36,-5.08 -0.26,-1.34 -0.47,-2.82 -0.54,-4.33 0.01,-0.24 0.02,-0.49 0.03,-0.75 0.13,-0.03 0.25,-0.04 0.37,-0.04 0.5,0 0.94,0.22 1.33,0.6 -0.05,3.26 0.9,5.62 2.13,7.23 0.05,0.8 0.06,1.6 0.03,2.37z"/>
      <path class="fil15" d="M57.76 33.16c0.06,-0.25 0.13,-0.5 0.2,-0.76 0.16,-0.59 0.1,-1.07 -0.11,-1.47 0.4,-0.18 0.8,-0.34 1.2,-0.5 0.55,0.46 0.85,1.09 0.61,1.99 -0,0.01 -0.01,0.03 -0.01,0.04 -0.64,0.22 -1.27,0.45 -1.88,0.7z"/>
      <path class="fil1" d="M70.13 27c-0.41,0.34 -2.05,0.57 -3.65,0.49 -1.6,-0.07 -2.56,-0.41 -2.15,-0.76 0.41,-0.34 2.04,-0.57 3.65,-0.49 1.6,0.07 2.57,0.41 2.15,0.76z"/>
      <path class="fil16" d="M69.22 26.62c-0.25,0.21 -1.26,0.35 -2.24,0.3 -0.99,-0.04 -1.58,-0.25 -1.33,-0.46 0.25,-0.21 1.26,-0.35 2.24,-0.3 0.99,0.05 1.58,0.25 1.33,0.47z"/>
      <path class="fil17" d="M68.77 26.36c-0.15,0.13 -0.77,0.21 -1.37,0.18 -0.6,-0.03 -0.96,-0.15 -0.81,-0.28 0.15,-0.13 0.77,-0.21 1.37,-0.18 0.6,0.03 0.96,0.15 0.81,0.28z"/>
      <path class="fil1" d="M68.78 26.57c-0.02,0.06 -0.26,0.12 -0.51,0.14 -0.26,0.02 -0.45,-0.01 -0.42,-0.07 0.02,-0.06 0.25,-0.12 0.51,-0.14 0.26,-0.02 0.45,0.01 0.42,0.07z"/>
      <path class="fil1" d="M67.59 26.73c-0.07,0.04 -0.31,0.05 -0.53,0.03 -0.22,-0.03 -0.34,-0.08 -0.26,-0.12 0.07,-0.04 0.31,-0.05 0.53,-0.03 0.22,0.03 0.34,0.08 0.26,0.12z"/>
      <path class="fil5" d="M81.87 28.94c1.7,1.03 2.86,6.21 -0.08,8.66 -1.92,1.6 -12.6,10.54 -16.41,10.12 -2.5,-0.28 -8.71,-4.38 -5.73,-15.3 0.92,-3.37 -5.89,-2.99 -4.29,-3.7 4.26,-1.88 18.81,-4.45 26.51,0.23z"/>
      <path class="fil18" d="M65.93 46.98c-0.09,0 -0.17,-0.01 -0.26,-0.01 -2.3,-0.27 -7.92,-4.21 -4.82,-14.73 0.95,-3.24 -5.36,-2.88 -3.85,-3.56 0.65,-0.29 1.56,-0.61 2.65,-0.9 1.78,2.77 8.83,4.83 17.33,4.83 2.09,0 4.1,-0.12 5.97,-0.35 0.14,1.74 -0.29,3.73 -1.77,4.99 -1.78,1.51 -11.52,9.75 -15.25,9.75z"/>
      <path class="fil1" d="M40.13 79.46c0,0 -2.79,7.26 0.47,22.44 0,0 -1.96,-14.9 0.28,-22.62l-0.74 0.19z"/>
      <path class="fil1" d="M41.08 78.81c0,0 -1.39,7.66 4.81,22.78 0,0 -4.85,-14.96 -4.1,-23.04l-0.71 0.26z"/>
      <path class="fil8" d="M33.64 52.24c0,-0 0,0 0,-0l-0 0z"/>
      <path class="fil9" d="M36.78 66.8c-0.04,-0.43 -0.08,-0.86 -0.11,-1.3 0.04,0.44 0.08,0.87 0.13,1.29 -0.01,0 -0.01,0.01 -0.02,0.01zm-3.17 -14.45c0,-0.02 0.01,-0.03 0.01,-0.04 -0,0.01 -0.01,0.03 -0.01,0.04z"/>
      <path class="fil10" d="M34.76 72.28c-2.1,-5.32 -3.37,-12.4 -1.16,-19.93 0,-0.02 0.01,-0.03 0.01,-0.04l0 0c0.01,-0.02 0.01,-0.05 0.02,-0.07l0 -0c0.86,-2.89 1.88,-5.48 3.07,-7.79 0.01,0.04 0.03,0.07 0.04,0.11 -5.5,9.93 -3.82,19.3 -3.31,21.96l0 0c-0.08,-7.62 1.07,-13.65 3.91,-19.91 0.23,1.21 0.23,2.5 -0.28,3.8 -0.68,1.73 -0.41,3.25 0.15,4.91 -0.71,3.52 -0.8,6.98 -0.54,10.17 0.03,0.44 0.07,0.87 0.11,1.3 -0.39,0.18 -0.7,0.67 -0.83,1.86 -0.2,1.81 -0.72,2.6 -1.18,3.62z"/>
      <path class="fil9" d="M38.3 66.81c-0.17,0 -0.34,-0.03 -0.52,-0.05 -0.18,-0.03 -0.36,-0.05 -0.53,-0.05 -0.02,0 -0.03,0 -0.05,0 -0.37,-3.52 -0.21,-6.97 0.44,-10.19 0.75,1.97 1.66,4.2 1.78,7.17 0.11,2.68 -0.43,3.11 -1.12,3.11z"/>
      <path class="fil19" d="M33.43 66.52c-0.5,-2.67 -2.18,-12.04 3.31,-21.96 0.24,0.64 0.46,1.34 0.6,2.06 -2.84,6.26 -3.99,12.29 -3.91,19.91z"/>
      <path class="fil20" d="M36.79 66.79c-0.05,-0.43 -0.09,-0.86 -0.13,-1.29 -0.26,-3.19 -0.17,-6.65 0.54,-10.17 0.13,0.39 0.28,0.79 0.43,1.2 -0.65,3.21 -0.81,6.67 -0.44,10.19 -0.14,0 -0.28,0.03 -0.41,0.08z"/>
      <path class="fil1" d="M60.7 31.13c0.54,-1.97 -1.3,-2.8 -2.91,-3.25 -0.99,0.27 -1.81,0.56 -2.43,0.83 -1.6,0.71 5.21,0.34 4.29,3.7 -2.98,10.92 3.23,15.02 5.73,15.3l0.05 0c-3.15,-1.53 -7.5,-6.4 -4.72,-16.58z"/>
      <path class="fil3" d="M40.6 101.9c-1.32,-6.19 -3.19,-10.93 -0.74,-21.01 -0.87,7.39 -0.85,12.4 0.74,21.01z"/>
      <path class="fil3" d="M45.25 100.89c-2.35,-6.38 -5.01,-11.17 -4.29,-22.14 0.39,7.93 1.25,13.23 4.29,22.14z"/>
      <path class="fil1" d="M59.97 48.35c-0.14,1.32 -1.21,2.03 -3.61,2.34 -2.4,0.32 3.61,-2.34 3.61,-2.34z"/>
      <path class="fil6" d="M41.16 75.97l-3.91 8.94c1.12,-2.23 2.92,-5.81 3.77,-5.63 0.84,0.18 3.08,5.16 3.08,5.16l-2.93 -8.47z"/>
      <path class="fil1" d="M82.37 37.19c-1.13,0.5 -2.11,0.06 -1.37,-1.3 0.75,-1.37 1.68,-1.92 1.12,-4.34 -0.45,-1.93 -1.68,-3.16 -0.93,-3.35 1.68,-0.42 2.73,2.54 2.79,3.91 0.06,1.37 0.37,4.22 -1.61,5.09z"/>
      <path class="fil5" d="M70.76 45.29c-2.61,0.75 -8.57,-0.47 -5.21,-3.54 3.35,-3.07 13.5,-2.05 13.5,-2.05l-8.29 5.59z"/>
      <path class="fil1" d="M73.16 41.33c-0.51,-0.74 -2.19,-0.97 -3.75,-0.51 -1.56,0.46 -2.42,1.43 -1.91,2.17 0.51,0.74 2.19,0.97 3.75,0.51 1.56,-0.46 2.42,-1.43 1.91,-2.17z"/>
      <path class="fil16" d="M72.31 41.96c-0.31,-0.45 -1.35,-0.59 -2.31,-0.31 -0.96,0.28 -1.49,0.88 -1.18,1.33 0.31,0.45 1.35,0.59 2.31,0.31 0.96,-0.28 1.49,-0.88 1.18,-1.33z"/>
      <path class="fil17" d="M71.88 42.22c-0.19,-0.28 -0.82,-0.36 -1.41,-0.19 -0.59,0.17 -0.91,0.54 -0.72,0.81 0.19,0.28 0.82,0.36 1.41,0.19 0.59,-0.17 0.91,-0.54 0.72,-0.81z"/>
      <path class="fil1" d="M71.89 42.16c-0.04,-0.14 -0.29,-0.25 -0.55,-0.25 -0.26,-0 -0.44,0.11 -0.4,0.25 0.04,0.14 0.29,0.25 0.55,0.25 0.26,0 0.44,-0.11 0.4,-0.25z"/>
      <path class="fil1" d="M70.67 41.99c-0.08,-0.08 -0.32,-0.07 -0.53,0.03 -0.21,0.1 -0.31,0.25 -0.23,0.34 0.08,0.08 0.32,0.07 0.53,-0.03 0.21,-0.1 0.31,-0.25 0.23,-0.34z"/>
      <path class="fil1" d="M80.54 34.77c0.68,-0.79 0.51,-2.75 -0.37,-2.37 -0.89,0.37 -2.33,3.03 -1.91,3.54 0.42,0.51 1.72,-0.51 2.28,-1.16z"/>
      <path class="fil1" d="M78.84 27.75c0.86,0.26 1.37,1.61 0.48,1.7 -0.89,0.09 -3.04,-1.1 -2.85,-1.59 0.19,-0.5 1.66,-0.32 2.37,-0.11z"/>
      <path class="fil4" d="M56.19 51.95c-0.47,0.56 -0.88,1.86 -0.14,6.05 0,0 0,-5.26 1.3,-7.03l-1.16 0.98z"/>
      <path class="fil4" d="M56.61 51.95c-1.35,1.82 -2.42,4.33 -2.56,7.4 0,0 -1.12,-3.49 0.98,-6.98l1.58 -0.42z"/>
      <path class="fil1" d="M42.8 62.18c-1.6,5.4 4.14,6.66 1.32,9.05 -2.24,1.89 -4.92,-3.29 -1.32,-9.05z"/>
      <path class="fil4" d="M42.56 64.94c0.02,-0.88 -0.17,-1.4 0.24,-2.76 -3.03,4.84 -1.61,9.27 0.24,9.44 -2.39,-2.62 -1.67,-5.4 -0.48,-6.68z"/>
      <path class="fil4" d="M42.21 64.96c-0.06,0.47 0.17,1.34 2.05,3.4 0,0 -1.85,-2.91 -1.75,-4.35l-0.3 0.95z"/>
      <path class="fil4" d="M42.44 64.82c-0.11,1.48 0.18,3.25 1.18,5 0,0 -1.85,-1.54 -1.91,-4.21l0.73 -0.79z"/>
      <path class="fil5" d="M79.02 29.13c0,0 -1.49,-0.62 -0.93,-0.87 0.56,-0.25 1.06,0.43 0.93,0.87z"/>
      <path class="fil5" d="M79.75 34.22c0,0 0.36,-1.57 0.7,-1.06 0.34,0.51 -0.25,1.11 -0.7,1.06z"/>
      <path class="fil1" d="M110.13 58.08c-3.28,-7.82 -3.39,-21.45 -14.76,-18.6 -15.49,3.88 14.76,18.6 14.76,18.6z"/>
      <path class="fil2" d="M108.97 57.58c-6.23,-5.01 -22.1,-13.71 -14.05,-16.58 10.85,-3.87 14.05,16.58 14.05,16.58z"/>
      <path class="fil1" d="M109.29 57.1c0,0 -1.44,-6.44 -10.73,-15.88 0,0 8.26,9.82 10.3,16.34l0.43 -0.46z"/>
      <path class="fil1" d="M108.93 57.98c0,0 -2.59,-6.11 -13.89,-14.21 0,0 10.29,8.59 13.52,14.71l0.37 -0.5z"/>
      <path class="fil3" d="M98.56 41.21c3.78,3.85 7.27,6.43 10.26,14.74 -2.83,-5.68 -5.16,-9.27 -10.26,-14.74z"/>
      <path class="fil3" d="M95.81 43.99c4.59,3.54 8.64,5.79 13.23,13.98 -3.95,-5.51 -7,-8.93 -13.23,-13.98z"/>
      <path class="fil4" d="M105.15 55.39c3.52,2.05 4.98,2.69 4.98,2.69 -3.09,-7.37 -3.37,-19.88 -12.89,-18.93 3.69,3.16 6.1,10.89 7.91,16.25z"/>
      <path class="fil1" d="M94.68 102.17c3.62,0.75 7.09,-0.92 9.91,-2.58 3.71,-2.19 6.32,-4.38 6.73,-1.08 0.58,4.6 -7.75,8.4 -16.64,3.66z"/>
      <path class="fil4" d="M110.9 98.31c0.56,4.41 -7.08,8.09 -15.56,4.19 8.64,4.22 16.55,0.49 15.99,-3.99 -0.13,-1.05 -0.49,-1.54 -1.03,-1.65 0.3,0.25 0.51,0.71 0.6,1.45z"/>
      <path class="fil4" d="M101.17 104.25c0.82,-2.06 3.58,-4.56 7.33,-6.37 0.71,-0.34 1.42,-0.64 2.11,-0.9 -1.08,-0.66 -3.24,0.98 -6.02,2.61 -2.82,1.66 -6.28,3.33 -9.91,2.58 2.24,1.2 4.45,1.85 6.49,2.08z"/>
      <path class="fil4" d="M114.2 70.05c0.66,-5.98 7.15,-6.31 5.24,-8.98 -2.09,-2.93 -6.64,1.15 -5.24,8.98z"/>
      <path class="fil5" d="M78.87 87.4c4.55,-1.23 30.28,-6.27 28.09,-34.01 -0.27,-3.4 12.55,12.06 6.81,29.23 -5.52,16.53 -15.92,22.76 -34.16,23.9 -22.37,1.41 -0.75,-19.12 -0.75,-19.12z"/>
      <path class="fil6" d="M87.86 85.83c6.42,-2.51 21.77,-11.52 19.48,-30.43 2.97,3.15 13.01,31.02 -18.73,47.6 2.98,-6.97 -0.76,-17.17 -0.76,-17.17zm-8.24 20.69c18.24,-1.15 28.64,-7.38 34.16,-23.9 5.73,-17.17 -7.08,-32.62 -6.81,-29.23 2.18,27.74 -23.54,32.78 -28.09,34.01 0,0 -21.61,20.53 0.75,19.12z"/>
      <path class="fil1" d="M106.99 57.82c-1.99,-8.96 -14.64,-32.6 -1.12,-28.69 17.22,4.99 1.12,28.69 1.12,28.69z"/>
      <path class="fil2" d="M107.57 55.51c-2.75,-8.98 -12.56,-27.93 -2.5,-25.33 13.56,3.51 2.5,25.33 2.5,25.33z"/>
      <path class="fil7" d="M114.47 68.42c0.53,3.47 2.62,18.16 -11.23,30.25 7.84,-10.61 10.94,-18.48 11.23,-30.25z"/>
      <path class="fil10" d="M94.01 103.97c0.12,-1.24 0.23,-2.51 0.26,-3.68 1.81,-1.14 3.55,-2.44 5.16,-3.84 -0.3,1.42 -0.77,3.14 -1.71,5.47 -0.09,0.23 -0.18,0.45 -0.27,0.67 -1.1,0.51 -2.24,0.97 -3.44,1.37z"/>
      <path class="fil8" d="M86.38 85.15c0,-0 0,-0 0,-0 4.43,-1.68 9.84,-4.51 14.02,-9.31 0,0 0,0 0,0.01 -4.18,4.8 -9.59,7.62 -14.02,9.31z"/>
      <path class="fil9" d="M94.26 98.43c-0.1,-1.77 -0.48,-3 -1.41,-3 -0.4,0 -0.91,0.24 -1.54,0.77 -0.57,0.47 -1.08,0.74 -1.55,0.83 0.01,-0.25 0.01,-0.49 0,-0.74 0.09,-1.66 -0.06,-3.1 -0.39,-4.35 -0.56,-3.49 -1.52,-6.11 -1.52,-6.11 3.25,-1.27 8.78,-4.2 13.16,-9.23 2.47,2.64 7.06,4.19 3.06,9.16 -3.44,4.26 -3.83,6.15 -4.27,8.71 -1.65,1.45 -3.5,2.79 -5.54,3.97z"/>
      <path class="fil10" d="M89.71 97.04c0.03,-0.25 0.04,-0.5 0.06,-0.75 0,0.24 0,0.49 -0,0.74 -0.02,0 -0.04,0.01 -0.05,0.01zm-0.33 -5.1c-0.63,-2.42 -1.89,-4.12 -3.18,-5.19 0.04,-0.56 0.1,-1.09 0.17,-1.6 4.43,-1.68 9.84,-4.5 14.02,-9.31 0.18,0.26 0.39,0.52 0.62,0.76 -4.38,5.03 -9.91,7.97 -13.16,9.23 0,0 0.96,2.62 1.52,6.11z"/>
      <path class="fil6" d="M98.38 78.13c-0.46,1.32 -3.54,5.9 -10.33,7.03 0,0 7.27,-4.9 10.33,-7.03z"/>
      <path class="fil6" d="M108.04 61.24c0.53,1.41 1.01,6.69 -3.21,10.89 0,0 2.14,-7.12 3.21,-10.89z"/>
      <path class="fil1" d="M88.06 85.16c6.67,-5.4 0.54,-11.95 6.15,-12.51 4.44,-0.45 3.35,8.38 -6.15,12.51z"/>
      <path class="fil4" d="M90.74 81.9c-0.78,1.09 -1,1.9 -2.68,3.26 7.99,-3.47 10.03,-10.27 7.83,-12.08 0.74,5.36 -2.56,8.23 -5.16,8.82z"/>
      <path class="fil1" d="M107.95 55.34c2.48,5.18 5.91,18.34 0.13,30.47 -3.32,6.96 -12.66,15.57 -21.89,18.23l-0.95 -1.99c10.9,-2.69 18.25,-9.87 22.12,-17.01 4.28,-7.89 4.79,-19.24 0.2,-29.43l0.38 -0.26z"/>
      <path class="fil11" d="M90.89 104.96c-0.04,-0.01 -0.08,-0.02 -0.12,-0.03 0.17,-0.04 0.35,-0.09 0.52,-0.13 0.03,0.01 0.06,0.02 0.09,0.03 -0.16,0.05 -0.33,0.09 -0.49,0.14zm-6.34 -19.15c0.05,-0.02 0.1,-0.04 0.15,-0.05 0,0 0,0 0,0 -0.05,0.02 -0.1,0.03 -0.15,0.05z"/>
      <path class="fil12" d="M90.77 104.92c-0.87,-0.24 -2.33,-0.58 -3.18,-1.34 0.41,-0.14 0.81,-0.3 1.22,-0.46 0.41,0.84 1.48,1.34 2.48,1.67 -0.17,0.04 -0.35,0.09 -0.52,0.13zm-3.7 -3.38c0.59,-1.9 0.89,-3.6 0.96,-5.12 0.39,0.41 0.85,0.65 1.37,0.65 0.1,0 0.21,-0.01 0.31,-0.03 -0.11,1.18 -0.35,2.47 -0.74,3.86 -0.62,0.23 -1.25,0.44 -1.9,0.64zm-0.91 -12.42c-1.02,-1.44 -2.28,-2.32 -3.31,-2.75 0.54,-0.17 1.11,-0.36 1.7,-0.57 0.05,-0.02 0.1,-0.03 0.15,-0.05 0.48,0.24 1,0.57 1.51,1 -0.05,0.77 -0.07,1.57 -0.05,2.37z"/>
      <path class="fil13" d="M89.77 96.3c-0.02,-1.51 -0.17,-3 -0.39,-4.35 0.32,1.25 0.48,2.7 0.39,4.35z"/>
      <path class="fil14" d="M89.4 97.07c-0.52,0 -0.98,-0.24 -1.37,-0.65 0.16,-3.26 -0.7,-5.65 -1.88,-7.3 -0.02,-0.8 -0,-1.6 0.05,-2.37 1.29,1.08 2.55,2.77 3.18,5.19 0.22,1.35 0.37,2.84 0.39,4.35 -0.01,0.24 -0.03,0.49 -0.06,0.75 -0.11,0.02 -0.21,0.03 -0.31,0.03z"/>
      <path class="fil15" d="M87.59 103.58c-0.53,-0.48 -0.81,-1.12 -0.54,-2.01 0,-0.01 0.01,-0.03 0.01,-0.04 0.65,-0.2 1.28,-0.41 1.9,-0.64 -0.07,0.25 -0.14,0.5 -0.22,0.75 -0.18,0.59 -0.13,1.07 0.06,1.47 -0.4,0.16 -0.81,0.32 -1.22,0.46z"/>
      <path class="fil1" d="M76.39 106.61c0.42,-0.33 2.06,-0.49 3.66,-0.36 1.6,0.13 2.55,0.5 2.13,0.83 -0.43,0.33 -2.06,0.49 -3.66,0.36 -1.6,-0.13 -2.55,-0.5 -2.13,-0.83z"/>
      <path class="fil16" d="M77.28 107.03c0.26,-0.2 1.27,-0.3 2.25,-0.22 0.98,0.08 1.57,0.31 1.31,0.51 -0.26,0.2 -1.27,0.3 -2.25,0.22 -0.98,-0.08 -1.57,-0.31 -1.31,-0.51z"/>
      <path class="fil17" d="M77.73 107.31c0.16,-0.12 0.77,-0.18 1.37,-0.14 0.6,0.05 0.96,0.19 0.8,0.31 -0.16,0.12 -0.77,0.19 -1.37,0.14 -0.6,-0.05 -0.96,-0.19 -0.8,-0.31z"/>
      <path class="fil1" d="M77.73 107.1c0.03,-0.06 0.26,-0.12 0.52,-0.13 0.26,-0.01 0.45,0.03 0.42,0.09 -0.03,0.06 -0.26,0.12 -0.52,0.13 -0.26,0.01 -0.45,-0.03 -0.42,-0.09z"/>
      <path class="fil1" d="M78.92 106.98c0.07,-0.04 0.31,-0.04 0.53,-0.01 0.22,0.03 0.33,0.09 0.26,0.13 -0.07,0.04 -0.31,0.04 -0.53,0.01 -0.22,-0.03 -0.33,-0.09 -0.26,-0.13z"/>
      <path class="fil5" d="M64.73 104.26c-1.66,-1.09 -2.63,-6.3 0.39,-8.65 1.98,-1.54 12.97,-10.09 16.76,-9.53 2.49,0.37 8.55,4.68 5.18,15.49 -1.04,3.33 5.78,3.2 4.15,3.85 -4.32,1.73 -18.96,3.78 -26.48,-1.17z"/>
      <path class="fil18" d="M86.9 106.21c-1.69,-2.83 -8.66,-5.14 -17.15,-5.44 -0.62,-0.02 -1.23,-0.03 -1.84,-0.03 -1.43,0 -2.82,0.06 -4.14,0.17 -0.08,-1.74 0.42,-3.72 1.95,-4.92 1.82,-1.43 11.69,-9.21 15.49,-9.21 0.12,0 0.24,0.01 0.35,0.02 2.29,0.35 7.76,4.49 4.3,14.89 -1.07,3.2 5.25,3.07 3.72,3.7 -0.66,0.27 -1.58,0.55 -2.68,0.81z"/>
      <path class="fil1" d="M108.23 55.25c0,0 3.05,-7.16 0.33,-22.44 0,0 1.43,14.95 -1.08,22.6l0.75 -0.16z"/>
      <path class="fil1" d="M107.26 55.87c0,0 1.67,-7.61 -4,-22.94 0,0 4.31,15.12 3.28,23.17l0.72 -0.24z"/>
      <path class="fil9" d="M109.91 78.27c-0.67,-2 -1.51,-4.26 -1.52,-7.23 -0.01,-2.61 0.51,-3.07 1.18,-3.07 0.18,0 0.38,0.04 0.57,0.07 0.19,0.04 0.39,0.07 0.57,0.07 0.24,3.53 -0.04,6.98 -0.8,10.17zm1.29 -8.96c-0.02,-0.43 -0.05,-0.85 -0.08,-1.27 0.01,-0 0.01,-0.01 0.02,-0.01 0.03,0.42 0.05,0.85 0.06,1.28z"/>
      <path class="fil10" d="M110.42 90.37c-0.01,-0.04 -0.03,-0.07 -0.04,-0.11 5.84,-9.73 4.5,-19.15 4.09,-21.83 -0.19,7.62 -1.55,13.6 -4.62,19.75 -0.19,-1.22 -0.14,-2.51 0.42,-3.79 0.74,-1.7 0.53,-3.24 0.03,-4.91 0.83,-3.5 1.05,-6.97 0.9,-10.17 -0.01,-0.43 -0.03,-0.86 -0.06,-1.28 0.4,-0.16 0.73,-0.64 0.9,-1.83 0.26,-1.8 0.81,-2.57 1.31,-3.57 1.92,5.41 2.93,12.54 0.44,20l0 0c-0.97,2.89 -2.08,5.46 -3.36,7.74z"/>
      <path class="fil19" d="M110.38 90.26c-0.22,-0.65 -0.41,-1.35 -0.53,-2.08 3.06,-6.15 4.43,-12.14 4.62,-19.75 0.41,2.68 1.75,12.11 -4.09,21.83z"/>
      <path class="fil20" d="M110.3 79.48c-0.12,-0.39 -0.25,-0.8 -0.39,-1.21 0.76,-3.19 1.04,-6.64 0.8,-10.17 0,0 0.01,0 0.01,0 0.14,0 0.27,-0.02 0.4,-0.07 0.03,0.42 0.06,0.84 0.08,1.27 0.16,3.21 -0.06,6.67 -0.9,10.17z"/>
      <path class="fil1" d="M85.96 102.82c-0.61,1.95 1.2,2.84 2.79,3.35 0.99,-0.24 1.83,-0.49 2.45,-0.74 1.63,-0.65 -5.19,-0.52 -4.15,-3.85 3.36,-10.81 -2.69,-15.13 -5.18,-15.49l-0.05 -0c3.09,1.64 7.27,6.67 4.13,16.74z"/>
      <path class="fil3" d="M108.56 32.81c1.1,6.23 2.8,11.03 -0,21.02 1.13,-7.35 1.29,-12.36 0,-21.02z"/>
      <path class="fil3" d="M103.87 33.66c2.13,6.46 4.61,11.34 3.5,22.28 -0.11,-7.94 -0.78,-13.26 -3.5,-22.28z"/>
      <path class="fil1" d="M87.31 85.64c0.19,-1.31 1.28,-1.98 3.69,-2.21 2.41,-0.23 -3.69,2.21 -3.69,2.21z"/>
      <path class="fil6" d="M107.08 58.71l4.22 -8.79c-1.2,2.19 -3.12,5.7 -3.96,5.49 -0.84,-0.21 -2.89,-5.27 -2.89,-5.27l2.63 8.57z"/>
      <path class="fil1" d="M64.52 96c1.15,-0.45 2.11,0.01 1.32,1.35 -0.79,1.34 -1.74,1.86 -1.27,4.3 0.38,1.95 1.56,3.22 0.81,3.38 -1.69,0.36 -2.64,-2.64 -2.65,-4.01 -0.01,-1.37 -0.22,-4.23 1.79,-5.03z"/>
      <path class="fil5" d="M76.41 88.31c2.63,-0.65 8.54,0.77 5.09,3.72 -3.46,2.95 -13.56,1.57 -13.56,1.57l8.48 -5.29z"/>
      <path class="fil1" d="M73.88 92.19c0.48,0.76 2.15,1.04 3.73,0.64 1.58,-0.4 2.47,-1.34 1.98,-2.1 -0.48,-0.76 -2.15,-1.04 -3.73,-0.64 -1.58,0.4 -2.47,1.34 -1.98,2.1z"/>
      <path class="fil16" d="M74.74 91.59c0.3,0.47 1.32,0.64 2.29,0.39 0.97,-0.25 1.52,-0.83 1.22,-1.29 -0.3,-0.47 -1.32,-0.64 -2.3,-0.39 -0.97,0.25 -1.52,0.83 -1.22,1.29z"/>
      <path class="fil17" d="M75.18 91.35c0.18,0.28 0.81,0.39 1.4,0.24 0.59,-0.15 0.93,-0.5 0.74,-0.79 -0.18,-0.28 -0.81,-0.39 -1.4,-0.24 -0.59,0.15 -0.93,0.5 -0.74,0.79z"/>
      <path class="fil1" d="M75.17 91.41c0.04,0.14 0.28,0.26 0.54,0.27 0.26,0.01 0.44,-0.09 0.41,-0.23 -0.04,-0.14 -0.28,-0.26 -0.54,-0.27 -0.26,-0.01 -0.45,0.09 -0.41,0.23z"/>
      <path class="fil1" d="M76.38 91.62c0.08,0.09 0.32,0.08 0.53,-0.01 0.21,-0.09 0.32,-0.24 0.24,-0.33 -0.08,-0.09 -0.32,-0.08 -0.53,0.01 -0.21,0.09 -0.32,0.24 -0.24,0.33z"/>
      <path class="fil1" d="M66.27 98.48c-0.71,0.77 -0.61,2.73 0.29,2.39 0.9,-0.34 2.43,-2.94 2.03,-3.47 -0.4,-0.53 -1.74,0.45 -2.32,1.08z"/>
      <path class="fil1" d="M67.72 105.56c-0.85,-0.29 -1.32,-1.66 -0.42,-1.72 0.89,-0.06 3,1.2 2.79,1.69 -0.21,0.49 -1.68,0.26 -2.37,0.02z"/>
      <path class="fil4" d="M91.21 82.18c0.49,-0.54 0.95,-1.83 0.35,-6.04 0,0 -0.19,5.26 -1.55,6.98l1.2 -0.94z"/>
      <path class="fil4" d="M90.79 82.16c1.41,-1.77 2.57,-4.24 2.82,-7.31 0,0 0.99,3.53 -1.22,6.94l-1.6 0.36z"/>
      <path class="fil1" d="M104.95 72.43c1.79,-5.34 -3.9,-6.8 -1,-9.09 2.3,-1.81 4.8,3.46 1,9.09z"/>
      <path class="fil4" d="M105.29 69.68c-0.05,0.88 0.12,1.4 -0.34,2.75 3.2,-4.73 1.94,-9.21 0.09,-9.44 2.3,2.71 1.48,5.45 0.25,6.69z"/>
      <path class="fil4" d="M105.64 69.67c0.08,-0.47 -0.12,-1.35 -1.93,-3.47 0,0 1.74,2.97 1.59,4.41l0.33 -0.94z"/>
      <path class="fil4" d="M105.41 69.81c0.16,-1.48 -0.07,-3.25 -1.01,-5.04 0,0 1.79,1.6 1.76,4.27l-0.76 0.76z"/>
      <path class="fil5" d="M67.59 104.18c0,0 1.47,0.67 0.9,0.9 -0.57,0.23 -1.04,-0.47 -0.9,-0.9z"/>
      <path class="fil5" d="M67.04 99.06c0,0 -0.41,1.56 -0.74,1.04 -0.32,-0.52 0.29,-1.1 0.74,-1.04z"/>
     </g>
    </g>
    <g>
     <path class="fil21" d="M136.78 75l0 -38.08 4.53 0 0 38.08 -4.53 0z"/>
     <path id="1" class="fil21" d="M181.4 46.02c-1.82,-1.98 -3.76,-3.44 -5.82,-4.39 -2.07,-0.95 -4.35,-1.42 -6.84,-1.42 -2.02,0 -3.98,0.41 -5.89,1.22 -1.91,0.82 -3.58,1.95 -4.98,3.41 -1.46,1.51 -2.55,3.2 -3.28,5.06 -0.73,1.86 -1.09,3.92 -1.09,6.18 0,1.77 0.21,3.4 0.65,4.89 0.44,1.49 1.08,2.86 1.95,4.11 1.53,2.17 3.4,3.83 5.63,5.01 2.23,1.17 4.63,1.76 7.22,1.76 2.43,0 4.69,-0.51 6.76,-1.51 2.09,-1 3.99,-2.5 5.7,-4.5l0 6.01c-1.89,1.37 -3.92,2.41 -6.1,3.11 -2.17,0.7 -4.43,1.05 -6.75,1.05 -2.01,0 -3.97,-0.3 -5.88,-0.9 -1.91,-0.59 -3.69,-1.47 -5.36,-2.62 -2.77,-1.92 -4.89,-4.29 -6.36,-7.09 -1.46,-2.81 -2.2,-5.89 -2.2,-9.26 0,-2.93 0.49,-5.6 1.47,-8 0.98,-2.41 2.47,-4.58 4.48,-6.54 1.94,-1.87 4.09,-3.28 6.45,-4.2 2.36,-0.93 4.94,-1.39 7.72,-1.39 2.21,0 4.34,0.34 6.4,1 2.07,0.67 4.1,1.7 6.12,3.1l0 5.91z"/>
     <path id="2" class="fil21" d="M189.14 75l0 -38.08 4.53 0 0 14.65 20.24 0 0 -14.65 4.58 0 0 38.08 -4.58 0 0 -19.12 -20.24 0 0 19.12 -4.53 0z"/>
     <path id="3" class="fil21" d="M227.65 75l0 -38.08 4.53 0 0 38.08 -4.53 0z"/>
     <path id="4" class="fil21" d="M241.39 75l0 -38.08 7.94 0c2.79,0 4.85,0.14 6.18,0.43 1.32,0.29 2.47,0.78 3.42,1.47 1.22,0.9 2.16,2.06 2.82,3.47 0.67,1.41 1,2.97 1,4.64 0,2.02 -0.48,3.69 -1.45,5.04 -0.96,1.36 -2.36,2.3 -4.2,2.84 2.25,0.35 4.03,1.36 5.34,3.03 1.3,1.68 1.96,3.79 1.96,6.34 0,1.53 -0.27,2.98 -0.83,4.37 -0.55,1.38 -1.32,2.57 -2.31,3.57 -1.07,1.06 -2.41,1.8 -3.98,2.24 -1.58,0.44 -4.23,0.65 -7.95,0.65l-7.94 0zm4.42 -17.84l0 13.9 3.52 0c2.41,0 4.15,-0.1 5.21,-0.28 1.07,-0.2 1.92,-0.52 2.57,-0.99 0.77,-0.55 1.38,-1.32 1.83,-2.32 0.45,-0.99 0.67,-2.08 0.67,-3.28 0,-1.39 -0.27,-2.6 -0.81,-3.62 -0.53,-1.02 -1.31,-1.82 -2.33,-2.4 -0.6,-0.36 -1.3,-0.62 -2.1,-0.78 -0.79,-0.15 -2.03,-0.23 -3.71,-0.23l-1.32 0 -3.52 0zm0 -16.3l0 12.73 3.52 0c3.22,0 5.49,-0.47 6.81,-1.4 1.32,-0.93 1.98,-2.51 1.98,-4.73 0,-2.44 -0.61,-4.15 -1.84,-5.13 -1.22,-0.98 -3.54,-1.46 -6.95,-1.46l-3.52 0z"/>
     <path id="5" class="fil21" d="M283.35 45.44l-6.05 14.01 12.12 0 -6.06 -14.01zm0 -10.01l17.32 39.57 -4.91 0 -4.94 -11.66 -14.87 0 -4.94 11.66 -4.9 0 17.25 -39.57z"/>
     <path id="6" class="fil21" d="M304.61 75l0 -39.57 27.85 30.42 0 -28.93 4.31 0 0 39.57 -27.86 -30.1 0 28.61 -4.31 0z"/>
     <path class="fil22" d="M136.73 98l0 -19.08 7.74 0c2.93,0 4.84,0.09 5.73,0.28 1.37,0.29 2.52,0.91 3.44,1.87 0.92,0.96 1.39,2.2 1.39,3.72 0,1.17 -0.27,2.15 -0.8,2.95 -0.53,0.8 -1.21,1.43 -2.03,1.88 -0.82,0.45 -1.65,0.76 -2.5,0.9 -1.15,0.18 -2.82,0.28 -5,0.28l-3.14 0 0 7.19 -4.84 0zm4.84 -15.85l0 5.44 2.63 0c1.9,0 3.16,-0.1 3.8,-0.3 0.64,-0.2 1.14,-0.51 1.5,-0.94 0.36,-0.43 0.54,-0.92 0.54,-1.49 0,-0.7 -0.26,-1.27 -0.76,-1.72 -0.51,-0.45 -1.15,-0.74 -1.94,-0.85 -0.57,-0.08 -1.72,-0.13 -3.46,-0.13l-2.32 0z"/>
     <path id="1" class="fil22" d="M159 98l0 -19.08 10.17 0c2.55,0 4.41,0.17 5.57,0.51 1.16,0.34 2.09,0.95 2.78,1.83 0.7,0.88 1.05,1.88 1.05,3.01 0,1.43 -0.52,2.62 -1.58,3.55 -1.05,0.93 -2.62,1.52 -4.71,1.76 1.04,0.48 1.9,1.02 2.57,1.6 0.68,0.58 1.59,1.62 2.74,3.1l2.92 3.72 -5.77 0 -3.46 -4.17c-1.24,-1.48 -2.09,-2.41 -2.55,-2.8 -0.46,-0.38 -0.94,-0.65 -1.45,-0.79 -0.52,-0.14 -1.33,-0.21 -2.44,-0.21l-0.98 0 0 7.97 -4.84 0zm4.84 -11l3.57 0c2.32,0 3.76,-0.08 4.34,-0.23 0.57,-0.16 1.03,-0.43 1.35,-0.81 0.33,-0.38 0.49,-0.86 0.49,-1.43 0,-0.64 -0.22,-1.16 -0.65,-1.56 -0.43,-0.39 -1.03,-0.64 -1.81,-0.75 -0.39,-0.04 -1.57,-0.07 -3.52,-0.07l-3.77 0 0 4.85z"/>
     <path id="2" class="fil22" d="M182.95 98l0 -19.08 4.84 0 0 19.08 -4.84 0z"/>
     <path id="3" class="fil22" d="M192.39 98l0 -19.08 4.68 0 9.84 12.78 0 -12.78 4.47 0 0 19.08 -4.84 0 -9.69 -12.54 0 12.54 -4.47 0z"/>
     <path id="4" class="fil22" d="M221.87 98l0 -15.85 -7.08 0 0 -3.22 18.96 0 0 3.22 -7.04 0 0 15.85 -4.84 0z"/>
     <path id="5" class="fil22" d="M244.9 91.82l4.71 -0.37c0.28,1.26 0.85,2.18 1.71,2.77 0.86,0.59 2.03,0.88 3.49,0.88 1.55,0 2.72,-0.26 3.5,-0.79 0.78,-0.52 1.18,-1.14 1.18,-1.84 0,-0.45 -0.17,-0.84 -0.49,-1.15 -0.33,-0.32 -0.91,-0.59 -1.73,-0.82 -0.56,-0.16 -1.84,-0.44 -3.84,-0.83 -2.58,-0.52 -4.38,-1.15 -5.42,-1.9 -1.46,-1.05 -2.19,-2.34 -2.19,-3.85 0,-0.97 0.34,-1.89 1.03,-2.74 0.69,-0.85 1.68,-1.49 2.98,-1.94 1.3,-0.44 2.85,-0.67 4.69,-0.67 2.99,0 5.24,0.53 6.75,1.59 1.51,1.06 2.3,2.47 2.38,4.24l-4.84 0.13c-0.21,-0.99 -0.65,-1.69 -1.32,-2.12 -0.67,-0.43 -1.69,-0.65 -3.03,-0.65 -1.39,0 -2.48,0.23 -3.27,0.69 -0.51,0.3 -0.76,0.69 -0.76,1.19 0,0.45 0.24,0.84 0.72,1.16 0.61,0.41 2.08,0.84 4.42,1.28 2.34,0.44 4.07,0.9 5.19,1.37 1.12,0.48 2,1.12 2.64,1.94 0.63,0.82 0.95,1.83 0.95,3.04 0,1.09 -0.38,2.12 -1.14,3.07 -0.76,0.95 -1.84,1.67 -3.23,2.13 -1.39,0.47 -3.13,0.7 -5.2,0.7 -3.02,0 -5.34,-0.56 -6.96,-1.67 -1.62,-1.11 -2.58,-2.73 -2.9,-4.86z"/>
     <path id="6" class="fil22" d="M268.43 98l0 -19.08 4.84 0 0 7.51 9.41 0 0 -7.51 4.84 0 0 19.08 -4.84 0 0 -8.34 -9.41 0 0 8.34 -4.84 0z"/>
     <path id="7" class="fil22" d="M291.54 88.58c0,-1.95 0.37,-3.58 1.1,-4.9 0.54,-0.97 1.29,-1.85 2.23,-2.62 0.94,-0.77 1.97,-1.35 3.09,-1.72 1.49,-0.5 3.21,-0.75 5.16,-0.75 3.53,0 6.34,0.87 8.46,2.62 2.11,1.75 3.17,4.18 3.17,7.29 0,3.09 -1.05,5.5 -3.15,7.24 -2.1,1.74 -4.91,2.62 -8.42,2.62 -3.56,0 -6.39,-0.87 -8.49,-2.6 -2.1,-1.73 -3.15,-4.12 -3.15,-7.17zm4.97 -0.13c0,2.16 0.63,3.8 1.88,4.92 1.25,1.12 2.84,1.67 4.77,1.67 1.93,0 3.51,-0.56 4.75,-1.66 1.23,-1.11 1.85,-2.77 1.85,-4.99 0,-2.19 -0.6,-3.82 -1.81,-4.9 -1.2,-1.08 -2.8,-1.62 -4.8,-1.62 -1.99,0 -3.6,0.55 -4.82,1.63 -1.22,1.09 -1.83,2.73 -1.83,4.93z"/>
     <path id="8" class="fil22" d="M318.51 98l0 -19.08 7.74 0c2.93,0 4.84,0.09 5.73,0.28 1.37,0.29 2.52,0.91 3.44,1.87 0.92,0.96 1.39,2.2 1.39,3.72 0,1.17 -0.27,2.15 -0.8,2.95 -0.53,0.8 -1.21,1.43 -2.03,1.88 -0.82,0.45 -1.65,0.76 -2.5,0.9 -1.15,0.18 -2.82,0.28 -5,0.28l-3.14 0 0 7.19 -4.84 0zm4.84 -15.85l0 5.44 2.63 0c1.9,0 3.16,-0.1 3.8,-0.3 0.64,-0.2 1.14,-0.51 1.5,-0.94 0.36,-0.43 0.54,-0.92 0.54,-1.49 0,-0.7 -0.26,-1.27 -0.76,-1.72 -0.51,-0.45 -1.15,-0.74 -1.94,-0.85 -0.57,-0.08 -1.72,-0.13 -3.46,-0.13l-2.32 0z"/>
    </g>
   </g>
   <rect class="fil23" x="-0" y="-0" width="365.15" height="133.71"/>
  </g>
 </g>
</svg>
