<?xml version="1.0" encoding="UTF-8"?>
<!DOCTYPE svg PUBLIC "-//W3C//DTD SVG 1.0//EN" "http://www.w3.org/TR/2001/REC-SVG-20010904/DTD/svg10.dtd">
<!-- Creator: CorelDRAW 2020 (64 Bit) -->
<svg xmlns="http://www.w3.org/2000/svg" xml:space="preserve" width="58.1611mm" height="21.2965mm" version="1.0" style="shape-rendering:geometricPrecision; text-rendering:geometricPrecision; image-rendering:optimizeQuality; fill-rule:evenodd; clip-rule:evenodd"
viewBox="0 0 365.15 133.71"
 xmlns:xlink="http://www.w3.org/1999/xlink"
 xmlns:xodm="http://www.corel.com/coreldraw/odm/2003">
 <defs>
  <style type="text/css">
   <![CDATA[
    .fil0 {fill:none}
    .fil1 {fill:#373435;fill-rule:nonzero}
    .fil3 {fill:#3B80CA;fill-rule:nonzero}
    .fil2 {fill:#F8A3C8;fill-rule:nonzero}
    .fil4 {fill:#FFF4F4;fill-rule:nonzero}
   ]]>
  </style>
       <clipPath id="id0">
        <path d="M29.06 29.69l54.1 0 0 74.32 -54.1 0 0 -74.32zm0 0z"/>
       </clipPath>
 </defs>
 <g id="Camada_x0020_1">
  <metadata id="CorelCorpID_0Corel-Layer"/>
  <g id="_2428743110016">
   <rect class="fil0" x="-0" y="-0" width="365.15" height="133.71"/>
   <g>
    <path class="fil1" d="M104.78 89.71c11.76,0 19.87,-9.81 22.51,-12.64 0.38,-0.44 -0.19,-0.82 -0.5,-0.5 -2.89,2.89 -10.38,11.19 -20.88,11.19 -6.79,0 -12.45,-3.65 -12.89,-11.95 0,-13.52 13.02,-31.26 25.85,-31.26 3.4,0 5.66,1.57 5.79,4.15 0.19,3.77 -3.27,7.67 -6.29,9.75 0.13,1.51 1.64,2.45 3.65,0.75 2.52,-2.07 5.28,-6.23 5.09,-10.06 -0.19,-3.65 -3.4,-6.1 -8.3,-6.1 -14.02,0 -28.3,18.05 -28.3,32.83 0.5,9.43 6.98,13.84 14.28,13.84z"/>
    <path id="1" class="fil1" d="M144.97 76.57c-2.01,2.07 -5.16,4.84 -7.04,4.84 -0.69,0 -1.2,-0.38 -1.2,-1.57 0,-2.64 2.14,-5.47 2.96,-5.98 0,-1.32 -0.31,-1.95 -1.07,-1.95 -1.32,0 -2.52,2.26 -4.03,4.59 -0.88,1.32 -2.77,4.53 -4.72,4.53 -0.88,0 -1.45,-0.82 -1.45,-2.08 -0.06,-3.58 4.15,-8.87 7.04,-8.87 0.82,0 1.45,0.63 1.63,1.26 0.94,-0.13 1.2,-0.57 1.2,-1.01 -0.06,-0.63 -0.76,-1.57 -2.77,-1.57 -4.15,0 -9.69,4.91 -9.56,10.13 0.06,2.2 1.26,3.58 2.96,3.58 2.01,0 3.84,-1.26 5.85,-4.15 -0.06,0.38 -0.13,0.82 -0.13,1.26 0,1.38 0.75,3.08 2.7,3.08 2.45,0 5.47,-2.77 8.11,-5.6 0.38,-0.44 -0.13,-0.88 -0.5,-0.5z"/>
    <path id="2" class="fil1" d="M159.43 76.57c-1.32,1.32 -4.53,4.4 -6.98,4.4 -0.69,0 -1.26,-0.31 -1.26,-1.38 0,-2.39 3.46,-5.85 3.46,-7.67 0,-0.94 -0.63,-1.45 -1.64,-1.38 -0.57,0 -1.51,0.13 -2.01,0.13 -0.19,0 -0.94,0 -0.94,-0.5 0,-0.57 1.07,-2.08 1.45,-3.21 -0.19,-0.63 -0.88,-1.01 -1.57,-1.01 -1.45,0 -2.2,2.01 -2.2,3.27 0,1.01 0.5,1.45 1.13,1.76 0.06,0.06 0.13,0.06 0.25,0.13 -1.32,2.26 -3.02,4.28 -4.15,5.47 -0.31,0.38 0.19,0.82 0.5,0.5 1.13,-1.26 2.96,-3.33 4.34,-5.79 0.94,0.19 1.89,0.19 1.89,0.75 0,1.38 -2.96,4.78 -2.96,7.42 0,1.63 1.32,2.77 2.89,2.77 3.21,0 6.79,-3.65 8.3,-5.16 0.38,-0.44 -0.19,-0.82 -0.5,-0.5z"/>
    <path id="3" class="fil1" d="M164.97 67.26c0.94,0 1.89,-0.63 1.89,-1.57 0,-1.19 -1.01,-1.76 -1.89,-1.76 -0.94,0 -2.01,0.69 -2.01,1.7 0,1.19 1.07,1.63 2.01,1.63zm-1.26 14.72c3.4,0 5.91,-2.45 8.3,-4.91 0.44,-0.44 -0.13,-0.94 -0.5,-0.5 -1.89,2.01 -4.47,4.21 -7.23,4.21 -1.63,0 -2.96,-0.88 -2.96,-2.96 0,-3.65 2.83,-6.23 2.7,-7.61 -0.06,-0.75 -0.69,-1.51 -2.01,-1.19 -1.38,2.7 -2.96,5.28 -2.96,8.36 0,3.02 2.08,4.59 4.65,4.59z"/>
    <path id="4" class="fil1" d="M181.57 82.92c2.83,0 6.1,-3.02 8.74,-5.85 0.44,-0.44 -0.13,-0.88 -0.5,-0.5 -1.82,1.89 -5.09,4.97 -7.36,4.97 -0.88,0 -1.38,-0.44 -1.45,-1.45 -0.06,-1.01 0.5,-2.45 1.38,-4.15 0.82,-1.64 2.26,-3.52 2.26,-5.09 0,-1.45 -1.07,-2.14 -2.14,-2.14 -2.64,0 -6.41,4.59 -8.68,7.61 -0.38,0.5 -0.25,-0.06 -0.06,-0.5 0.63,-1.32 1.76,-3.52 1.89,-4.78 0.06,-0.94 -0.38,-1.82 -2.14,-1.51 -0.31,3.02 -3.02,7.48 -3.21,10.13 -0.06,1.45 0.82,1.89 1.76,1.7 1.45,-3.71 7.17,-10.82 9.31,-10.82 0.38,0 0.57,0.25 0.57,0.63 0,1.19 -3.08,4.91 -3.33,8.18 -0.13,2.01 0.82,3.58 2.96,3.58z"/>
    <path id="5" class="fil1" d="M202.89 76.57c-2.52,2.77 -5.6,4.4 -7.86,4.4 -1.82,0 -3.14,-1.13 -3.14,-3.65 0,-0.44 0.06,-0.94 0.13,-1.38 2.26,-0.06 4.34,-0.88 5.85,-1.89 1.63,-1.13 2.52,-2.58 2.52,-3.84 0,-1.38 -1.26,-2.45 -2.89,-2.45 -3.71,0 -8.24,4.4 -8.24,9.37 0,2.7 1.7,4.91 4.97,4.91 1.95,0 5.91,-1.32 9.18,-4.97 0.31,-0.38 -0.19,-0.82 -0.5,-0.5zm-5.41 -7.36c0.75,0 1.26,0.38 1.26,1.26 -0.06,0.69 -0.63,1.76 -1.19,2.39 -1.19,1.26 -3.14,2.33 -5.41,2.45 0.75,-3.08 2.96,-6.1 5.35,-6.1z"/>
    <path id="6" class="fil1" d="M283.39 87.7c-1.01,1.19 -2.14,1.82 -3.46,1.82 -2.7,0 -4.72,-1.7 -4.84,-4.97 -0.5,-8.81 12.01,-25.41 11.57,-32.89 -0.13,-2.26 -1.51,-3.84 -4.34,-3.84 -8.8,0 -15.97,11.51 -21.76,23.58 -0.25,0.38 -0.69,0.75 -0.19,-0.13 2.45,-5.35 5.6,-12.96 5.79,-17.48 0.19,-3.65 -1.95,-5.03 -4.47,-5.03 -7.74,0 -14.46,10.75 -19.62,19.94 1.51,-3.9 2.89,-8.05 3.84,-11.38 1.89,-6.54 -0.94,-11.82 -9.18,-11.82 -11.32,0 -23.46,8.43 -23.46,20.5 0,6.29 3.71,11.7 11.19,11.7 4.09,0 7.55,-2.01 8.55,-3.84 0.25,-0.63 0.06,-1.07 -0.69,-1.07 -0.57,1.89 -3.96,3.96 -7.67,3.96 -6.86,0 -10.31,-4.97 -10.31,-10.75 0,-10.94 11.19,-19.24 21.63,-19.24 7.3,0 8.87,4.53 7.55,10.06 -1.7,6.73 -5.72,16.73 -7.74,21.7 -2.83,7.04 -2.39,9.31 -0.06,8.3 1.95,-10.5 17.11,-36.79 25.91,-36.79 1.51,0 2.33,1.01 2.26,3.4 -0.19,5.53 -5.28,16.48 -7.86,22.89 -1.01,2.52 -2.2,7.04 0.94,6.48 7.74,-20.57 18.68,-33.77 24.97,-33.77 1.26,0 2.14,0.63 2.2,2.45 0.31,5.79 -11.32,23.08 -10.82,32.45 0.25,3.96 2.58,6.73 6.73,6.67 1.7,0 3.14,-0.57 3.77,-1.26 0.38,-0.5 0.25,-1.13 -0.44,-1.64z"/>
    <path id="7" class="fil1" d="M297.54 76.57c-2.52,2.77 -5.6,4.4 -7.86,4.4 -1.82,0 -3.14,-1.13 -3.14,-3.65 0,-0.44 0.06,-0.94 0.13,-1.38 2.26,-0.06 4.34,-0.88 5.85,-1.89 1.63,-1.13 2.52,-2.58 2.52,-3.84 0,-1.38 -1.26,-2.45 -2.89,-2.45 -3.71,0 -8.24,4.4 -8.24,9.37 0,2.7 1.7,4.91 4.97,4.91 1.95,0 5.91,-1.32 9.18,-4.97 0.31,-0.38 -0.19,-0.82 -0.5,-0.5zm-5.41 -7.36c0.75,0 1.26,0.38 1.26,1.26 -0.06,0.69 -0.63,1.76 -1.19,2.39 -1.19,1.26 -3.14,2.33 -5.41,2.45 0.75,-3.08 2.96,-6.1 5.35,-6.1z"/>
    <path id="8" class="fil1" d="M300.94 82.17c3.21,0 6.48,-2.96 8.43,-5.09 0.38,-0.44 -0.19,-0.82 -0.5,-0.5 -1.38,1.51 -4.53,4.4 -7.11,4.4 -2.58,0 -3.46,-2.08 -1.7,-7.17l10.5 -30.31c0.06,-0.13 0,-0.31 -0.19,-0.31l-1.82 0c-0.13,0 -0.19,0.06 -0.25,0.19l-10.38 30c-2.2,6.35 -0.57,8.8 3.02,8.8z"/>
    <path id="9" class="fil1" d="M312.26 82.17c3.21,0 6.48,-2.96 8.43,-5.09 0.38,-0.44 -0.19,-0.82 -0.5,-0.5 -1.38,1.51 -4.53,4.4 -7.11,4.4 -2.58,0 -3.46,-2.08 -1.7,-7.17l10.5 -30.31c0.06,-0.13 0,-0.31 -0.19,-0.31l-1.82 0c-0.13,0 -0.19,0.06 -0.25,0.19l-10.38 30c-2.2,6.35 -0.57,8.8 3.02,8.8z"/>
    <path id="10" class="fil1" d="M335.15 76.57c-1.63,1.76 -4.15,2.96 -6.42,2.96 -0.31,0 -0.57,0 -0.82,-0.06 1.82,-2.01 3.14,-4.91 3.14,-7.36 0,-2.45 -1.19,-4.4 -3.46,-4.4 -3.71,0 -7.8,5.16 -7.8,9.87 0,2.39 1.07,4.34 3.4,4.34 1.38,0 2.77,-0.69 4.03,-1.76 0.44,0.06 0.88,0.13 1.38,0.13 2.45,0 5.16,-1.13 7.04,-3.21 0.44,-0.5 -0.13,-0.94 -0.5,-0.5zm-6.23 -5.41c0,1.82 -1.01,5.53 -2.64,7.8 -2.77,-1.38 -3.84,-5.09 -1.13,-8.74 0.82,-0.82 1.63,-1.32 2.33,-1.32 1.01,0 1.45,1.13 1.45,2.26zm-5.41 9.56c-1.01,0 -1.63,-0.69 -1.63,-2.64 0,-1.45 0.38,-2.89 0.94,-4.21 -0.5,2.64 0.69,4.78 2.83,5.79 -0.63,0.69 -1.38,1.07 -2.14,1.07z"/>
    <g>
     <g id="surface1">
      <g>
      </g>
      <g style="clip-path:url(#id0)">
       <g>
        <path class="fil2" d="M46.1 34.23c2.63,-0.67 4.95,0.76 3.97,3.66 -0.49,1.46 -1.65,2.73 -2.81,3.7 -0.71,0.59 -1.5,1.12 -2.25,1.68 -0.64,0.48 -1.2,1.04 -1.92,1.4 0.28,2.07 0.05,4.3 -0.13,6.38 1.65,0.43 3.32,1.46 4.76,2.24 0.57,0.31 1.2,0.63 1.8,0.98 -0.13,-0.58 -0.21,-1.16 -0.22,-1.74 -0.18,-0.09 -0.31,-0.27 -0.3,-0.55 0.28,-6.38 1.47,-12.71 2.87,-18.92 -0.24,-0.79 -0.62,-1.52 -1.26,-1.77 -1.61,-0.64 -6.26,-2.97 -7.36,-0.45 -1.1,2.53 -1.74,3.73 -1.74,3.73l4.37 0.07c-0.07,-0.15 -0.02,-0.36 0.22,-0.42zm35.14 15.62c-2.32,-2.47 -3.66,-5.14 -6.26,-5.17 -1.41,-0.02 -2.41,-0.24 -3.02,-0.45 -1.7,4.4 -3.61,8.68 -5.35,13.05 -0.19,0.5 -0.37,1.01 -0.53,1.51 0.04,0.06 0.07,0.15 0.07,0.24 -0.09,2.18 -1.12,4.32 0.09,6.42 1.38,2.44 4.22,1.86 5.9,0.09 0.52,-0.55 0.97,-1.16 1.38,-1.8 1.25,-3.2 2.81,-6.24 4.65,-9.13 0.09,-0.19 0.16,-0.37 0.25,-0.56 0.04,-0.11 0.13,-0.16 0.22,-0.18 0.04,-0.07 0.09,-0.15 0.15,-0.22 0.57,-0.83 1.86,0.03 1.31,0.88 -2.62,3.94 -4.7,8.19 -6.14,12.69 -0.48,1.46 -0.58,3.91 -1.98,4.82 -1.4,0.91 -3.35,-0.02 -4.76,-0.43 -3.67,-1.09 -8,-1.96 -11.11,-4.33 -3.21,-2.44 -3.57,-6.38 -5.01,-9.87 -0.03,-0.06 -0.03,-0.12 -0.03,-0.18 -0.33,-0.31 -0.61,-0.68 -0.85,-1.1 -1.13,-0.94 -2.84,-1.47 -4.07,-2.01 -1.43,-0.63 -3.14,-1.03 -4.42,-1.9 -0.04,-0.03 -0.09,-0.07 -0.13,-0.12 -0.22,-0.13 -0.39,-0.37 -0.34,-0.73 0.28,-2.36 0.31,-4.87 0.88,-7.19 0.07,-0.28 0.37,-0.36 0.61,-0.27 0.98,-1.55 3.2,-2.47 4.58,-3.57 0.95,-0.76 1.77,-1.71 2.11,-2.91 0.7,-2.42 -1.4,-2.73 -3.2,-2.57 -0.04,0 -0.07,0 -0.1,-0.01l-6.73 0.67c0,0 -7.3,0.65 -7.96,2.53 -0.68,1.9 -1.89,10.45 -1.89,10.45l-0.51 8.32 6.2 10.51c0,0 5.81,7.88 6.94,9.59 1.13,1.71 5,3.34 5.28,5.47 0.28,2.13 2.22,13.18 2.22,13.18l0.15 5.68c1.16,0.61 2.44,1.01 3.75,1.34 2.88,0.73 5.84,1.2 8.82,1.38 3.21,0.18 6.3,-0.19 9.47,-0.73 2.1,-0.36 4.37,-0.62 6.07,-1.93l-0.8 -13.39c0,0 0.07,-3.55 2.74,-6.67 2.65,-3.12 3.24,-17.18 3.24,-17.18 0,0 0.43,-11.74 -1.89,-14.21zm-30.94 1.67c0.18,1.84 0.88,6.76 3.9,5.08 1,-0.55 1.65,-1.67 2.16,-2.87 0.12,-0.34 0.24,-0.65 0.37,-0.98 0.28,-0.77 0.52,-1.55 0.76,-2.17 1.49,-3.86 2.78,-7.8 4.13,-11.71l-1.04 -2.85c0,0 -2.08,-1.9 -3.7,-2.27 -1.62,-0.37 -4.65,-0.01 -4.64,1.9 0,0 0,-0.27 -0.04,-0.67 -0.76,5.47 -1.25,10.97 -1.93,16.44 0.03,0.03 0.05,0.06 0.05,0.1l0 0zm8.71 -0.73c-0.91,2.53 -1.25,3.27 -1.73,4.96 -0.52,1.86 -0.79,2.78 -0.77,3.72 0.03,2.17 1.04,5.22 2.81,5.51 1.43,0.24 2.81,-1.38 3.7,-2.44 0.64,-0.74 1.16,-1.58 2.13,-3.78 0.82,-1.86 1.06,-2.85 1.83,-4.7 1.43,-3.37 3.05,-6.66 4.67,-9.94 -0.31,-0.12 -0.48,-0.22 -0.48,-0.22 0,0 0.56,-2.57 -1.28,-3.64 -1.86,-1.07 -5.77,-1.99 -5.77,-1.99l-1.71 1.62c-0.61,2.38 -1.34,4.73 -2.13,7.06 -0.4,1.26 -0.82,2.56 -1.28,3.83zm-3.41 6.5c-0.13,1.56 -0.04,3.09 0.3,4.38 0.7,2.6 3.11,5.34 6.08,4.44 1.22,-0.37 1.99,-1.37 2.48,-2.48 0.1,0.83 0.34,1.63 0.76,2.32 1.09,1.84 3.12,2.57 5.13,1.86 0.86,-0.31 1.58,-0.82 2.2,-1.44 -0.3,0.92 -0.58,1.86 -0.83,2.8 -0.07,0.3 -0.21,1.11 -0.42,1.35 -0.43,0.47 -1.31,0.25 -1.83,0.13 -0.94,-0.22 -1.86,-0.52 -2.8,-0.77 -3.33,-0.88 -7.09,-1.5 -9.92,-3.58 -2.81,-2.06 -3.15,-5.42 -4.6,-8.31 1.23,0.52 2.47,0.12 3.43,-0.7z"/>
       </g>
      </g>
      <path class="fil0" d="M29.06 29.69l54.1 0 0 74.32 -54.1 0 0 -74.32zm0 0z"/>
      <path class="fil3" d="M66.86 61.24c-0.24,1.61 -0.15,4.45 1.16,4.95 1.67,0.64 4.27,-2.94 4.39,-3.12 0.86,-1.2 1.28,-2.38 1.49,-3.12 -0.37,-0.48 -1.07,-1.24 -2.16,-1.83 -1.23,-0.68 -2.39,-0.83 -3.03,-0.88 -0.55,0.65 -1.55,2.04 -1.84,4zm-9.35 -1.93c-0.09,1.62 0.27,4.45 1.61,4.82 1.72,0.48 3.98,-3.31 4.09,-3.51 0.74,-1.28 1.06,-2.48 1.2,-3.25 -0.42,-0.45 -1.17,-1.13 -2.32,-1.64 -1.29,-0.56 -2.45,-0.62 -3.09,-0.59 -0.51,0.74 -1.37,2.2 -1.49,4.17zm-5.77 -5.05c0.24,0.69 0.53,1.58 1.19,1.76 1.09,0.3 2.48,-1.66 3.08,-3.3 0.49,-1.35 0.46,-2.6 0.4,-3.29 -0.46,-0.36 -1.17,-0.8 -2.1,-1.08 -1.01,-0.31 -1.87,-0.33 -2.47,-0.28 -0.4,1.29 -0.94,3.76 -0.1,6.2zm-11.81 -18.76c0,0 4.13,-3.76 10.72,-0.45l-10.33 2.23 -0.39 -1.78z"/>
      <path class="fil3" d="M56.61 88.48c-0.37,-0.16 -0.77,-0.21 -1.16,-0.31 -0.42,-0.12 -0.82,-0.37 -1.25,-0.43 -0.27,-0.03 -0.51,0.27 -0.28,0.49 0.33,0.33 0.85,0.43 1.28,0.53 0.45,0.1 0.92,0.18 1.37,0.04 0.12,-0.04 0.19,-0.26 0.04,-0.33zm-5.77 -3.43c2.02,0.86 4.07,1.49 6.26,1.77 1.89,0.25 4.36,0.55 6.2,-0.1 0.33,-0.12 0.27,-0.56 -0.07,-0.59 -0.98,-0.09 -2.01,0.12 -3,0.12 -1,0.01 -2.01,-0.04 -3,-0.15 -2.1,-0.24 -4.19,-0.73 -6.17,-1.47 -0.27,-0.09 -0.46,0.33 -0.21,0.43zm-18.41 -46.49c0.07,1.04 0.65,2.11 1.61,2.59 0.48,0.24 0.89,-0.45 0.42,-0.73 -0.77,-0.46 -1.34,-1.04 -1.56,-1.93 -0.06,-0.24 -0.49,-0.19 -0.46,0.07zm46.05 11.98c-0.98,-1.43 -2.39,-2.24 -4.07,-2.61 -0.51,-0.12 -0.62,0.67 -0.09,0.7 1.55,0.07 2.96,0.94 3.93,2.1 0.1,0.13 0.33,-0.03 0.24,-0.18zm-10.08 -7.61c-0.55,-0.49 -1.16,-0.89 -1.81,-1.23 -0.49,-0.27 -1.14,-0.77 -1.72,-0.61 -0.12,0.03 -0.19,0.18 -0.12,0.3 0.33,0.48 1.06,0.56 1.58,0.8 0.65,0.3 1.26,0.67 1.9,1.01 0.13,0.07 0.31,-0.13 0.18,-0.27zm-8.56 -5.48c0.19,0.18 -0.09,0.45 -0.28,0.28 -1.5,-1.2 -3.23,-1.72 -5.13,-1.78 -0.49,-0.01 -0.49,-0.77 0,-0.76 2.04,0.06 3.91,0.92 5.41,2.26z"/>
      <path class="fil4" d="M40.7 37.25c-0.21,0.03 -0.4,0.04 -0.61,0.07 -0.18,0.03 -0.4,0.05 -0.53,0.19 -0.07,0.09 -0.04,0.22 0.07,0.25 0.18,0.06 0.36,-0.02 0.53,-0.07 0.19,-0.06 0.39,-0.13 0.58,-0.19 0.12,-0.04 0.1,-0.28 -0.04,-0.25zm-0.07 -1.92c-0.18,0.04 -0.36,0.1 -0.52,0.18 -0.15,0.07 -0.34,0.13 -0.42,0.3 -0.03,0.07 -0.02,0.19 0.09,0.21 0.18,0.03 0.31,-0.06 0.48,-0.15 0.16,-0.09 0.34,-0.18 0.51,-0.27 0.13,-0.07 0.03,-0.33 -0.13,-0.27zm7.85 0.04c-0.19,0.03 -0.4,0.03 -0.61,0.03 -0.28,0 -0.28,0.43 0,0.43 0.27,0 0.48,-0.07 0.71,-0.19 0.15,-0.09 0.04,-0.3 -0.1,-0.27zm-3.29 0.74c-0.24,0.03 -0.48,0.07 -0.71,0.12 -0.22,0.04 -0.45,0.07 -0.64,0.19 -0.15,0.1 -0.09,0.33 0.09,0.34 0.22,0.01 0.45,-0.07 0.65,-0.13 0.24,-0.07 0.46,-0.13 0.68,-0.21 0.21,-0.07 0.12,-0.34 -0.07,-0.31zm26.87 27.11c-0.3,0.34 -0.56,0.67 -0.71,1.1 -0.07,0.21 0.24,0.31 0.34,0.15 0.22,-0.34 0.39,-0.72 0.62,-1.06 0.1,-0.15 -0.13,-0.34 -0.25,-0.19zm-4.95 -0.37c-0.13,0.24 -0.27,0.46 -0.39,0.7 -0.1,0.21 -0.24,0.43 -0.19,0.67 0.03,0.13 0.18,0.18 0.28,0.12 0.21,-0.1 0.28,-0.36 0.39,-0.57 0.1,-0.22 0.22,-0.46 0.34,-0.68 0.13,-0.27 -0.27,-0.5 -0.43,-0.24zm6.45 -3.86c-0.04,0.15 -0.1,0.31 -0.15,0.46 -0.04,0.15 -0.1,0.3 -0.04,0.45 0.04,0.12 0.18,0.15 0.27,0.07 0.13,-0.1 0.15,-0.25 0.19,-0.4 0.03,-0.16 0.07,-0.33 0.1,-0.47 0.06,-0.24 -0.3,-0.34 -0.37,-0.1zm-5.96 0.55l0.01 -0.02c0.07,-0.06 0.12,-0.13 0.09,-0.24l0 -0.01c-0.04,-0.15 -0.24,-0.21 -0.36,-0.09 -0.21,0.22 -0.4,0.49 -0.56,0.76 -0.06,0.1 -0.03,0.21 0.04,0.3 0.03,0.03 0.06,0.05 0.1,0.06 0.07,0.03 0.18,0 0.24,-0.06 0.19,-0.24 0.39,-0.51 0.52,-0.79 -0.1,0.02 -0.22,0.03 -0.33,0.05l0.01 0.02c-0.01,-0.09 -0.01,-0.16 -0.03,-0.25 0,0 0,0.02 -0.01,0.02 -0.09,0.16 0.09,0.39 0.27,0.27zm3.29 -2.25c-0.09,0.18 -0.18,0.36 -0.28,0.52 -0.09,0.15 -0.22,0.31 -0.25,0.49 -0.01,0.09 0.08,0.19 0.16,0.13 0.16,-0.11 0.25,-0.31 0.33,-0.48 0.09,-0.19 0.16,-0.38 0.21,-0.59 0.04,-0.1 -0.1,-0.18 -0.16,-0.07zm-10.07 5.66c-0.13,0.24 -0.28,0.49 -0.3,0.76 -0.02,0.22 0.33,0.31 0.42,0.12 0.12,-0.22 0.16,-0.49 0.25,-0.73 0.07,-0.21 -0.25,-0.33 -0.37,-0.15zm-2.72 -1.23c-0.09,0.16 -0.18,0.31 -0.25,0.47 -0.07,0.15 -0.18,0.31 -0.19,0.49 -0.04,0.25 0.25,0.39 0.42,0.18 0.1,-0.13 0.15,-0.33 0.21,-0.49 0.06,-0.16 0.12,-0.34 0.16,-0.51 0.06,-0.19 -0.24,-0.33 -0.34,-0.15zm6.29 -5.25c-0.09,0.22 -0.18,0.43 -0.25,0.65 -0.07,0.19 -0.16,0.39 -0.12,0.6 0.03,0.12 0.16,0.13 0.25,0.06 0.16,-0.13 0.21,-0.36 0.25,-0.55 0.06,-0.22 0.12,-0.45 0.19,-0.67 0.06,-0.21 -0.25,-0.28 -0.33,-0.09zm-6.87 1.95c-0.15,0.16 -0.36,0.43 -0.33,0.67 0.01,0.24 0.3,0.3 0.43,0.12 0.06,-0.09 0.09,-0.21 0.12,-0.31 0.03,-0.1 0.07,-0.19 0.1,-0.3 0.04,-0.18 -0.21,-0.31 -0.33,-0.18zm4.48 -3.02c-0.06,0.13 -0.12,0.28 -0.18,0.42 -0.06,0.13 -0.13,0.28 -0.16,0.43 -0.02,0.07 0,0.17 0.06,0.22 0.06,0.05 0.09,0.06 0.16,0.07 0.09,0 0.15,-0.04 0.19,-0.12 0.16,-0.24 0.24,-0.58 0.36,-0.85 0.1,-0.24 -0.33,-0.41 -0.43,-0.18zm-2.71 -0.8c-0.18,0.27 -0.36,0.58 -0.43,0.89 -0.07,0.27 0.33,0.46 0.46,0.19 0.15,-0.3 0.24,-0.63 0.36,-0.92 0.09,-0.22 -0.27,-0.36 -0.39,-0.16zm-7.42 -0.67c-0.12,0.28 -0.27,0.58 -0.3,0.88 -0.02,0.12 0.01,0.22 0.12,0.28 0.05,0.03 0.07,0.03 0.12,0.03 0.12,-0.02 0.19,-0.07 0.24,-0.18 0.1,-0.27 0.15,-0.56 0.24,-0.83 0.06,-0.24 -0.33,-0.42 -0.42,-0.18zm4.16 -2.42c-0.06,0.19 -0.15,0.39 -0.21,0.58 -0.04,0.17 -0.13,0.33 -0.03,0.49 0.04,0.06 0.12,0.09 0.19,0.04 0.18,-0.1 0.18,-0.3 0.21,-0.48 0.03,-0.21 0.04,-0.4 0.06,-0.61 0.01,-0.13 -0.19,-0.15 -0.22,-0.03zm-4.8 -0.47c-0.06,0.19 -0.12,0.37 -0.16,0.56 -0.04,0.18 -0.12,0.37 -0.02,0.53 0.06,0.09 0.18,0.13 0.28,0.07 0.19,-0.12 0.19,-0.31 0.24,-0.51 0.04,-0.21 0.07,-0.4 0.09,-0.61 0.03,-0.25 -0.36,-0.28 -0.43,-0.06zm0.65 -3.21c-0.06,0.18 -0.1,0.36 -0.16,0.52 -0.06,0.16 -0.12,0.3 -0.09,0.47 0.02,0.1 0.18,0.15 0.25,0.06 0.12,-0.13 0.13,-0.28 0.16,-0.45 0.04,-0.18 0.09,-0.36 0.13,-0.53 0.06,-0.18 -0.24,-0.25 -0.3,-0.07zm3.98 0.77c-0.04,0.24 -0.12,0.46 -0.12,0.7 0,0.07 0.06,0.16 0.13,0.18l0.04 0c0.07,0.01 0.15,-0.06 0.18,-0.14 0.07,-0.22 0.07,-0.47 0.09,-0.71 0.02,-0.18 -0.28,-0.21 -0.33,-0.03zm-1.4 -0.98c-0.07,0.25 -0.15,0.51 -0.22,0.76 -0.06,0.21 -0.15,0.39 -0.05,0.59 0.03,0.06 0.12,0.09 0.18,0.05 0.18,-0.13 0.19,-0.33 0.24,-0.53 0.06,-0.25 0.1,-0.52 0.16,-0.77 0.04,-0.19 -0.25,-0.28 -0.31,-0.09zm-13.29 -11.16c-0.12,0.04 -0.25,0.07 -0.37,0.13 -0.16,0.09 -0.04,0.31 0.12,0.28 0.12,-0.01 0.22,-0.07 0.34,-0.12 0.16,-0.06 0.1,-0.36 -0.09,-0.3zm0.42 -0.88c-0.24,0 -0.52,0.04 -0.71,0.19 -0.12,0.09 -0.06,0.31 0.1,0.27 0.21,-0.06 0.39,-0.15 0.61,-0.18 0.16,-0.01 0.18,-0.28 0,-0.28zm1.32 -1.07c-0.33,0.02 -0.83,0.04 -1.05,0.33 -0.04,0.06 -0.02,0.15 0.06,0.15 0.15,0 0.31,-0.07 0.45,-0.12 0.18,-0.06 0.36,-0.09 0.54,-0.1 0.18,-0.02 0.18,-0.27 0.01,-0.25zm0.66 1.34c-0.37,0.03 -0.89,0.03 -1.18,0.3 -0.04,0.04 -0.01,0.12 0.03,0.13 0.18,0.04 0.36,0 0.54,-0.04 0.21,-0.05 0.43,-0.09 0.64,-0.12 0.15,-0.03 0.12,-0.28 -0.03,-0.27zm0.85 -0.89c-0.18,0.01 -0.37,0.03 -0.55,0.04 -0.15,0.02 -0.31,0.02 -0.4,0.13 -0.04,0.05 -0.03,0.12 0.02,0.15 0.12,0.08 0.27,0.05 0.4,0.03 0.18,-0.03 0.36,-0.04 0.53,-0.06 0.18,-0.03 0.19,-0.31 0,-0.3zm0.48 -1.01c-0.16,0 -0.33,0.01 -0.49,0.04 -0.13,0.01 -0.3,0.03 -0.37,0.16 -0.03,0.05 -0.02,0.1 0.03,0.12 0.12,0.06 0.24,0.02 0.36,-0.02 0.15,-0.03 0.31,-0.04 0.48,-0.04 0.18,-0.01 0.18,-0.27 0,-0.27zm1.65 1.07c-0.1,0.03 -0.21,0.06 -0.31,0.07 -0.1,0.01 -0.21,0 -0.28,0.06 -0.07,0.04 -0.06,0.13 0,0.18 0.09,0.07 0.21,0.04 0.33,0.03 0.12,-0.02 0.24,-0.06 0.34,-0.1 0.13,-0.06 0.07,-0.3 -0.07,-0.24zm0.06 -0.67c-0.25,-0.03 -0.53,-0.1 -0.77,-0.02 -0.07,0.03 -0.1,0.13 -0.03,0.18 0.24,0.12 0.52,0.09 0.76,0.07 0.13,-0.02 0.18,-0.22 0.04,-0.24zm1.89 0.27c-0.13,-0.03 -0.25,-0.04 -0.39,-0.07 -0.12,-0.03 -0.21,-0.06 -0.33,0 -0.06,0.03 -0.06,0.12 -0.02,0.16 0.07,0.09 0.19,0.09 0.3,0.11 0.12,0.01 0.24,0.03 0.36,0.06 0.16,0.03 0.24,-0.21 0.07,-0.25zm19.3 25.55c-0.19,0.21 -0.4,0.46 -0.45,0.74 -0.01,0.16 0.22,0.24 0.33,0.13 0.09,-0.09 0.15,-0.21 0.21,-0.33 0.06,-0.1 0.13,-0.22 0.21,-0.33 0.12,-0.16 -0.16,-0.39 -0.3,-0.22zm0.49 4.04c-0.06,0.14 -0.13,0.25 -0.21,0.37 -0.07,0.12 -0.16,0.22 -0.16,0.37 0,0.11 0.1,0.19 0.21,0.15 0.16,-0.06 0.24,-0.18 0.31,-0.33 0.07,-0.13 0.13,-0.28 0.21,-0.43 0.06,-0.19 -0.27,-0.33 -0.36,-0.14zm1.31 -0.04c-0.13,0.15 -0.27,0.28 -0.37,0.45 -0.09,0.13 -0.25,0.3 -0.21,0.46 0.01,0.06 0.07,0.09 0.12,0.07 0.16,-0.03 0.24,-0.24 0.31,-0.37 0.1,-0.16 0.21,-0.33 0.31,-0.49 0.07,-0.1 -0.07,-0.21 -0.16,-0.12zm1.4 -1.01c-0.09,0.13 -0.18,0.27 -0.25,0.42 -0.06,0.15 -0.13,0.28 -0.03,0.41 0.03,0.05 0.09,0.05 0.13,0.03 0.15,-0.03 0.19,-0.19 0.24,-0.31 0.06,-0.13 0.13,-0.27 0.21,-0.39 0.12,-0.18 -0.18,-0.34 -0.3,-0.16zm-1.98 -1.04c-0.13,0.19 -0.25,0.4 -0.36,0.61 -0.09,0.18 -0.24,0.39 -0.16,0.59 0.03,0.11 0.15,0.15 0.24,0.11 0.19,-0.09 0.25,-0.33 0.33,-0.49 0.09,-0.21 0.19,-0.42 0.28,-0.61 0.1,-0.24 -0.19,-0.42 -0.33,-0.21zm-0.42 -1.5c-0.1,0.16 -0.21,0.33 -0.28,0.49 -0.07,0.15 -0.15,0.3 -0.12,0.46 0.02,0.09 0.13,0.12 0.19,0.07 0.15,-0.09 0.22,-0.27 0.3,-0.42 0.07,-0.16 0.13,-0.34 0.21,-0.52 0.03,-0.15 -0.21,-0.24 -0.3,-0.09zm1.92 1.08c-0.18,0.36 -0.39,0.7 -0.61,1.02 -0.15,0.22 0.22,0.45 0.37,0.21 0.22,-0.36 0.39,-0.73 0.52,-1.11 0.04,-0.16 -0.21,-0.27 -0.28,-0.12zm1.92 -0.83c-0.12,0.16 -0.22,0.33 -0.34,0.49 -0.1,0.15 -0.24,0.31 -0.27,0.49 -0.01,0.12 0.1,0.25 0.22,0.16 0.15,-0.1 0.24,-0.3 0.33,-0.46 0.1,-0.19 0.19,-0.37 0.3,-0.56 0.07,-0.15 -0.15,-0.27 -0.24,-0.12zm-0.39 -1.46c-0.12,0.19 -0.24,0.37 -0.36,0.56 -0.1,0.18 -0.22,0.33 -0.25,0.54 -0.02,0.13 0.16,0.18 0.25,0.1 0.15,-0.12 0.22,-0.34 0.3,-0.51 0.09,-0.19 0.18,-0.39 0.27,-0.58 0.06,-0.15 -0.12,-0.25 -0.21,-0.12zm-1.84 0.13c-0.15,0.15 -0.22,0.35 -0.31,0.55 -0.1,0.19 -0.21,0.39 -0.33,0.58 -0.18,0.31 0.3,0.58 0.49,0.28 0.12,-0.19 0.24,-0.4 0.33,-0.62 0.09,-0.19 0.19,-0.43 0.16,-0.64 0,-0.17 -0.21,-0.28 -0.34,-0.15zm-0.89 -1.17c-0.1,0.18 -0.19,0.36 -0.28,0.55 -0.07,0.16 -0.16,0.33 -0.09,0.51 0.03,0.04 0.1,0.07 0.15,0.06 0.18,-0.06 0.22,-0.22 0.3,-0.37 0.07,-0.18 0.16,-0.37 0.24,-0.55 0.1,-0.22 -0.19,-0.4 -0.31,-0.19zm-10.85 0.95c-0.09,0.16 -0.18,0.31 -0.25,0.48 -0.07,0.16 -0.15,0.33 -0.07,0.49 0.05,0.09 0.16,0.1 0.24,0.06 0.15,-0.07 0.18,-0.25 0.24,-0.39 0.06,-0.15 0.12,-0.3 0.19,-0.45 0.12,-0.22 -0.21,-0.43 -0.34,-0.19zm0.85 1.74l-0.27 0.58c-0.07,0.16 -0.18,0.3 -0.09,0.48 0.02,0.04 0.09,0.07 0.13,0.06 0.18,-0.06 0.19,-0.24 0.25,-0.4 0.08,-0.19 0.13,-0.4 0.21,-0.6 0.06,-0.15 -0.18,-0.25 -0.24,-0.12zm-0.24 2.08c-0.06,0.09 -0.12,0.19 -0.16,0.3 -0.04,0.1 -0.09,0.21 -0.03,0.31 0.04,0.04 0.1,0.07 0.16,0.04 0.09,-0.04 0.1,-0.15 0.13,-0.24 0.03,-0.1 0.07,-0.19 0.13,-0.27 0.09,-0.16 -0.15,-0.3 -0.24,-0.15zm2.48 -1.67c-0.18,0.13 -0.39,0.37 -0.39,0.61 0,0.13 0.16,0.18 0.25,0.1 0.07,-0.07 0.12,-0.19 0.16,-0.3 0.05,-0.1 0.09,-0.19 0.12,-0.31 0.02,-0.06 -0.07,-0.15 -0.15,-0.1zm-1.04 -0.31c-0.09,0.21 -0.18,0.42 -0.25,0.64 -0.06,0.16 -0.19,0.36 -0.07,0.52 0.03,0.04 0.07,0.06 0.13,0.06 0.19,-0.03 0.25,-0.27 0.31,-0.43 0.09,-0.22 0.15,-0.46 0.19,-0.7 0.03,-0.21 -0.24,-0.27 -0.31,-0.09zm-0.88 -3.05c-0.04,0.16 -0.1,0.33 -0.15,0.49 -0.01,0.05 0,0.1 0.03,0.13 0.05,0.04 0.07,0.04 0.13,0.03 0.04,-0.01 0.09,-0.06 0.1,-0.1 0.04,-0.16 0.09,-0.33 0.13,-0.51 0.06,-0.13 -0.19,-0.21 -0.25,-0.05zm0.19 1.38c-0.16,0.31 -0.31,0.61 -0.42,0.94 -0.03,0.07 0.01,0.15 0.07,0.19 0.03,0.01 0.06,0.03 0.09,0.03 0.07,0 0.15,-0.06 0.16,-0.13 0.1,-0.31 0.19,-0.63 0.31,-0.94 0.07,-0.14 -0.15,-0.22 -0.22,-0.09zm3.24 -0.8c-0.07,0.16 -0.16,0.33 -0.24,0.49 -0.07,0.15 -0.16,0.3 -0.18,0.46 0,0.12 0.13,0.16 0.22,0.09 0.13,-0.1 0.18,-0.28 0.22,-0.43 0.06,-0.18 0.09,-0.36 0.13,-0.53 0.03,-0.1 -0.12,-0.18 -0.16,-0.07zm-1.32 1.07c-0.07,0.13 -0.16,0.27 -0.24,0.42 -0.07,0.13 -0.16,0.25 -0.09,0.39 0.03,0.06 0.09,0.07 0.15,0.06 0.15,-0.03 0.19,-0.19 0.24,-0.33 0.06,-0.15 0.1,-0.3 0.16,-0.45 0.04,-0.13 -0.15,-0.21 -0.22,-0.09zm0.95 -2.66c-0.12,0.22 -0.24,0.46 -0.34,0.7 -0.07,0.18 -0.18,0.37 -0.09,0.56 0.01,0.04 0.09,0.07 0.13,0.06 0.19,-0.07 0.25,-0.28 0.31,-0.46 0.09,-0.24 0.16,-0.49 0.22,-0.74 0.06,-0.16 -0.16,-0.27 -0.24,-0.12zm-1.64 0.7c-0.06,0.19 -0.12,0.38 -0.18,0.58 -0.04,0.18 -0.1,0.33 -0.03,0.49 0.04,0.09 0.16,0.09 0.24,0.03 0.13,-0.12 0.15,-0.3 0.18,-0.46 0.03,-0.19 0.06,-0.37 0.09,-0.56 0.03,-0.18 -0.24,-0.27 -0.3,-0.07zm-2.04 -1.03c-0.1,0.2 -0.19,0.4 -0.25,0.61 -0.05,0.18 -0.1,0.39 0.03,0.53 0.03,0.04 0.1,0.04 0.15,0.01 0.16,-0.09 0.16,-0.28 0.21,-0.46 0.04,-0.21 0.09,-0.4 0.16,-0.61 0.03,-0.13 -0.22,-0.24 -0.3,-0.09zm1.1 -0.41c-0.09,0.19 -0.16,0.4 -0.22,0.6 -0.05,0.15 -0.1,0.39 0.1,0.45 0.19,0.06 0.27,-0.16 0.31,-0.3 0.06,-0.21 0.12,-0.43 0.13,-0.65 0.03,-0.18 -0.25,-0.24 -0.33,-0.09zm-6.69 -1.53c-0.19,0.07 -0.28,0.33 -0.31,0.52 -0.02,0.1 0.09,0.19 0.18,0.21 0.12,0.02 0.19,-0.05 0.24,-0.15 0.06,-0.13 0.12,-0.33 0.09,-0.48 -0.03,-0.07 -0.12,-0.13 -0.19,-0.1zm1.05 -1.38c-0.04,0.15 -0.1,0.3 -0.16,0.45 -0.04,0.13 -0.12,0.27 0,0.39 0.03,0.03 0.09,0.04 0.12,0.03 0.15,-0.04 0.16,-0.19 0.19,-0.33 0.03,-0.16 0.06,-0.31 0.1,-0.48 0.04,-0.16 -0.21,-0.22 -0.25,-0.06zm-1.31 -0.45c-0.07,0.22 -0.13,0.45 -0.16,0.67 -0.03,0.16 -0.09,0.37 0.04,0.5 0.04,0.05 0.1,0.03 0.15,0 0.13,-0.1 0.1,-0.3 0.12,-0.46 0.02,-0.22 0.06,-0.43 0.1,-0.64 0.04,-0.18 -0.21,-0.25 -0.25,-0.07zm-0.58 -1.41c-0.03,0.13 -0.07,0.28 -0.1,0.42 -0.03,0.12 -0.09,0.25 -0.02,0.36 0.03,0.06 0.1,0.07 0.16,0.04 0.12,-0.07 0.12,-0.19 0.15,-0.33 0.03,-0.13 0.05,-0.28 0.07,-0.42 0.03,-0.17 -0.22,-0.24 -0.27,-0.07zm1.74 0.1c-0.06,0.18 -0.12,0.37 -0.18,0.55 -0.04,0.17 -0.12,0.31 -0.09,0.48 0.02,0.09 0.13,0.12 0.19,0.04 0.12,-0.12 0.13,-0.28 0.16,-0.45 0.04,-0.19 0.09,-0.37 0.13,-0.56 0.06,-0.15 -0.16,-0.21 -0.22,-0.06zm0.8 -1.95c-0.03,0.21 -0.07,0.43 -0.1,0.64 -0.03,0.18 -0.07,0.36 0.03,0.52 0.04,0.06 0.12,0.07 0.18,0.03 0.13,-0.12 0.13,-0.31 0.16,-0.49 0.03,-0.22 0.04,-0.43 0.06,-0.66 0.02,-0.18 -0.3,-0.22 -0.33,-0.04zm-1.53 0.31c-0.05,0.19 -0.07,0.39 -0.1,0.59 -0.03,0.16 -0.06,0.33 0.06,0.46 0.03,0.03 0.1,0.04 0.15,0.01 0.15,-0.09 0.15,-0.25 0.16,-0.41 0.02,-0.19 0.03,-0.4 0.03,-0.61 0.01,-0.18 -0.25,-0.22 -0.3,-0.05zm-0.89 -1.23c0.03,-0.16 0.3,-0.12 0.28,0.05 -0.04,0.37 -0.03,0.89 -0.24,1.22 -0.04,0.09 -0.19,0.07 -0.21,-0.03 -0.09,-0.37 0.07,-0.86 0.16,-1.23z"/>
     </g>
    </g>
   </g>
  </g>
 </g>
</svg>
