<?xml version="1.0" encoding="UTF-8"?>
<!DOCTYPE svg PUBLIC "-//W3C//DTD SVG 1.0//EN" "http://www.w3.org/TR/2001/REC-SVG-20010904/DTD/svg10.dtd">
<!-- Creator: CorelDRAW 2020 (64 Bit) -->
<svg xmlns="http://www.w3.org/2000/svg" xml:space="preserve" width="58.1612mm" height="22.0744mm" version="1.0" style="shape-rendering:geometricPrecision; text-rendering:geometricPrecision; image-rendering:optimizeQuality; fill-rule:evenodd; clip-rule:evenodd"
viewBox="0 0 322.59 122.44"
 xmlns:xlink="http://www.w3.org/1999/xlink"
 xmlns:xodm="http://www.corel.com/coreldraw/odm/2003">
 <defs>
  <style type="text/css">
   <![CDATA[
    .fil0 {fill:none}
    .fil2 {fill:#AD3438}
    .fil1 {fill:#AD3438;fill-rule:nonzero}
   ]]>
  </style>
 </defs>
 <g id="Camada_x0020_1">
  <metadata id="CorelCorpID_0Corel-Layer"/>
  <g id="_2426947010704">
   <rect class="fil0" x="0" y="-0" width="322.59" height="118.12"/>
   <rect class="fil0" x="0" y="4.31" width="322.59" height="118.12"/>
   <g>
    <path class="fil1" d="M34 69.3l0 6.5 -1.37 0 0 -6.5 1.37 0zm-3.32 0l0 6.5 -1.37 0 0 -6.5 1.37 0z"/>
    <path id="1" class="fil1" d="M39.27 84.23l1.3 0c2.11,0 3.58,-0.09 4.39,-0.28 0.81,-0.18 1.49,-0.5 2.03,-0.95 0.71,-0.59 1.24,-1.34 1.61,-2.27 0.37,-0.93 0.55,-1.99 0.55,-3.19 0,-1.2 -0.18,-2.26 -0.55,-3.18 -0.36,-0.91 -0.9,-1.67 -1.62,-2.26 -0.54,-0.45 -1.23,-0.77 -2.06,-0.97 -0.83,-0.19 -2.29,-0.29 -4.37,-0.29l-1.3 0 0 13.38zm-2.07 1.93l0 -17.21 3.31 0c2.44,0 4.16,0.12 5.16,0.37 1,0.25 1.88,0.66 2.63,1.24 0.99,0.76 1.74,1.73 2.25,2.92 0.51,1.18 0.76,2.55 0.76,4.09 0,1.54 -0.25,2.89 -0.76,4.07 -0.51,1.18 -1.26,2.15 -2.25,2.91 -0.75,0.58 -1.61,0.99 -2.57,1.24 -0.96,0.25 -2.46,0.37 -4.49,0.37l-0.74 0 -3.31 0z"/>
    <path id="2" class="fil1" d="M132.45 69.3l0 6.5 -1.37 0 0 -6.5 1.37 0zm-3.32 0l0 6.5 -1.37 0 0 -6.5 1.37 0z"/>
    <path id="3" class="fil1" d="M142.75 86.16l0 -17.21 2.02 0 0 7.66 7.23 -7.66 2.44 0 -7.38 7.75 8.11 9.47 -2.64 0 -7.76 -9.26 0 9.26 -2.02 0z"/>
    <path id="4" class="fil1" d="M165.11 82.76l-4.16 -5.03 -0.51 0.34c-0.94,0.64 -1.59,1.22 -1.95,1.74 -0.36,0.52 -0.53,1.09 -0.53,1.73 0,0.91 0.3,1.67 0.9,2.27 0.6,0.61 1.35,0.91 2.25,0.91 0.64,0 1.28,-0.16 1.93,-0.47 0.65,-0.31 1.34,-0.81 2.07,-1.48zm-3.44 -7.15l0.75 -0.43c0.53,-0.33 0.93,-0.7 1.2,-1.12 0.27,-0.41 0.41,-0.87 0.41,-1.36 0,-0.59 -0.18,-1.06 -0.55,-1.42 -0.37,-0.36 -0.86,-0.53 -1.47,-0.53 -0.59,0 -1.08,0.19 -1.46,0.57 -0.38,0.37 -0.57,0.85 -0.57,1.43 0,0.29 0.05,0.57 0.16,0.85 0.1,0.27 0.26,0.53 0.46,0.77l1.06 1.26zm6.24 10.54l-1.66 -2c-0.76,0.77 -1.58,1.34 -2.44,1.73 -0.87,0.39 -1.8,0.58 -2.79,0.58 -1.52,0 -2.75,-0.45 -3.69,-1.35 -0.94,-0.9 -1.41,-2.07 -1.41,-3.51 0,-1.03 0.33,-1.97 0.98,-2.85 0.65,-0.87 1.65,-1.69 2.97,-2.45l-0.71 -0.79c-0.38,-0.45 -0.65,-0.9 -0.83,-1.37 -0.18,-0.46 -0.27,-0.96 -0.27,-1.5 0,-1.07 0.36,-1.93 1.1,-2.6 0.73,-0.67 1.68,-1.01 2.85,-1.01 1.18,0 2.13,0.33 2.84,0.99 0.71,0.66 1.06,1.53 1.06,2.62 0,0.85 -0.25,1.61 -0.75,2.3 -0.5,0.69 -1.29,1.36 -2.38,2.02l3.75 4.53c0.31,-0.34 0.64,-0.74 0.98,-1.18 0.34,-0.44 0.69,-0.94 1.07,-1.5l1.26 1.38c-0.34,0.51 -0.69,0.98 -1.05,1.42 -0.36,0.45 -0.75,0.86 -1.14,1.24l2.75 3.3 -2.48 0z"/>
    <path id="5" class="fil1" d="M178.52 72.79l-2.74 6.33 5.48 0 -2.74 -6.33zm0 -4.53l7.83 17.89 -2.22 0 -2.23 -5.27 -6.72 0 -2.23 5.27 -2.21 0 7.8 -17.89z"/>
    <path id="6" class="fil1" d="M54.66 86.16l0 -17.21 9.08 0 0 1.88 -7.03 0 0 4.94 7.03 0 0 1.9 -7.03 0 0 6.6 7.03 0 0 1.9 -9.08 0z"/>
    <path id="7" class="fil1" d="M76.66 77.27l7.1 0 0 0.57c0,2.71 -0.77,4.85 -2.3,6.42 -1.54,1.57 -3.64,2.35 -6.29,2.35 -0.81,0 -1.58,-0.08 -2.31,-0.26 -0.73,-0.17 -1.41,-0.43 -2.03,-0.75 -1.41,-0.77 -2.5,-1.85 -3.27,-3.21 -0.77,-1.37 -1.15,-2.92 -1.15,-4.66 0,-1.43 0.23,-2.73 0.69,-3.88 0.46,-1.16 1.15,-2.17 2.08,-3.05 0.77,-0.74 1.68,-1.3 2.7,-1.67 1.03,-0.38 2.16,-0.57 3.41,-0.57 1.65,0 3.09,0.3 4.3,0.9 1.22,0.6 2.22,1.5 3.02,2.71l-1.72 1.38c-0.62,-1.04 -1.39,-1.83 -2.31,-2.35 -0.92,-0.52 -2,-0.78 -3.22,-0.78 -2,0 -3.62,0.67 -4.87,2.02 -1.25,1.35 -1.87,3.11 -1.87,5.29 0,2.05 0.63,3.74 1.9,5.06 1.26,1.32 2.88,1.97 4.83,1.97 1.72,0 3.16,-0.52 4.31,-1.57 1.15,-1.05 1.79,-2.41 1.91,-4.09l-4.91 0 0 -1.83z"/>
    <path id="8" class="fil1" d="M86.73 68.94l2.07 0 0 10.71c0,1.74 0.37,3.02 1.11,3.83 0.74,0.81 1.9,1.22 3.49,1.22 1.58,0 2.74,-0.41 3.49,-1.22 0.74,-0.81 1.11,-2.09 1.11,-3.83l0 -10.71 2.07 0 0 10.71c0,2.33 -0.55,4.07 -1.66,5.22 -1.11,1.16 -2.78,1.73 -5.01,1.73 -2.23,0 -3.89,-0.58 -5,-1.73 -1.11,-1.16 -1.66,-2.9 -1.66,-5.22l0 -10.71z"/>
    <path id="9" class="fil1" d="M110.4 76.6c1.12,0.48 1.97,1.11 2.53,1.9 0.57,0.79 0.85,1.73 0.85,2.81 0,1.58 -0.51,2.86 -1.51,3.82 -1.01,0.97 -2.34,1.45 -4,1.45 -1.36,0 -2.49,-0.34 -3.41,-1.04 -0.91,-0.69 -1.53,-1.68 -1.86,-2.95l1.86 -0.92c0.25,1.04 0.67,1.83 1.24,2.37 0.57,0.54 1.3,0.81 2.17,0.81 1.03,0 1.86,-0.3 2.5,-0.89 0.63,-0.59 0.95,-1.36 0.95,-2.31 0,-0.77 -0.22,-1.44 -0.67,-2.01 -0.44,-0.57 -1.11,-1.05 -2,-1.44l-2.09 -0.89c-1.14,-0.48 -2,-1.09 -2.56,-1.85 -0.56,-0.75 -0.84,-1.65 -0.84,-2.7 0,-1.22 0.45,-2.24 1.36,-3.03 0.91,-0.8 2.07,-1.2 3.48,-1.2 1.03,0 1.93,0.22 2.68,0.66 0.76,0.44 1.35,1.09 1.77,1.95l-1.69 1.08c-0.38,-0.67 -0.81,-1.16 -1.29,-1.48 -0.48,-0.33 -1.02,-0.49 -1.62,-0.49 -0.77,0 -1.4,0.24 -1.89,0.71 -0.49,0.47 -0.73,1.07 -0.73,1.8 0,0.61 0.19,1.14 0.57,1.58 0.37,0.45 0.96,0.84 1.75,1.19l2.46 1.08z"/>
    <path id="10" class="fil1" d="M119.52 86.16l0 -15.26 -4.86 0 0 -1.95 11.77 0 0 1.95 -4.84 0 0 15.26 -2.07 0z"/>
    <g>
     <path class="fil1" d="M204.03 52.39l0 -8.39c0,-0.55 0.16,-0.96 0.47,-1.23 0.31,-0.27 0.79,-0.41 1.41,-0.41 0.5,0 0.89,0.11 1.19,0.34 0.29,0.22 0.56,0.62 0.79,1.19l1.31 3.15 1.26 -3.15c0.23,-0.58 0.48,-0.99 0.77,-1.2 0.28,-0.22 0.69,-0.33 1.23,-0.33 0.64,0 1.12,0.13 1.44,0.41 0.32,0.27 0.48,0.68 0.48,1.23l0 8.39 -3.12 0 0 -7.17 -2.81 7.17 -0.11 0 -2.74 -6.89 0 6.89 -1.57 0z"/>
     <path id="1" class="fil1" d="M216.08 52.39l2.53 -7.92c0.25,-0.79 0.54,-1.34 0.85,-1.65 0.32,-0.31 0.75,-0.46 1.29,-0.46 0.51,0 0.9,0.13 1.19,0.41 0.28,0.27 0.55,0.79 0.79,1.55l2.62 8.08 -3.33 0 -0.53 -1.77 -3.24 0 -0.52 1.77 -1.66 0zm2.58 -3.12l2.42 0 -1.16 -4.22 -1.26 4.22z"/>
     <path id="2" class="fil1" d="M227.16 52.39l0 -9.72 4.24 0c1.31,0 2.3,0.25 2.98,0.74 0.68,0.49 1.02,1.21 1.02,2.15 0,0.65 -0.15,1.18 -0.45,1.59 -0.3,0.41 -0.76,0.7 -1.37,0.86l2.85 4.37 -3.7 0 -2.21 -4.58 0 -0.18c0.61,-0.09 1.05,-0.28 1.34,-0.59 0.28,-0.3 0.42,-0.74 0.42,-1.3 0,-0.57 -0.15,-1 -0.45,-1.29 -0.3,-0.29 -0.74,-0.44 -1.33,-0.44 -0.09,0 -0.16,0 -0.21,0 -0.05,0 -0.1,0.01 -0.14,0.02l0 8.35 -2.98 0z"/>
     <path id="3" class="fil1" d="M237.89 52.39l0 -8.39c0,-0.55 0.16,-0.96 0.47,-1.23 0.31,-0.27 0.79,-0.41 1.41,-0.41 0.5,0 0.89,0.11 1.19,0.34 0.29,0.22 0.56,0.62 0.79,1.19l1.31 3.15 1.26 -3.15c0.23,-0.58 0.48,-0.99 0.77,-1.2 0.28,-0.22 0.69,-0.33 1.23,-0.33 0.64,0 1.12,0.13 1.44,0.41 0.32,0.27 0.48,0.68 0.48,1.23l0 8.39 -3.12 0 0 -7.17 -2.81 7.17 -0.11 0 -2.74 -6.89 0 6.89 -1.57 0z"/>
     <path id="4" class="fil1" d="M251.12 52.39l0 -9.72 3.16 0 0 9.72 -3.16 0zm-0.07 -13.71c0,-0.46 0.16,-0.85 0.49,-1.18 0.33,-0.33 0.71,-0.49 1.17,-0.49 0.47,0 0.86,0.16 1.18,0.48 0.32,0.32 0.48,0.71 0.48,1.18 0,0.46 -0.16,0.85 -0.49,1.17 -0.33,0.32 -0.72,0.48 -1.18,0.48 -0.46,0 -0.85,-0.16 -1.17,-0.49 -0.33,-0.33 -0.49,-0.71 -0.49,-1.17z"/>
     <path id="5" class="fil1" d="M258.71 52.39l0 -8.06 -2.6 0 0 -1.66 8.37 0 0 1.66 -2.6 0 0 8.06 -3.16 0z"/>
     <path id="6" class="fil1" d="M268.28 52.39c-0.75,0 -1.28,-0.16 -1.59,-0.5 -0.31,-0.33 -0.46,-0.91 -0.46,-1.73l0 -5.27c0,-0.82 0.15,-1.39 0.46,-1.73 0.31,-0.33 0.84,-0.5 1.59,-0.5l4.52 0 0 1.46 -2.4 0c-0.4,0 -0.67,0.07 -0.81,0.22 -0.13,0.15 -0.2,0.44 -0.2,0.87l0 1.59 3.05 0 0 1.46 -3.05 0 0 1.62c0,0.42 0.07,0.7 0.2,0.84 0.13,0.14 0.4,0.21 0.81,0.21l2.56 0 0 1.46 -4.68 0z"/>
     <path id="7" class="fil1" d="M274.19 52.39l3.04 -4.31 -3.01 -5.41 3.49 0 1.43 2.8 1.8 -2.8 1.95 0 -2.89 4.17 3.11 5.54 -3.47 0 -1.57 -2.98 -1.86 2.98 -2.01 0z"/>
     <path class="fil1" d="M192.63 70.57l0 -1.46 2.58 0c0.6,0 1.02,-0.08 1.26,-0.25 0.24,-0.16 0.36,-0.44 0.36,-0.83 0,-0.5 -0.49,-0.89 -1.46,-1.18 -0.29,-0.09 -0.52,-0.16 -0.69,-0.21 -0.95,-0.31 -1.61,-0.67 -1.96,-1.06 -0.35,-0.39 -0.53,-0.93 -0.53,-1.61 0,-1.02 0.33,-1.79 1,-2.32 0.67,-0.53 1.64,-0.8 2.91,-0.8l2.53 0 0 1.46 -2.19 0c-0.36,0 -0.64,0.06 -0.85,0.19 -0.21,0.13 -0.31,0.31 -0.31,0.53 0,0.4 0.43,0.73 1.28,1 0.19,0.06 0.33,0.11 0.43,0.14 1.04,0.34 1.74,0.72 2.11,1.15 0.36,0.43 0.55,1.04 0.55,1.82 0,1.07 -0.33,1.9 -1,2.51 -0.67,0.61 -1.59,0.92 -2.77,0.92l-3.23 0z"/>
     <path id="1" class="fil1" d="M203.76 70.57c-0.75,0 -1.28,-0.16 -1.59,-0.5 -0.31,-0.33 -0.46,-0.91 -0.46,-1.73l0 -5.27c0,-0.82 0.15,-1.39 0.46,-1.73 0.31,-0.33 0.84,-0.5 1.59,-0.5l4.52 0 0 1.46 -2.4 0c-0.4,0 -0.67,0.07 -0.81,0.22 -0.13,0.15 -0.2,0.44 -0.2,0.87l0 1.59 3.05 0 0 1.46 -3.05 0 0 1.62c0,0.42 0.07,0.7 0.2,0.84 0.13,0.14 0.4,0.21 0.81,0.21l2.56 0 0 1.46 -4.68 0z"/>
     <path id="2" class="fil1" d="M214.14 67.57c0,0.6 0.1,1.01 0.3,1.22 0.2,0.21 0.59,0.32 1.16,0.32l0.79 0 0 1.46 -2.69 0c-1,0 -1.7,-0.22 -2.11,-0.65 -0.4,-0.43 -0.61,-1.2 -0.61,-2.31l0 -12.73 3.16 0 0 12.68z"/>
     <path id="3" class="fil1" d="M217.85 58.34c0,-1.29 0.24,-2.19 0.71,-2.7 0.47,-0.5 1.29,-0.76 2.46,-0.76l2.78 0 0 1.46 -1.32 0c-0.57,0 -0.96,0.11 -1.16,0.33 -0.2,0.21 -0.3,0.62 -0.3,1.22l0 2.96 2.49 0 0 1.46 -2.49 0 0 8.26 -3.16 0 0 -12.23z"/>
     <path id="4" class="fil1" d="M223.92 68.15l0 -2.14 5.48 -2.89 0 2.14 -5.48 2.89z"/>
     <path id="5" class="fil1" d="M231.64 70.57l0 -1.46 2.58 0c0.6,0 1.02,-0.08 1.26,-0.25 0.24,-0.16 0.36,-0.44 0.36,-0.83 0,-0.5 -0.49,-0.89 -1.46,-1.18 -0.29,-0.09 -0.52,-0.16 -0.69,-0.21 -0.95,-0.31 -1.61,-0.67 -1.96,-1.06 -0.35,-0.39 -0.53,-0.93 -0.53,-1.61 0,-1.02 0.33,-1.79 1,-2.32 0.67,-0.53 1.64,-0.8 2.91,-0.8l2.53 0 0 1.46 -2.19 0c-0.36,0 -0.64,0.06 -0.85,0.19 -0.21,0.13 -0.31,0.31 -0.31,0.53 0,0.4 0.43,0.73 1.28,1 0.19,0.06 0.33,0.11 0.43,0.14 1.04,0.34 1.74,0.72 2.11,1.15 0.36,0.43 0.55,1.04 0.55,1.82 0,1.07 -0.33,1.9 -1,2.51 -0.67,0.61 -1.59,0.92 -2.77,0.92l-3.23 0z"/>
     <path id="6" class="fil1" d="M242.76 70.57c-0.75,0 -1.28,-0.16 -1.59,-0.5 -0.31,-0.33 -0.46,-0.91 -0.46,-1.73l0 -5.27c0,-0.82 0.15,-1.39 0.46,-1.73 0.31,-0.33 0.84,-0.5 1.59,-0.5l4.52 0 0 1.46 -2.4 0c-0.4,0 -0.67,0.07 -0.81,0.22 -0.13,0.15 -0.2,0.44 -0.2,0.87l0 1.59 3.05 0 0 1.46 -3.05 0 0 1.62c0,0.42 0.07,0.7 0.2,0.84 0.13,0.14 0.4,0.21 0.81,0.21l2.56 0 0 1.46 -4.68 0z"/>
     <path id="7" class="fil1" d="M249.93 70.57l0 -9.72 4.24 0c1.31,0 2.3,0.25 2.98,0.74 0.68,0.49 1.02,1.21 1.02,2.15 0,0.65 -0.15,1.18 -0.45,1.59 -0.3,0.41 -0.76,0.7 -1.37,0.86l2.85 4.37 -3.7 0 -2.21 -4.58 0 -0.18c0.61,-0.09 1.05,-0.28 1.34,-0.59 0.28,-0.3 0.42,-0.74 0.42,-1.3 0,-0.57 -0.15,-1 -0.45,-1.29 -0.3,-0.29 -0.74,-0.44 -1.33,-0.44 -0.09,0 -0.16,0 -0.21,0 -0.05,0 -0.1,0.01 -0.14,0.02l0 8.35 -2.98 0z"/>
     <path id="8" class="fil1" d="M268.56 60.85l-2.14 7.85c-0.21,0.79 -0.5,1.36 -0.86,1.7 -0.36,0.35 -0.84,0.52 -1.44,0.52 -0.61,0 -1.08,-0.16 -1.43,-0.49 -0.35,-0.33 -0.64,-0.89 -0.88,-1.71l-2.28 -7.88 3.37 0 2.02 7.49 1.98 -7.49 1.66 0z"/>
     <path id="9" class="fil1" d="M270.47 70.57l0 -9.72 3.16 0 0 9.72 -3.16 0zm-0.07 -13.71c0,-0.46 0.16,-0.85 0.49,-1.18 0.33,-0.33 0.71,-0.49 1.17,-0.49 0.47,0 0.86,0.16 1.18,0.48 0.32,0.32 0.48,0.71 0.48,1.18 0,0.46 -0.16,0.85 -0.49,1.17 -0.33,0.32 -0.72,0.48 -1.18,0.48 -0.46,0 -0.85,-0.16 -1.17,-0.49 -0.33,-0.33 -0.49,-0.71 -0.49,-1.17z"/>
     <path id="10" class="fil1" d="M284.67 68.15c-0.41,0.9 -0.96,1.59 -1.65,2.07 -0.7,0.48 -1.5,0.71 -2.42,0.71 -1.42,0 -2.57,-0.48 -3.47,-1.44 -0.89,-0.96 -1.34,-2.2 -1.34,-3.73 0,-1.53 0.46,-2.79 1.39,-3.77 0.92,-0.98 2.09,-1.46 3.51,-1.46 0.98,0 1.79,0.21 2.45,0.63 0.66,0.42 1.13,1.04 1.42,1.86l-1.37 0.79c-0.15,-0.61 -0.39,-1.06 -0.7,-1.37 -0.31,-0.3 -0.7,-0.45 -1.15,-0.45 -0.68,0 -1.2,0.31 -1.56,0.95 -0.36,0.63 -0.54,1.55 -0.54,2.76 0,1.29 0.15,2.23 0.46,2.82 0.31,0.59 0.8,0.88 1.47,0.88 0.5,0 0.95,-0.18 1.36,-0.53 0.41,-0.36 0.71,-0.84 0.89,-1.44l1.25 0.72z"/>
     <path id="11" class="fil1" d="M288.61 70.57c-0.75,0 -1.28,-0.16 -1.59,-0.5 -0.31,-0.33 -0.46,-0.91 -0.46,-1.73l0 -5.27c0,-0.82 0.15,-1.39 0.46,-1.73 0.31,-0.33 0.84,-0.5 1.59,-0.5l4.52 0 0 1.46 -2.4 0c-0.4,0 -0.67,0.07 -0.81,0.22 -0.13,0.15 -0.2,0.44 -0.2,0.87l0 1.59 3.05 0 0 1.46 -3.05 0 0 1.62c0,0.42 0.07,0.7 0.2,0.84 0.13,0.14 0.4,0.21 0.81,0.21l2.56 0 0 1.46 -4.68 0z"/>
     <g>
      <g>
       <path class="fil2" d="M206.95 80.74l0.66 2.04 2.15 -0 -1.74 1.26 0.67 2.04 -1.73 -1.27 -1.73 1.27 0.67 -2.04 -1.74 -1.26 2.15 0 0.66 -2.04z"/>
       <path class="fil2" d="M214.22 80.74l0.66 2.04 2.15 -0 -1.74 1.26 0.67 2.04 -1.73 -1.27 -1.73 1.27 0.67 -2.04 -1.74 -1.26 2.15 0 0.66 -2.04z"/>
       <path class="fil2" d="M221.49 80.74l0.66 2.04 2.15 -0 -1.74 1.26 0.67 2.04 -1.73 -1.27 -1.73 1.27 0.67 -2.04 -1.74 -1.26 2.15 0 0.66 -2.04z"/>
      </g>
      <g>
       <path class="fil2" d="M264.74 80.74l0.66 2.04 2.15 -0 -1.74 1.26 0.67 2.04 -1.73 -1.27 -1.73 1.27 0.67 -2.04 -1.74 -1.26 2.15 0 0.66 -2.04z"/>
       <path class="fil2" d="M272.01 80.74l0.66 2.04 2.15 -0 -1.74 1.26 0.67 2.04 -1.73 -1.27 -1.73 1.27 0.67 -2.04 -1.74 -1.26 2.15 0 0.66 -2.04z"/>
       <path class="fil2" d="M279.28 80.74l0.66 2.04 2.15 -0 -1.74 1.26 0.67 2.04 -1.73 -1.27 -1.73 1.27 0.67 -2.04 -1.74 -1.26 2.15 0 0.66 -2.04z"/>
      </g>
      <path class="fil1" d="M249.02 74.26c0.05,-0.06 0.17,0.02 0.12,0.09l-2.83 4.1c-0.15,0.22 0.13,0.42 0.29,0.2l3.12 -3.9c0.05,-0.07 0.17,0.02 0.12,0.09l-2.73 4.17c-0.08,0.11 -0.04,0.22 0.03,0.27 0.08,0.06 0.19,0.05 0.26,-0.06l2.99 -3.99c0.05,-0.07 0.17,0.02 0.12,0.09l-2.6 4.26c-0.15,0.22 0.13,0.42 0.29,0.2l2.88 -4.06c0.05,-0.07 0.17,0.02 0.12,0.09 0,0 -2.09,3.72 -2.45,4.37 -0.43,0.78 -0.9,1.52 -1.69,1.98 -0.43,0.25 -0.93,0.37 -1.48,0.29 -1.63,2.39 -6.06,8.92 -7.22,10.71 -0.15,0.23 -0.45,0.28 -0.68,0.13l-0.49 -0.34c-0.22,-0.16 -0.27,-0.46 -0.11,-0.68 1.29,-1.7 5.91,-8.09 7.6,-10.44 -0.27,-0.49 -0.32,-1 -0.23,-1.49 0.16,-0.9 0.69,-1.59 1.28,-2.27 0.48,-0.55 3.27,-3.79 3.27,-3.79z"/>
      <path class="fil1" d="M235.88 74.57c-0.26,-0.36 -0.92,-0.36 -0.88,0.47 0.07,1.23 1.09,4.12 2.31,6.01 0.97,1.51 2.26,2.64 3.42,2.28 1.94,2.77 5.95,8.39 6.83,9.72 0.14,0.22 0.43,0.26 0.64,0.11l0.46 -0.33c0.21,-0.15 0.26,-0.44 0.1,-0.65 -0.98,-1.26 -5.13,-6.79 -7.15,-9.5 -0.76,-1.03 -5.54,-7.84 -5.74,-8.11z"/>
     </g>
    </g>
    <g>
     <rect class="fil2" x="34.99" y="60.77" width="41.1" height="0.71"/>
     <rect class="fil2" x="140.22" y="60.77" width="41.1" height="0.71"/>
     <path class="fil2" d="M105.37 37.46c-8.11,0.38 -16.72,4.77 -20.63,11.22 -0.96,1.58 -2.85,5.62 -2.44,8.12l51.94 0.08c0.28,-5.27 -3.76,-10.61 -7.56,-13.63 -4.18,-3.32 -9.33,-5.26 -15.65,-5.82 -0.11,-2.17 -0.19,-4.04 -2.86,-4.02 -2.51,0.01 -2.69,1.68 -2.8,4.06z"/>
     <path class="fil2" d="M79.98 62.17c1.88,0.48 44.54,0.17 51.17,0.17 1.25,0 2.58,0.05 3.82,0.03 2.73,-0.06 1.35,-2.14 1.3,-2.18 -0.65,-0.62 -43.47,-0.27 -51.08,-0.26 -4.72,0 -5.89,-0.61 -5.21,2.24z"/>
     <path class="fil2" d="M84.99 55.14c3.18,-0.21 1.2,0.51 3.62,-4.41 2.58,-5.22 8.53,-8.31 14.09,-10.16 -2.1,-1.41 -10.14,3.48 -11.47,4.48 -2.1,1.59 -6.54,6.52 -6.24,10.08z"/>
    </g>
   </g>
  </g>
 </g>
</svg>
