<?xml version="1.0" encoding="UTF-8"?>
<!DOCTYPE svg PUBLIC "-//W3C//DTD SVG 1.0//EN" "http://www.w3.org/TR/2001/REC-SVG-20010904/DTD/svg10.dtd">
<!-- Creator: CorelDRAW 2020 (64 Bit) -->
<svg xmlns="http://www.w3.org/2000/svg" xml:space="preserve" width="210mm" height="297mm" version="1.0" style="shape-rendering:geometricPrecision; text-rendering:geometricPrecision; image-rendering:optimizeQuality; fill-rule:evenodd; clip-rule:evenodd"
viewBox="0 0 21000 29700"
 xmlns:xlink="http://www.w3.org/1999/xlink"
 xmlns:xodm="http://www.corel.com/coreldraw/odm/2003">
 <defs>
  <style type="text/css">
   <![CDATA[
    .fil0 {fill:#FEFEFE;fill-rule:nonzero}
    .fil1 {fill:#452A26;fill-rule:nonzero}
   ]]>
  </style>
   <clipPath id="id0">
    <rect x="8024.85" y="14314.57" width="1287.4" height="1070.85"/>
   </clipPath>
 </defs>
 <g id="Camada_x0020_1">
  <metadata id="CorelCorpID_0Corel-Layer"/>
  <rect class="fil0" x="7592.06" y="13785.17" width="5815.88" height="2129.65"/>
  <path class="fil1" d="M10280.6 14478.49c2.23,1.11 5.42,2.87 9.4,5.1 3.98,2.23 8.12,4.78 12.42,7.65 4.3,2.87 7.8,5.89 10.67,8.92 2.87,3.19 4.3,6.05 4.3,8.92 -35.84,2.87 -70.08,10.83 -102.73,23.89 -32.65,13.06 -64.19,28.99 -94.29,47.78 -34.08,21.66 -67.05,44.92 -98.91,69.92 -31.85,25.01 -62.28,51.45 -91.26,79.32 -16.56,15.93 -36.31,37.27 -59.25,64.03 -23.09,26.76 -46.99,55.43 -71.67,86.17 -24.69,30.74 -49.53,61.96 -74.22,93.81 -24.69,31.85 -46.99,60.84 -66.89,86.96 -19.91,26.12 -36.47,48.1 -49.53,65.62 -13.06,17.68 -20.71,27.55 -23.09,29.78 -9.08,-2.23 -18.32,-7.33 -27.71,-15.29 -9.4,-7.96 -15.77,-15.13 -19.27,-21.34 -10.19,-16.56 -15.77,-34.24 -16.56,-53.36 -0.8,-19.11 0.8,-38.23 5.1,-57.66 4.3,-19.27 10.35,-38.38 18.32,-57.18 7.96,-18.79 15.61,-35.84 23.09,-51.13 14.81,-30.74 31.22,-60.36 49.53,-88.72 18.16,-28.35 35.84,-57.66 52.88,-87.92 9.72,-17.04 18.79,-35.2 27.24,-54.63 7.96,-17.68 11.95,-31.38 11.95,-41.41 0,-9.87 -3.19,-15.61 -9.4,-17.04 -6.21,-1.43 -15.29,1.59 -27.24,8.92 -11.95,7.33 -25.8,19.59 -41.73,36.63 -23.89,25.64 -45.07,53.2 -63.55,82.82 -18.48,29.62 -30.58,57.18 -36.31,82.82 -1.11,4.62 -1.91,11.63 -2.55,21.34 -0.64,9.72 0.64,19.11 3.34,28.19 -9.08,-1.75 -17.04,-5.57 -23.89,-11.47 -6.85,-5.89 -12.58,-12.9 -17.04,-20.86 -4.62,-7.96 -8.12,-16.56 -10.67,-25.64 -2.55,-9.08 -4.14,-17.84 -4.62,-26.44 -1.11,-18.79 0.64,-37.43 5.1,-55.91 4.62,-18.48 11.31,-36 20.55,-52.4 7.33,-13.7 17.04,-27.55 28.99,-41.73 11.95,-14.18 25.17,-27.24 39.66,-38.86 14.49,-11.63 29.94,-21.18 46.03,-28.51 16.25,-7.33 32.81,-11.15 49.85,-11.15 17.04,0 35.04,2.87 53.68,8.6 18.79,5.73 33.93,15.13 45.23,28.19 11.95,13.7 17.2,29.31 15.77,46.99 -1.43,17.68 -4.46,34.72 -8.92,51.13 -9.72,33.61 -23.57,65.94 -41.73,97.32 -18.16,31.22 -35.52,62.28 -52.08,93.02 -9.72,18.16 -19.91,36.47 -30.74,54.95 -10.83,18.48 -20.86,37.11 -30.26,55.91 -9.4,18.79 -17.52,38.07 -24.37,57.98 -6.85,19.91 -11.15,40.14 -12.74,60.52l0 0.8 21.34 -32.49c44.44,-71.04 91.9,-139.84 142.39,-206.1 50.65,-66.26 102.73,-131.56 156.09,-195.75 28.99,-34.72 59.41,-68.01 91.26,-99.86 31.85,-31.85 68.01,-58.61 108.31,-80.27 18.16,-9.72 36.95,-17.84 56.38,-24.69 19.27,-6.85 39.5,-10.19 60.52,-10.19 11.31,0 22.46,1.11 33.29,3.34 10.83,2.23 21.02,5.73 30.74,10.19l-0.2 0.47zm-111.81 260.26c7.33,-2.87 16.56,-3.34 27.24,-1.75 16.56,3.34 29.78,11.95 40.14,25.64 10.19,13.7 17.36,28.19 21.34,43.48 5.73,25.01 6.05,50.81 0.8,77.25 -5.1,26.44 -13.06,51.6 -23.89,75.5 18.16,7.33 36,5.42 53.36,-5.89 17.36,-11.31 32.49,-29.31 45.71,-53.68 16.56,-7.33 25.64,-2.87 27.24,13.7 -18.16,34.72 -40.77,61.64 -67.85,80.59 -27.08,19.11 -60.21,29.94 -99.39,32.81 -9.08,11.95 -18.95,23.73 -29.47,35.36 -10.51,11.63 -21.82,21.98 -33.77,31.22 -11.95,9.08 -24.85,16.56 -38.86,22.62 -14.02,5.89 -28.51,9.56 -43.96,10.67 -18.79,1.11 -35.84,-1.59 -51.13,-8.12 -15.29,-6.53 -28.67,-15.93 -40.14,-28.19 -11.31,-12.26 -20.55,-26.28 -27.24,-42.21 -6.85,-15.93 -11.15,-32.65 -12.74,-50.33 -1.75,-19.91 -0.8,-39.98 2.55,-60.21 3.34,-20.23 8.92,-39.98 16.72,-59.25 7.65,-19.27 17.2,-37.59 28.51,-54.63 11.31,-17.04 24.21,-32.49 38.38,-46.03 14.18,-13.06 29.94,-24.21 47.3,-33.29 17.36,-9.08 35.68,-14.49 55.11,-16.25 9.72,-1.11 20.07,-0.96 31.06,0.48 11.15,1.43 21.18,4.46 30.26,8.92l2.55 1.75 0.17 -0.16zm-40.93 189.37c9.72,-8.6 20.07,-15.29 31.22,-20.55 11.15,-5.1 21.18,-5.42 30.26,-0.8 3.98,2.23 7.33,5.42 10.19,9.4 4.62,-15.29 7.33,-31.22 8.12,-47.78 0.8,-16.56 -0.64,-32.97 -4.62,-49.53 -2.87,-9.72 -7.01,-17.52 -12.42,-23.41 -5.42,-5.89 -12.1,-11.79 -20.07,-17.52 -10.19,-0.64 -19.91,0.32 -28.99,2.55 -9.08,2.23 -17.84,5.73 -26.44,10.19 -14.18,7.33 -27.55,18.32 -40.14,32.81 -12.58,14.49 -23.41,30.74 -32.81,48.58 -9.4,18 -17.04,36.47 -23.09,55.91 -5.89,19.27 -9.4,37.75 -10.19,55.11 -0.8,17.36 0.96,32.65 5.57,46.03 4.62,13.38 12.74,22.94 24.69,28.51 14.18,7.33 30.74,7.8 49.53,1.27 18.79,-6.53 36.63,-19.75 53.83,-39.66 -7.96,-2.87 -15.29,-6.69 -21.82,-11.47 -6.53,-4.78 -11.47,-10.99 -14.97,-18.32 -4.62,-9.72 -4.46,-20.07 0.48,-31.22 4.78,-11.15 12.1,-21.18 21.82,-30.26l-0.15 0.16zm-13.7 -261.84c11.95,-12.58 24.53,-27.55 37.59,-45.23 13.06,-17.68 26.6,-34.08 40.46,-49.53 14.02,-15.29 28.19,-27.55 42.69,-36.63 14.49,-9.08 28.83,-11.95 43.16,-8.6 15.29,3.98 25.8,13.7 31.54,28.99 5.73,15.29 4.78,30.42 -2.55,45.23 -5.1,10.83 -14.02,20.39 -26.92,28.51 -12.74,8.28 -24.53,14.65 -35.36,19.27 -30.1,13.06 -55.91,20.07 -77.25,20.86 -21.34,0.8 -39.02,-0.16 -53.36,-3.03l0 0.16zm1490.32 -115.16c7.33,5.73 9.24,11.95 5.57,18.79 -3.66,6.85 -7.01,13.38 -9.87,19.59 -2.23,4.62 -7.17,14.49 -14.49,29.78 -7.33,15.29 -15.77,32.65 -25.17,52.08 -9.4,19.27 -18.79,38.54 -28.19,57.66 -9.4,19.11 -16.56,34.24 -21.82,45.71 -13.06,29.62 -25.8,59.57 -38.38,89.99 -12.58,30.42 -24.21,61 -35.04,91.74 -4.62,13.7 -9.08,29.15 -13.7,46.51 -4.62,17.36 -8.28,35.2 -11.15,53.36 -2.87,18.16 -4.62,36.47 -5.1,54.95 -0.64,18.48 0.8,35.68 4.3,51.6 3.34,15.93 9.08,29.94 17.04,42.21 7.96,12.26 19.11,21.5 33.29,27.71 2.23,1.11 6.37,2.07 12.42,3.03 5.89,0.8 12.58,1.11 19.59,0.8 7.17,-0.32 14.33,-1.27 21.82,-3.03 7.33,-1.75 13.86,-4.78 19.59,-9.4 -1.11,8.6 -4.46,16.72 -9.87,24.69 -5.42,7.96 -12.1,15.29 -20.07,21.82 -7.96,6.53 -16.72,12.1 -26.44,16.72 -9.72,4.62 -19.11,7.65 -28.19,9.4 -19.91,3.34 -40.46,1.91 -61.8,-4.3 -21.34,-6.21 -38.86,-16.25 -52.4,-29.94 -14.81,-14.81 -25.8,-31.54 -33.29,-50.33 -7.33,-18.79 -11.95,-38.38 -13.7,-58.93 -1.75,-20.55 -1.11,-40.93 1.75,-61.48 2.87,-20.55 6.85,-40.14 11.95,-58.93 12.58,-42.05 28.19,-83.3 46.99,-123.76 18.79,-40.46 38.07,-80.11 57.98,-119.46 13.7,-26.76 27.24,-53.36 40.93,-79.8 13.7,-26.44 26.76,-53.36 39.18,-80.59l5.1 -11.15c-7.33,4.62 -16.56,13.54 -27.24,26.92 -10.83,13.38 -21.98,28.51 -33.77,45.71 -11.63,17.04 -23.25,34.72 -35.04,52.88 -11.63,18.16 -21.82,34.4 -30.26,48.58 -23.89,37.59 -47.62,74.86 -71.2,111.81 -23.57,36.95 -47.3,74.86 -71.2,113.4 -9.72,15.29 -19.43,30.74 -29.47,46.03 -9.87,15.29 -20.39,29.62 -31.22,42.69 -6.85,7.96 -16.09,15.13 -27.71,21.34 -11.63,6.21 -24.05,10.51 -37.11,12.74 -13.06,2.23 -26.12,2.07 -39.18,-0.48 -13.06,-2.55 -24.21,-8.6 -33.29,-18.32 5.73,-5.1 13.54,-16.56 23.41,-34.56 10.03,-18 21.34,-40.14 34.08,-66.58 12.74,-26.44 26.12,-55.91 40.14,-88.24 13.86,-32.49 27.55,-65.62 40.93,-99.86 13.38,-34.08 25.8,-67.69 37.59,-100.66 11.63,-32.97 21.5,-63.39 29.47,-91.26 -17.68,25.01 -33.93,50.97 -49.06,77.57 -15.13,26.76 -30.26,52.88 -45.71,78.52l-49.53 82.82c-15.93,26.76 -32.49,52.4 -49.85,76.77 -17.36,24.53 -36.79,47.46 -58.45,69.12 -11.31,11.31 -23.09,22.94 -35.04,34.56 -11.95,11.63 -24.37,22.94 -37.11,33.77 -12.74,10.83 -25.96,20.71 -39.66,29.78 -13.7,9.08 -28.19,16.56 -43.48,22.14 -23.89,9.08 -47.62,12.42 -71.2,9.87 -23.57,-2.55 -45.39,-10.99 -65.3,-25.17 -14.18,-10.19 -25.96,-22.14 -35.36,-35.84 -9.4,-13.7 -16.56,-28.35 -21.34,-43.96 -4.78,-15.61 -7.49,-31.85 -8.12,-48.58 -0.64,-16.72 1.11,-33.45 5.1,-49.85 7.33,-31.85 20.23,-61.64 38.38,-89.51 18.16,-27.87 39.5,-52.08 64.03,-72.47 10.83,-9.08 22.78,-17.84 35.84,-25.96 13.06,-8.28 26.92,-14.97 41.41,-20.07 14.49,-5.1 29.15,-8.28 43.96,-9.4 14.81,-1.11 29.62,0.64 44.44,5.1 15.93,5.1 29.15,13.06 39.66,23.89 10.51,10.83 18.48,23.25 23.89,37.59 5.42,14.18 8.44,29.31 8.92,45.23 0.64,15.93 -1.11,31.06 -5.1,45.23 -9.08,31.85 -25.8,59.57 -50.33,83.14 -24.53,23.57 -53.2,37.75 -86.17,42.21 -4.62,0.64 -10.67,0.8 -18.32,0.8 -7.65,0 -15.61,-0.48 -23.89,-1.27 -8.28,-0.8 -15.93,-2.23 -23.09,-4.3 -7.17,-1.91 -12.42,-4.94 -15.77,-8.92 29.62,-7.96 56.06,-19.91 79.32,-35.84 23.25,-15.93 40.93,-38.38 52.88,-67.37 6.21,-14.18 10.99,-29.78 14.02,-46.51 3.19,-16.72 3.03,-32.49 -0.48,-47.3 -2.87,-15.93 -11.15,-26.28 -24.69,-31.22 -13.7,-4.78 -27.55,-5.57 -41.73,-2.07 -15.29,3.34 -29.62,9.72 -42.69,18.79 -13.06,9.08 -24.69,19.75 -35.04,32.01 -10.19,12.26 -19.11,25.64 -26.44,40.14 -7.33,14.49 -13.06,28.83 -17.04,43.16 -4.62,14.81 -7.65,29.94 -9.4,45.71 -1.75,15.61 -1.27,30.9 1.27,45.71 2.55,14.81 7.8,28.51 15.77,40.93 7.96,12.58 19.27,23.09 34.08,31.54 10.19,6.21 21.18,9.72 32.81,10.19 11.63,0.64 23.25,-0.48 35.04,-3.03 11.63,-2.55 23.09,-6.37 34.08,-11.47 11.15,-5.1 21.5,-10.83 31.22,-17.04 20.55,-13.06 38.23,-28.67 53.36,-46.99 15.13,-18.16 29.78,-36.95 43.96,-56.38 26.12,-35.2 49.69,-71.83 70.88,-109.58 21.02,-37.75 42.69,-75.5 64.82,-113.08 17.04,-28.99 35.2,-58.29 54.63,-87.92 19.27,-29.62 42.05,-55.11 68.33,-76.77 10.83,-8.6 23.09,-15.29 36.63,-20.07 13.7,-4.78 26.76,-6.37 39.18,-4.78 13.06,1.75 23.09,4.14 29.78,7.33 6.85,3.19 11.15,8.6 12.74,16.56 1.11,4.62 -1.91,18 -8.92,40.14 -7.17,22.14 -16.56,48.74 -28.51,79.8 -11.95,31.06 -25.48,64.51 -40.46,100.66 -15.13,36.16 -29.78,70.4 -43.96,102.73 -5.73,13.06 -11.63,26.6 -18,40.46 -6.21,13.86 -12.42,27.24 -18.32,40.14 -5.89,12.74 -11.47,24.53 -16.56,35.36 -5.1,10.83 -9.4,19.27 -12.74,25.64 10.19,-13.06 21.18,-28.35 32.81,-45.71 11.63,-17.36 21.5,-32.33 29.47,-44.76 27.87,-42.69 54.79,-85.85 80.59,-129.65 25.8,-43.8 53.68,-86.8 83.14,-128.85 9.72,-13.7 19.43,-27.08 29.47,-40.14 9.87,-13.06 20.55,-25.64 32.01,-37.59 6.85,-7.33 14.97,-15.93 24.37,-25.64 9.4,-9.72 19.11,-16.72 29.47,-21.34 8.6,-3.98 17.68,-6.69 27.24,-8.12 9.72,-1.43 19.11,-1.91 28.19,-1.75 9.08,0.32 17.36,1.43 24.69,3.34 7.33,1.91 13.06,4.62 17.04,8.12l0.18 0.52zm343.88 191.13c-6.21,8.6 -13.86,19.59 -22.62,33.29 -8.76,13.7 -18,28.51 -27.71,44.44 -9.72,15.93 -19.11,32.49 -28.51,49.53 -9.4,17.04 -17.84,33.29 -25.17,48.58 -15.29,31.85 -27.24,58.61 -35.84,80.11 -8.6,21.66 -10.83,35.52 -6.85,41.73 1.75,2.87 4.62,4.14 8.92,3.82 4.3,-0.32 8.92,-1.27 14.02,-3.03 5.1,-1.75 9.87,-3.82 14.02,-6.37 4.3,-2.55 7.33,-4.46 8.92,-5.57 12.58,-7.96 23.57,-17.2 33.29,-27.71 9.72,-10.51 18.79,-21.5 27.24,-32.81 7.96,-10.83 15.61,-22.14 23.09,-34.08 7.33,-11.95 14.18,-23.57 20.55,-35.04 6.85,-1.75 12.58,-1.75 17.52,0 4.78,1.75 8.12,6.21 9.87,13.7 -7.96,14.81 -15.61,29.31 -23.09,43.48 -7.33,14.18 -15.93,28.19 -25.64,41.73 -9.08,13.7 -18.64,26.76 -28.51,39.18 -9.87,12.58 -20.55,24.53 -32.01,35.84 -10.83,10.83 -22.62,20.39 -35.36,28.51 -12.74,8.28 -27.24,12.1 -43,11.47 -15.93,0 -30.1,-4.62 -42.69,-13.7 -12.58,-9.08 -21.66,-21.02 -27.24,-35.84 -2.87,-6.85 -4.78,-14.49 -5.89,-23.09 -9.08,13.06 -18.79,25.01 -28.99,35.84 -10.19,10.83 -21.82,19.91 -35.04,27.24 -18.16,10.19 -37.27,14.49 -57.18,12.74 -19.91,-1.75 -37.27,-9.4 -52.08,-23.09 -14.18,-13.06 -23.89,-28.51 -28.99,-46.51 -5.1,-17.84 -7.65,-36 -7.65,-54.15 0.64,-22.78 4.3,-45.23 11.15,-67.37 6.85,-22.14 15.77,-43.48 26.92,-64.03 11.15,-20.55 23.89,-39.66 38.38,-57.66 14.49,-17.84 29.94,-34.24 46.51,-49.06 15.93,-14.81 33.93,-26.76 54.15,-35.84 20.23,-9.08 41.09,-13.06 62.75,-11.95 21.02,1.11 39.5,7.49 55.43,19.11 15.93,11.63 27.55,27.24 35.04,46.51 6.85,-7.96 14.65,-15.13 23.41,-21.82 8.76,-6.53 18,-11.47 27.71,-14.97 10.19,-3.98 21.18,-5.73 32.81,-5.1 11.63,0.64 21.18,4.3 28.51,11.15l-0.15 0.79zm-269.65 233.82c25.64,-18.16 48.58,-41.57 69.12,-69.92 20.55,-28.51 33.77,-58.61 40.14,-90.47 2.87,-11.95 2.55,-23.73 -0.8,-35.36 -3.34,-11.63 -12.26,-18.64 -26.44,-20.86 -11.31,-1.75 -21.82,0.64 -31.54,6.85 -9.72,6.21 -18.48,13.06 -26.44,20.55 -24.53,23.89 -44.28,51.13 -59.25,81.87 -15.13,30.74 -26.6,62.59 -34.56,95.56 -7.33,32.97 -5.89,54.79 4.78,65.3 10.51,10.51 24.85,10.99 43,1.27 11.95,-6.21 23.09,-14.02 33.77,-23.09 10.51,-9.08 20.55,-18.48 30.26,-28.19 -7.96,1.75 -16.09,2.71 -24.37,3.03 -8.28,0.32 -14.02,-1.91 -17.52,-6.37l-0.15 -0.17zm167.23 67.37c34.72,-39.82 65.94,-82.66 93.81,-128.37 27.87,-45.71 51.45,-94.77 70.72,-147.17 -6.85,-13.06 -9.72,-26.12 -8.6,-39.18 1.11,-13.06 4.46,-24.53 9.87,-34.08 5.42,-9.72 12.42,-16.56 20.86,-20.55 8.6,-3.98 17.04,-3.19 25.64,2.55 9.72,6.21 13.7,15.29 11.95,26.92 -1.75,11.63 -4.78,23.09 -9.4,34.56 3.98,2.23 8.6,3.34 14.02,3.34 5.42,0 10.03,0 14.02,0 14.81,-1.11 28.51,-3.66 40.93,-7.65 7.96,-11.31 15.29,-19.27 22.14,-23.41 6.85,-4.3 15.13,-2.39 24.69,5.57 22.78,17.68 35.68,34.24 38.86,49.85 3.19,15.61 -1.91,30.26 -14.97,43.96 -21.66,27.87 -42.69,57.66 -63.07,89.51 -20.55,31.85 -35.84,61.48 -46.03,88.72 -7.33,19.91 -10.51,36 -9.4,48.26 1.11,12.26 5.42,20.23 12.74,23.89 7.33,3.66 17.2,3.34 29.47,-1.27 12.26,-4.62 25.8,-13.38 40.46,-26.44 16.56,-14.81 33.93,-34.08 52.08,-57.98 18.16,-23.89 34.08,-48.9 47.78,-75.02 7.96,-4.62 14.33,-4.94 19.27,-1.27 4.78,3.66 7.49,8.6 8.12,14.97 -15.29,28.99 -31.06,55.75 -47.3,80.27 -16.25,24.53 -35.36,47.78 -57.66,69.92 -18.16,18.16 -36.63,31.7 -55.43,40.46 -18.79,8.76 -36.63,13.86 -53.68,14.97 -17.04,1.11 -32.49,-1.75 -46.03,-8.6 -13.7,-6.85 -24.53,-16.88 -32.49,-30.26 -7.96,-13.38 -12.26,-29.78 -12.74,-49.53 -0.64,-19.59 3.98,-41.89 13.7,-66.89 11.31,-30.1 25.64,-60.05 42.69,-89.51 17.04,-29.62 33.61,-54.63 49.53,-75.02 -4.62,0 -7.65,-0.32 -9.4,-0.8 -5.1,-0.64 -11.63,-1.91 -19.59,-3.82 -7.96,-1.91 -15.93,-4.62 -23.89,-8.12 -6.21,16.56 -14.18,36 -23.89,58.45 -9.72,22.46 -21.02,45.71 -34.08,69.6 -10.83,20.55 -21.82,39.18 -32.81,56.38 -11.15,17.04 -22.3,31.22 -33.77,42.69 -11.31,11.31 -22.94,19.91 -34.56,25.64 -11.63,5.73 -23.25,7.33 -34.56,5.1l0 -0.64zm624.52 -319.03c-6.85,7.96 -14.81,19.11 -23.89,33.29 -9.08,14.18 -18,28.99 -26.44,44.44 -8.6,15.29 -16.56,30.1 -24.37,44.44 -7.65,14.18 -13.54,25.8 -17.52,35.04 -7.96,17.68 -15.61,35.2 -23.09,52.88 -7.33,17.68 -13.86,35.52 -19.59,53.68 -4.62,17.04 -6.69,31.22 -6.37,42.21 0.32,11.15 3.5,18.32 9.87,21.82 6.21,3.34 15.29,2.39 27.24,-3.03 11.95,-5.42 27.24,-16.41 46.03,-32.81 18.16,-16.56 35.2,-34.72 51.13,-54.63 15.93,-19.91 29.62,-40.61 40.93,-62.28 15.29,-7.33 24.53,-2.87 27.24,13.7 -13.06,23.89 -27.87,47.62 -44.44,71.2 -16.56,23.57 -34.72,45.39 -54.63,65.3 -30.74,32.49 -58.45,53.83 -83.14,64.35 -24.69,10.51 -46.19,11.79 -64.35,3.82 -19.27,-7.96 -32.33,-20.86 -38.86,-38.86 -6.53,-18 -9.56,-36.31 -8.92,-54.95 1.11,-35.2 7.33,-70.08 18.79,-104.48 11.31,-34.4 25.64,-66.74 42.69,-96.84 10.19,-18.16 21.5,-36.63 33.77,-55.43 12.26,-18.79 26.28,-34.72 42.21,-47.78 5.73,-4.62 12.74,-8.12 21.34,-10.67 8.44,-2.55 17.52,-3.66 26.92,-3.34 9.4,0.32 18.32,1.91 26.92,4.62 8.6,2.87 15.29,7.65 20.55,14.49l-0.02 -0.18zm-0.8 -80.27c-12.58,-3.98 -23.25,-11.47 -32.49,-22.62 -9.08,-11.15 -12.26,-24.53 -9.4,-40.46 2.23,-13.7 6.05,-26.76 11.47,-39.18 5.42,-12.58 15.29,-20.23 29.47,-23.09 7.96,-1.11 15.77,-1.11 23.41,0 7.65,1.11 15.29,3.19 22.62,5.89 17.04,5.73 28.03,13.38 32.81,23.09 4.78,9.72 7.49,16.72 8.12,21.34 1.11,11.31 0.16,22.46 -3.03,33.29 -3.19,10.83 -8.6,20.23 -16.56,28.19 -9.08,8.6 -19.59,13.86 -31.54,15.77 -11.95,1.91 -23.57,1.27 -35.04,-2.07l0.16 -0.15zm456.48 98.11c-6.21,8.6 -13.86,19.59 -22.62,33.29 -8.76,13.7 -18,28.51 -27.71,44.44 -9.72,15.93 -19.27,32.49 -28.51,49.53 -9.4,17.04 -17.84,33.29 -25.17,48.58 -15.29,31.85 -27.24,58.61 -35.84,80.11 -8.6,21.66 -10.83,35.52 -6.85,41.73 1.75,2.87 4.62,4.14 8.92,3.82 4.3,-0.32 8.92,-1.27 14.02,-3.03 5.1,-1.75 9.87,-3.82 14.02,-6.37 4.3,-2.55 7.33,-4.46 8.92,-5.57 12.58,-7.96 23.57,-17.2 33.29,-27.71 9.72,-10.51 18.79,-21.5 27.24,-32.81 7.96,-10.83 15.61,-22.14 23.09,-34.08 7.33,-11.95 14.18,-23.57 20.55,-35.04 6.85,-1.75 12.58,-1.75 17.52,0 4.78,1.75 8.12,6.21 9.87,13.7 -7.96,14.81 -15.61,29.31 -23.09,43.48 -7.33,14.18 -15.93,28.19 -25.64,41.73 -9.08,13.7 -18.64,26.76 -28.51,39.18 -10.03,12.58 -20.55,24.53 -32.01,35.84 -10.83,10.83 -22.62,20.39 -35.36,28.51 -12.74,8.28 -27.08,12.1 -43,11.47 -15.93,0 -30.1,-4.62 -42.69,-13.7 -12.58,-9.08 -21.66,-21.02 -27.24,-35.84 -2.87,-6.85 -4.78,-14.49 -6.05,-23.09 -9.08,13.06 -18.79,25.01 -28.99,35.84 -10.19,10.83 -21.82,19.91 -35.04,27.24 -18.16,10.19 -37.27,14.49 -57.18,12.74 -19.91,-1.75 -37.27,-9.4 -52.08,-23.09 -14.18,-13.06 -23.89,-28.51 -28.99,-46.51 -5.1,-17.84 -7.65,-36 -7.65,-54.15 0.64,-22.78 4.3,-45.23 11.15,-67.37 6.85,-22.14 15.77,-43.48 26.92,-64.03 11.15,-20.55 23.89,-39.66 38.38,-57.66 14.49,-17.84 29.94,-34.24 46.51,-49.06 15.93,-14.81 33.93,-26.76 54.15,-35.84 20.23,-9.08 41.09,-13.06 62.75,-11.95 21.02,1.11 39.5,7.49 55.43,19.11 15.93,11.63 27.55,27.24 35.04,46.51 6.85,-7.96 14.65,-15.13 23.41,-21.82 8.76,-6.53 18,-11.47 27.71,-14.97 10.19,-3.98 21.18,-5.73 32.81,-5.1 11.63,0.64 21.18,4.3 28.51,11.15l0.01 0.79zm-269.65 233.82c25.64,-18.16 48.58,-41.57 69.12,-69.92 20.55,-28.51 33.93,-58.61 40.14,-90.47 2.87,-11.95 2.55,-23.73 -0.8,-35.36 -3.34,-11.63 -12.26,-18.64 -26.44,-20.86 -11.31,-1.75 -21.82,0.64 -31.54,6.85 -9.72,6.21 -18.48,13.06 -26.44,20.55 -24.53,23.89 -44.28,51.13 -59.25,81.87 -15.13,30.74 -26.6,62.59 -34.56,95.56 -7.33,32.97 -5.89,54.79 4.62,65.3 10.51,10.51 24.85,10.99 43,1.27 11.95,-6.21 23.25,-14.02 33.77,-23.09 10.51,-9.08 20.55,-18.48 30.26,-28.19 -7.96,1.75 -16.09,2.71 -24.37,3.03 -8.28,0.32 -14.02,-1.91 -17.52,-6.37l0.01 -0.17z"/>
  <g style="clip-path:url(#id0)">
   <image x="8024.85" y="14314.57" width="1287.4" height="1070.85" xlink:href="customer-logo-1_Images\customer-logo-1_ImgID1.png"/>
  </g>
 </g>
</svg>
