<?xml version="1.0" encoding="UTF-8"?>
<!DOCTYPE svg PUBLIC "-//W3C//DTD SVG 1.0//EN" "http://www.w3.org/TR/2001/REC-SVG-20010904/DTD/svg10.dtd">
<!-- Creator: CorelDRAW 2020 (64 Bit) -->
<svg xmlns="http://www.w3.org/2000/svg" xml:space="preserve" width="58.1612mm" height="21.2965mm" version="1.0" style="shape-rendering:geometricPrecision; text-rendering:geometricPrecision; image-rendering:optimizeQuality; fill-rule:evenodd; clip-rule:evenodd"
viewBox="0 0 322.59 118.12"
 xmlns:xlink="http://www.w3.org/1999/xlink"
 xmlns:xodm="http://www.corel.com/coreldraw/odm/2003">
 <defs>
  <style type="text/css">
   <![CDATA[
    .fil0 {fill:none}
    .fil3 {fill:#FEFEFE}
    .fil2 {fill:#00AFEF}
    .fil4 {fill:#373435;fill-rule:nonzero}
    .fil1 {fill:#00AFEF;fill-rule:nonzero}
   ]]>
  </style>
 </defs>
 <g id="Camada_x0020_1">
  <metadata id="CorelCorpID_0Corel-Layer"/>
  <rect class="fil0" x="0" y="-0" width="322.59" height="118.12"/>
  <g id="_2428540643904">
   <g>
    <g>
     <path class="fil1" d="M159.61 80.59c0,0 0.45,-2.94 -1.19,-4.65 -1.43,-1.49 -2.72,-1.89 -5.33,-2 -2.43,-0.11 -3.55,-0.01 -5.15,0 -1.03,0 -12.6,0.82 -16.9,0 0,0 2.66,1.23 8.91,1.18 5.19,-0.04 9.56,0.02 10.9,0.04 0.24,0 0.49,-0 0.73,-0.02 0.81,-0.06 3.03,-0.14 4.86,0.59 2.28,0.91 2.97,3.33 3.17,4.86z"/>
     <path class="fil1" d="M157.19 80.08c0,1.74 -1.41,3.15 -3.15,3.15 -1.74,0 -3.15,-1.41 -3.15,-3.15 0,-1.74 1.41,-3.15 3.15,-3.15 1.74,0 3.15,1.41 3.15,3.15z"/>
     <path class="fil1" d="M131.41 80.08c0,1.74 -1.41,3.15 -3.15,3.15 -1.74,0 -3.15,-1.41 -3.15,-3.15 0,-1.74 1.41,-3.15 3.15,-3.15 1.74,0 3.15,1.41 3.15,3.15z"/>
     <path class="fil1" d="M153.47 76.03c0,0 -3.69,-1.02 -4.86,3.64l-14.88 0c0,0 -1.01,-3.05 -3.4,-3.28 0,0 0.05,0.05 0.13,0.14 1.18,0.74 1.97,2.05 1.97,3.54 0,0.17 -0.01,0.34 -0.03,0.51l17.64 0c0,0 -0.39,-4.15 3.43,-4.56z"/>
     <path class="fil1" d="M137.49 71.22c5.03,0.23 9.17,2.05 9.17,2.05 0,0 -0.87,-0.87 -3.64,-1.95 -2.76,-1.07 -5.91,-1.93 -10.45,-0.77 -4.29,1.1 -3.48,3.11 -11.02,2.75 -0.25,-0.01 -0.41,0.25 -0.28,0.47 0.32,0.55 0.64,1.49 -0.01,2.47 -1.02,1.54 -0.05,3.84 -0.05,3.84l2.88 0c0,-2.24 1.77,-4.07 3.99,-4.16 -0.7,-0.12 -1.79,-0.06 -3.39,0.63l-2.56 0c0,0 0.82,-1.08 0.56,-1.95 0,0 2.92,-0.92 5.73,0.05 2.82,0.97 9.06,1.59 13.16,1.18 0,0 -9.83,-0.46 -12.8,-2.56 0,0 2.83,-2.32 8.7,-2.05z"/>
    </g>
    <g>
     <g>
      <g>
       <path class="fil2" d="M113.12 71.61c1.37,0 1.73,1.41 1.83,3.11 0.1,1.7 4.55,6.91 3.18,6.91 -1.37,0 -7,-2.9 -7.44,-5.6 -0.44,-2.7 1.06,-4.42 2.43,-4.42z"/>
       <path class="fil3" d="M111.17 74.25c0.16,0 0.27,1.58 0.28,1.77 0.01,0.2 0.82,1.32 0.67,1.32 -0.16,0 -1.01,-0.92 -1.06,-1.23 -0.05,-0.31 -0.04,-1.86 0.12,-1.86z"/>
      </g>
      <g>
       <path class="fil2" d="M108.75 77.46c0.64,-0.36 1.18,0.2 1.67,0.96 0.49,0.76 3.93,2.01 3.3,2.37 -0.64,0.36 -4.01,0.5 -4.93,-0.64 -0.92,-1.14 -0.67,-2.33 -0.04,-2.69z"/>
       <path class="fil3" d="M108.54 79.2c0.07,-0.04 0.54,0.66 0.6,0.75 0.06,0.09 0.73,0.4 0.66,0.44 -0.07,0.04 -0.71,-0.16 -0.82,-0.29 -0.11,-0.13 -0.51,-0.85 -0.44,-0.89z"/>
      </g>
     </g>
     <g>
      <g>
       <path class="fil2" d="M167.34 71.61c-1.37,0 -1.73,1.41 -1.83,3.11 -0.1,1.7 -4.55,6.91 -3.18,6.91 1.37,0 7,-2.9 7.44,-5.6 0.44,-2.7 -1.06,-4.42 -2.43,-4.42z"/>
       <path class="fil3" d="M169.29 74.25c-0.16,0 -0.27,1.58 -0.28,1.77 -0.01,0.2 -0.82,1.32 -0.67,1.32 0.16,0 1.01,-0.92 1.06,-1.23 0.05,-0.31 0.04,-1.86 -0.11,-1.86z"/>
      </g>
      <g>
       <path class="fil2" d="M171.71 77.46c-0.64,-0.36 -1.18,0.2 -1.67,0.96 -0.49,0.76 -3.93,2.01 -3.3,2.37 0.64,0.36 4.01,0.5 4.93,-0.64 0.91,-1.14 0.67,-2.33 0.04,-2.69z"/>
       <path class="fil3" d="M171.92 79.2c-0.07,-0.04 -0.54,0.66 -0.6,0.75 -0.06,0.09 -0.73,0.4 -0.66,0.44 0.07,0.04 0.71,-0.16 0.82,-0.29 0.11,-0.13 0.51,-0.85 0.44,-0.89z"/>
      </g>
     </g>
    </g>
   </g>
   <path class="fil4" d="M33.36 69.06l2.17 0 0 17.63 11.51 0 0 1.77 -13.68 0 0 -19.41z"/>
   <path id="1" class="fil4" d="M63.6 83.29l-11.45 0 -2.47 5.18 -2.26 0 9.39 -19.41 2.14 0 9.39 19.41 -2.29 0 -2.47 -5.18zm-0.79 -1.66l-4.93 -10.43 -4.93 10.43 9.86 0z"/>
   <path id="2" class="fil4" d="M87.79 69.06l-9.1 19.41 -2.14 0 -9.1 -19.41 2.35 0 7.87 16.86 7.93 -16.86 2.2 0z"/>
   <path id="3" class="fil4" d="M103.02 83.29l-11.45 0 -2.47 5.18 -2.26 0 9.39 -19.41 2.14 0 9.39 19.41 -2.29 0 -2.47 -5.18zm-0.79 -1.66l-4.93 -10.43 -4.93 10.43 9.86 0z"/>
   <path class="fil4" d="M188.25 88.47l-4.7 -6.24c-0.53,0.06 -1.08,0.08 -1.64,0.08l-5.52 0 0 6.15 -2.17 0 0 -19.41 7.69 0c2.62,0 4.68,0.59 6.16,1.77 1.49,1.18 2.23,2.81 2.23,4.88 0,1.52 -0.41,2.8 -1.22,3.84 -0.81,1.04 -1.97,1.8 -3.48,2.26l5.02 6.65 -2.38 0zm-6.4 -7.9c2.04,0 3.59,-0.42 4.67,-1.28 1.08,-0.85 1.61,-2.04 1.61,-3.58 0,-1.57 -0.54,-2.78 -1.61,-3.62 -1.08,-0.84 -2.63,-1.26 -4.67,-1.26l-5.46 0 0 9.73 5.46 0z"/>
   <path id="1" class="fil4" d="M208.33 83.29l-11.45 0 -2.47 5.18 -2.26 0 9.39 -19.41 2.14 0 9.39 19.41 -2.29 0 -2.47 -5.18zm-0.79 -1.66l-4.93 -10.43 -4.93 10.43 9.86 0z"/>
   <path id="2" class="fil4" d="M224.18 69.06c2.62,0 4.68,0.59 6.16,1.77 1.49,1.18 2.23,2.81 2.23,4.88 0,2.07 -0.74,3.69 -2.23,4.87 -1.49,1.17 -3.54,1.76 -6.16,1.76l-5.52 0 0 6.13 -2.17 0 0 -19.41 7.69 0zm-0.06 11.48c2.03,0 3.59,-0.42 4.67,-1.26 1.08,-0.84 1.61,-2.03 1.61,-3.56 0,-1.57 -0.54,-2.78 -1.61,-3.62 -1.08,-0.84 -2.63,-1.26 -4.67,-1.26l-5.46 0 0 9.7 5.46 0z"/>
   <path id="3" class="fil4" d="M237.27 69.06l2.17 0 0 19.41 -2.17 0 0 -19.41z"/>
   <path id="4" class="fil4" d="M246.14 69.06l8.37 0c2.17,0 4.09,0.41 5.75,1.23 1.66,0.82 2.95,1.97 3.87,3.44 0.92,1.47 1.38,3.15 1.38,5.03 0,1.89 -0.46,3.56 -1.38,5.03 -0.92,1.47 -2.21,2.62 -3.87,3.44 -1.66,0.82 -3.58,1.23 -5.75,1.23l-8.37 0 0 -19.41zm8.25 17.63c1.8,0 3.38,-0.34 4.73,-1.01 1.35,-0.67 2.4,-1.61 3.14,-2.8 0.74,-1.19 1.12,-2.56 1.12,-4.12 0,-1.55 -0.37,-2.93 -1.12,-4.12 -0.74,-1.19 -1.79,-2.13 -3.14,-2.8 -1.35,-0.67 -2.93,-1.01 -4.73,-1.01l-6.08 0 0 15.86 6.08 0z"/>
   <path id="5" class="fil4" d="M279.37 88.64c-2.04,0 -3.88,-0.43 -5.53,-1.29 -1.65,-0.86 -2.95,-2.04 -3.87,-3.53 -0.93,-1.5 -1.39,-3.18 -1.39,-5.05 0,-1.87 0.46,-3.55 1.39,-5.05 0.93,-1.5 2.22,-2.68 3.87,-3.53 1.65,-0.86 3.5,-1.29 5.53,-1.29 2.04,0 3.87,0.43 5.5,1.28 1.63,0.85 2.92,2.03 3.86,3.53 0.94,1.51 1.41,3.19 1.41,5.06 0,1.87 -0.47,3.55 -1.41,5.06 -0.94,1.51 -2.23,2.69 -3.86,3.53 -1.63,0.85 -3.47,1.28 -5.5,1.28zm0 -1.83c1.62,0 3.09,-0.35 4.4,-1.04 1.31,-0.69 2.34,-1.65 3.08,-2.88 0.74,-1.23 1.12,-2.6 1.12,-4.12 0,-1.52 -0.37,-2.89 -1.12,-4.12 -0.74,-1.23 -1.77,-2.19 -3.08,-2.88 -1.31,-0.69 -2.78,-1.04 -4.4,-1.04 -1.62,0 -3.1,0.35 -4.42,1.04 -1.32,0.69 -2.36,1.65 -3.11,2.88 -0.75,1.23 -1.13,2.6 -1.13,4.12 0,1.52 0.38,2.89 1.13,4.12 0.75,1.23 1.79,2.19 3.11,2.88 1.32,0.69 2.79,1.04 4.42,1.04z"/>
   <path class="fil4" d="M48.09 29.48c3.2,0 5.98,0.53 8.34,1.6 2.36,1.07 4.17,2.58 5.45,4.54 1.27,1.96 1.91,4.28 1.91,6.97 0,2.65 -0.64,4.96 -1.91,6.94 -1.27,1.98 -3.09,3.49 -5.45,4.54 -2.36,1.05 -5.14,1.57 -8.34,1.57l-7.28 0 0 9.96 -8.36 0 0 -36.13 15.64 0zm-0.46 19.36c2.51,0 4.42,-0.54 5.73,-1.63 1.31,-1.08 1.96,-2.62 1.96,-4.62 0,-2.03 -0.65,-3.59 -1.96,-4.67 -1.31,-1.08 -3.22,-1.63 -5.73,-1.63l-6.81 0 0 12.54 6.81 0z"/>
   <path id="1" class="fil4" d="M92.74 65.62l-6.97 -10.07 -0.41 0 -7.28 0 0 10.07 -8.36 0 0 -36.13 15.64 0c3.2,0 5.98,0.53 8.34,1.6 2.36,1.07 4.17,2.58 5.45,4.54 1.27,1.96 1.91,4.28 1.91,6.97 0,2.68 -0.65,5 -1.94,6.94 -1.29,1.94 -3.12,3.43 -5.5,4.46l8.1 11.61 -8.98 0zm-0.15 -23.02c0,-2.03 -0.65,-3.59 -1.96,-4.67 -1.31,-1.08 -3.22,-1.63 -5.73,-1.63l-6.81 0 0 12.59 6.81 0c2.51,0 4.42,-0.55 5.73,-1.65 1.31,-1.1 1.96,-2.65 1.96,-4.65z"/>
   <path id="2" class="fil4" d="M135.63 58.91l0 6.71 -27.98 0 0 -36.13 27.3 0 0 6.71 -18.99 0 0 7.85 16.77 0 0 6.5 -16.77 0 0 8.36 19.67 0z"/>
   <path id="3" class="fil4" d="M175.17 65.62l-0.05 -21.68 -10.63 17.86 -3.77 0 -10.58 -17.39 0 21.21 -7.85 0 0 -36.13 6.92 0 13.52 22.45 13.32 -22.45 6.86 0 0.1 36.13 -7.85 0z"/>
   <path id="4" class="fil4" d="M191.58 29.48l8.36 0 0 36.13 -8.36 0 0 -36.13z"/>
   <path id="5" class="fil4" d="M224.56 66.24c-5.16,0 -9.18,-1.43 -12.05,-4.28 -2.87,-2.86 -4.31,-6.93 -4.31,-12.23l0 -20.23 8.36 0 0 19.92c0,6.47 2.68,9.7 8.05,9.7 2.62,0 4.61,-0.78 5.99,-2.35 1.38,-1.57 2.06,-4.02 2.06,-7.36l0 -19.92 8.26 0 0 20.23c0,5.3 -1.44,9.38 -4.31,12.23 -2.87,2.86 -6.89,4.28 -12.05,4.28z"/>
   <path id="6" class="fil4" d="M282.06 65.62l-0.05 -21.68 -10.63 17.86 -3.77 0 -10.58 -17.39 0 21.21 -7.85 0 0 -36.13 6.92 0 13.52 22.45 13.32 -22.45 6.86 0 0.1 36.13 -7.85 0z"/>
  </g>
 </g>
</svg>
