<?xml version="1.0" encoding="UTF-8"?>
<!DOCTYPE svg PUBLIC "-//W3C//DTD SVG 1.0//EN" "http://www.w3.org/TR/2001/REC-SVG-20010904/DTD/svg10.dtd">
<!-- Creator: CorelDRAW 2020 (64 Bit) -->
<svg xmlns="http://www.w3.org/2000/svg" xml:space="preserve" width="58.1612mm" height="21.2965mm" version="1.0" style="shape-rendering:geometricPrecision; text-rendering:geometricPrecision; image-rendering:optimizeQuality; fill-rule:evenodd; clip-rule:evenodd"
viewBox="0 0 322.59 118.12"
 xmlns:xlink="http://www.w3.org/1999/xlink"
 xmlns:xodm="http://www.corel.com/coreldraw/odm/2003">
 <defs>
  <style type="text/css">
   <![CDATA[
    .fil0 {fill:none}
    .fil1 {fill:#F7C8DA}
    .fil3 {fill:#373435;fill-rule:nonzero}
    .fil2 {fill:#231F20;fill-rule:nonzero}
   ]]>
  </style>
 </defs>
 <g id="Camada_x0020_1">
  <metadata id="CorelCorpID_0Corel-Layer"/>
  <rect class="fil0" x="0" y="-0" width="322.59" height="118.12"/>
  <g id="_2428729541136">
   <circle class="fil1" cx="53.35" cy="59.06" r="25.84"/>
   <g>
    <path class="fil2" d="M38.13 53.51c3.82,-2.92 13.48,-9.11 18.34,-10.15 7.45,-1.6 10.9,4.8 10.9,4.8 0,0 -2.08,-3.29 -8.77,-3.15 -5.11,0.11 -13.79,8.06 -17.6,11.81 -0.99,0.97 -2.62,0.8 -3.38,-0.36l0 0c-0.63,-0.96 -0.41,-2.25 0.51,-2.95z"/>
    <path class="fil2" d="M62.48 63.37c3.08,-2.39 5.07,-2.85 5.07,-2.85 -1.04,0.43 -1.86,0.91 -2.56,1.43 0.24,0.03 0.26,0.16 0.49,0.27 0.11,0.06 0.24,0.1 0.36,0.14 0.26,0.08 0.55,0.11 0.84,0.12 0.3,0.01 0.59,-0.02 0.9,-0.06l0.45 -0.08 0.45 -0.11 -0.41 0.24 -0.42 0.21c-0.29,0.12 -0.58,0.25 -0.9,0.33 0,0 0.01,0 0.01,0 0.31,0.09 0.63,0.15 0.95,0.18 0.16,0.02 0.33,0.02 0.5,0.03 0.17,-0 0.33,-0.01 0.5,-0.02 -0.16,0.05 -0.32,0.1 -0.49,0.15 -0.17,0.03 -0.33,0.08 -0.5,0.11 -0.25,0.04 -0.5,0.07 -0.76,0.08 0.29,0.18 0.59,0.33 0.9,0.47 0.35,0.15 0.71,0.27 1.09,0.36 -0.39,-0 -0.78,-0.03 -1.17,-0.11 -0.39,-0.07 -0.77,-0.17 -1.15,-0.3 -0.1,-0.03 -0.2,-0.07 -0.3,-0.11 0.09,0.08 0.17,0.15 0.26,0.23 0.31,0.25 0.64,0.48 0.99,0.67 0.36,0.19 0.73,0.34 1.14,0.43 -0.41,-0.01 -0.83,-0.07 -1.24,-0.19 -0.4,-0.12 -0.8,-0.28 -1.18,-0.48 -0.09,-0.05 -0.18,-0.1 -0.27,-0.15 0.19,0.22 0.39,0.42 0.6,0.62 0.37,0.36 0.79,0.67 1.24,0.94 0.44,0.28 0.93,0.48 1.44,0.65 -0.52,-0.09 -1.06,-0.2 -1.55,-0.41 -0.5,-0.2 -0.99,-0.45 -1.45,-0.76 -0.17,-0.11 -0.34,-0.23 -0.5,-0.36 0.21,0.24 0.42,0.48 0.64,0.7 0.42,0.43 0.86,0.84 1.35,1.19 0.49,0.34 1.02,0.66 1.62,0.77 -0.61,-0.03 -1.21,-0.27 -1.76,-0.55 -0.55,-0.29 -1.06,-0.64 -1.56,-1.02 -0.4,-0.31 -0.78,-0.64 -1.15,-0.98 0.34,0.42 0.69,0.83 1.06,1.22 0.42,0.45 0.87,0.88 1.35,1.26 0.48,0.38 1,0.73 1.61,0.91 -0.63,-0.09 -1.21,-0.38 -1.76,-0.69 -0.55,-0.32 -1.07,-0.69 -1.56,-1.09 -0.35,-0.28 -0.69,-0.58 -1.02,-0.88 0.29,0.39 0.59,0.76 0.92,1.11 0.42,0.45 0.88,0.88 1.39,1.23 0.51,0.36 1.08,0.63 1.7,0.76 -0.64,-0.04 -1.26,-0.24 -1.84,-0.54 -0.58,-0.29 -1.11,-0.66 -1.62,-1.07 -0.24,-0.19 -0.47,-0.4 -0.69,-0.61 0.16,0.18 0.32,0.36 0.49,0.53 0.46,0.46 0.95,0.89 1.48,1.27 0.54,0.36 1.12,0.67 1.75,0.88 -0.65,-0.13 -1.28,-0.36 -1.88,-0.66 -0.59,-0.31 -1.16,-0.69 -1.69,-1.1 -0.24,-0.19 -0.48,-0.39 -0.71,-0.6 0.28,0.31 0.56,0.62 0.87,0.91 0.52,0.51 1.09,0.96 1.7,1.37l0.46 0.3 0.48 0.26 0.24 0.13 0.25 0.11 0.51 0.22 -0.53 -0.16 -0.27 -0.08 -0.26 -0.1 -0.52 -0.21 -0.5 -0.24c-0.67,-0.34 -1.31,-0.73 -1.91,-1.19 -0.14,-0.1 -0.27,-0.21 -0.4,-0.31 0.09,0.11 0.19,0.22 0.29,0.33 0.48,0.56 1.02,1.07 1.59,1.54 0.57,0.48 1.2,0.88 1.85,1.25 -0.69,-0.29 -1.37,-0.62 -2.01,-1.03 -0.64,-0.41 -1.25,-0.87 -1.81,-1.38 -0.05,-0.04 -0.09,-0.09 -0.14,-0.13 0.02,0.03 0.05,0.06 0.07,0.09 0.47,0.58 0.98,1.12 1.53,1.63 0.55,0.51 1.15,0.96 1.79,1.37 -0.67,-0.34 -1.34,-0.71 -1.95,-1.16 -0.61,-0.45 -1.21,-0.94 -1.75,-1.48 -0.2,-0.19 -0.39,-0.39 -0.58,-0.59 0.23,0.29 0.46,0.57 0.7,0.85 0.25,0.3 0.51,0.58 0.77,0.86 0.27,0.27 0.54,0.55 0.83,0.8 0.58,0.51 1.2,0.99 1.92,1.29 -0.75,-0.22 -1.44,-0.64 -2.08,-1.09 -0.33,-0.22 -0.63,-0.47 -0.94,-0.72 -0.3,-0.26 -0.6,-0.51 -0.88,-0.79 -0.51,-0.47 -0.99,-0.97 -1.46,-1.48 0.35,0.51 0.72,1.01 1.11,1.49 0.49,0.59 1,1.15 1.56,1.67 0.57,0.51 1.18,0.98 1.86,1.34 -0.72,-0.29 -1.39,-0.69 -2.03,-1.14 -0.63,-0.46 -1.22,-0.98 -1.78,-1.52 -0.44,-0.42 -0.85,-0.87 -1.26,-1.33 0.34,0.53 0.7,1.05 1.08,1.55 0.46,0.6 0.94,1.18 1.49,1.7 0.55,0.51 1.15,1 1.88,1.24 -0.76,-0.15 -1.43,-0.58 -2.05,-1.04 -0.62,-0.47 -1.18,-1 -1.72,-1.56 -0.47,-0.49 -0.91,-1 -1.34,-1.52 0.35,0.57 0.73,1.13 1.13,1.67 0.45,0.61 0.92,1.2 1.46,1.74 0.53,0.53 1.11,1.04 1.8,1.39 -0.72,-0.27 -1.37,-0.71 -1.97,-1.19 -0.61,-0.48 -1.16,-1.03 -1.69,-1.6 -0.31,-0.33 -0.61,-0.67 -0.9,-1.02 0.19,0.34 0.39,0.68 0.6,1.01 0.4,0.62 0.82,1.23 1.32,1.78 0.49,0.55 1.03,1.07 1.67,1.46 -0.68,-0.32 -1.29,-0.78 -1.86,-1.28 -0.57,-0.5 -1.07,-1.07 -1.56,-1.66 -0.42,-0.51 -0.81,-1.05 -1.18,-1.59 0.23,0.47 0.46,0.94 0.7,1.4 0.33,0.62 0.68,1.22 1.07,1.8l0.3 0.43 0.33 0.41c0.11,0.13 0.24,0.25 0.36,0.38 0.13,0.12 0.27,0.22 0.4,0.34 -0.15,-0.1 -0.31,-0.18 -0.45,-0.29 -0.14,-0.11 -0.28,-0.22 -0.41,-0.34l-0.38 -0.37 -0.36 -0.4c-0.47,-0.54 -0.9,-1.11 -1.31,-1.69 -0.26,-0.37 -0.51,-0.74 -0.75,-1.12 0.18,0.37 0.36,0.74 0.56,1.11 0.32,0.6 0.65,1.18 1.04,1.74 0.38,0.55 0.8,1.1 1.31,1.55 -0.57,-0.38 -1.05,-0.88 -1.51,-1.39 -0.46,-0.51 -0.88,-1.06 -1.28,-1.62 -0.28,-0.4 -0.55,-0.8 -0.81,-1.21 0.16,0.35 0.33,0.71 0.5,1.05 0.29,0.59 0.59,1.16 0.93,1.72 0.33,0.56 0.68,1.11 1.13,1.6 -0.51,-0.42 -0.93,-0.93 -1.34,-1.45 -0.41,-0.52 -0.79,-1.06 -1.16,-1.61 -0.33,-0.49 -0.65,-0.99 -0.97,-1.5 0.17,0.5 0.35,0.99 0.57,1.47 0.24,0.55 0.53,1.09 0.84,1.61 0.32,0.52 0.69,1.01 1.1,1.47 -0.47,-0.4 -0.91,-0.83 -1.31,-1.31 -0.39,-0.48 -0.76,-0.99 -1.09,-1.52 -0.33,-0.53 -0.63,-1.08 -0.91,-1.64 -0.1,-0.21 -0.2,-0.42 -0.3,-0.64 0.05,0.19 0.1,0.37 0.15,0.56 0.15,0.55 0.32,1.09 0.52,1.62 0.19,0.53 0.4,1.06 0.66,1.57 0.26,0.51 0.54,1 0.93,1.43 -0.45,-0.37 -0.81,-0.82 -1.15,-1.3 -0.34,-0.47 -0.64,-0.98 -0.91,-1.49 -0.28,-0.51 -0.54,-1.04 -0.78,-1.57 -0.01,-0.01 -0.01,-0.03 -0.02,-0.04 0.1,0.49 0.22,0.98 0.34,1.47 0.12,0.49 0.26,0.98 0.42,1.46 0.16,0.48 0.34,0.96 0.59,1.4 -0.32,-0.4 -0.58,-0.85 -0.83,-1.3 -0.25,-0.45 -0.47,-0.92 -0.68,-1.39 -0.21,-0.47 -0.41,-0.95 -0.6,-1.43 -0.01,-0.03 -0.02,-0.05 -0.03,-0.08 0.04,0.47 0.09,0.94 0.15,1.41 0.06,0.48 0.15,0.95 0.26,1.42 0.12,0.47 0.25,0.94 0.49,1.36 -0.31,-0.38 -0.53,-0.83 -0.74,-1.28 -0.2,-0.45 -0.37,-0.92 -0.53,-1.39 -0.15,-0.47 -0.29,-0.94 -0.42,-1.42 -0.01,-0.05 -0.02,-0.1 -0.04,-0.15 -0,0.52 -0,1.05 0.01,1.57 0.01,0.45 0.03,0.9 0.06,1.35 0.04,0.45 0.08,0.9 0.21,1.33 -0.21,-0.4 -0.34,-0.85 -0.46,-1.29 -0.12,-0.44 -0.23,-0.89 -0.33,-1.33 -0.11,-0.49 -0.21,-0.99 -0.3,-1.48 -0,0.04 -0,0.07 -0,0.11 -0,0.43 -0,0.86 0.01,1.28 0.03,0.86 0.08,1.71 0.24,2.56 -0.33,-0.8 -0.56,-1.65 -0.76,-2.49 -0.06,-0.24 -0.11,-0.48 -0.16,-0.73 -0.02,0.22 -0.04,0.45 -0.06,0.67 -0.04,0.37 -0.07,0.73 -0.12,1.1 -0.05,0.37 -0.09,0.73 -0.18,1.09 0,-0.37 -0.04,-0.73 -0.08,-1.09 -0.04,-0.36 -0.09,-0.73 -0.15,-1.09 -0.03,-0.18 -0.05,-0.36 -0.08,-0.53 -0.03,0.18 -0.06,0.36 -0.09,0.53 -0.06,0.36 -0.13,0.73 -0.2,1.09 -0.07,0.36 -0.14,0.72 -0.24,1.08 0.01,-0.37 -0,-0.73 -0.02,-1.1 -0.02,-0.37 -0.04,-0.73 -0.06,-1.1 -0.01,-0.13 -0.02,-0.26 -0.03,-0.38 -0.03,0.14 -0.06,0.28 -0.1,0.42 -0.09,0.36 -0.21,0.72 -0.36,1.07 -0.15,0.34 -0.33,0.69 -0.61,0.93 0.21,-0.3 0.3,-0.65 0.36,-1 0.06,-0.35 0.08,-0.71 0.09,-1.07 0.01,-0.36 -0,-0.72 -0.02,-1.07 -0,-0.06 -0.01,-0.11 -0.01,-0.17 -0.01,0.05 -0.01,0.1 -0.02,0.14 -0.05,0.32 -0.12,0.63 -0.2,0.94 -0.08,0.31 -0.17,0.62 -0.29,0.91 -0.12,0.29 -0.27,0.59 -0.49,0.81 0.15,-0.27 0.2,-0.58 0.23,-0.88 0.03,-0.3 0.04,-0.6 0.02,-0.9 -0.01,-0.3 -0.03,-0.6 -0.07,-0.9 -0.01,-0.1 -0.03,-0.2 -0.04,-0.31 -0.01,0.14 -0.02,0.29 -0.04,0.43 -0.04,0.31 -0.09,0.62 -0.18,0.92 -0.09,0.3 -0.21,0.59 -0.37,0.85 -0.16,0.26 -0.37,0.49 -0.6,0.67 0.17,-0.24 0.29,-0.5 0.36,-0.77 0.06,-0.27 0.09,-0.55 0.09,-0.83 -0,-0.28 -0.04,-0.55 -0.08,-0.82 -0.02,-0.13 -0.06,-0.27 -0.09,-0.4 -0.01,-0.03 -0.02,-0.06 -0.02,-0.09 -0.01,0.05 -0.01,0.1 -0.02,0.15 -0.03,0.15 -0.06,0.3 -0.11,0.44 -0.09,0.29 -0.21,0.56 -0.35,0.8 -0.15,0.25 -0.31,0.48 -0.5,0.68 -0.18,0.21 -0.4,0.38 -0.61,0.55 0.15,-0.22 0.29,-0.45 0.39,-0.69 0.11,-0.23 0.18,-0.48 0.23,-0.73 0.05,-0.24 0.07,-0.49 0.06,-0.73 -0,-0.12 -0.02,-0.24 -0.03,-0.35 -0.01,-0.06 -0.02,-0.11 -0.03,-0.16 -0.01,-0.02 -0.01,-0.05 -0.02,-0.07 -0.1,0.16 -0.2,0.3 -0.3,0.44 -0.11,0.15 -0.23,0.3 -0.36,0.44 -0.12,0.14 -0.25,0.28 -0.4,0.4 -0.14,0.12 -0.29,0.24 -0.46,0.31 0.11,-0.14 0.18,-0.3 0.25,-0.46 0.06,-0.16 0.11,-0.33 0.15,-0.5 0.04,-0.17 0.07,-0.34 0.1,-0.51 0.02,-0.12 0.03,-0.24 0.04,-0.35 -2.64,-0.29 -4.27,-1.09 -4.27,-1.09 5.77,0.93 10.6,0.17 14.39,-1.78 2.74,-1.41 3.65,-2.66 5.59,-4.17z"/>
    <path class="fil2" d="M47.55 55.34c-3.33,3.02 -4,10.11 -4,10.11 -0.25,-7.3 4,-10.11 4,-10.11z"/>
   </g>
   <path class="fil3" d="M112.76 75.34c-0.05,-0.07 -0.14,-0.1 -0.23,-0.09 -0.07,0 -0.14,0.01 -0.2,0.03 -0.51,0.1 -0.65,0.05 -0.91,-0.37 -0.32,-0.54 -0.52,-1.14 -0.65,-1.76 -0.34,-1.62 -0.26,-3.27 -0.17,-4.91 0.05,-0.98 6.62,-17.41 6.61,-18.39 -0,-0.3 -0.1,-0.59 -0.22,-0.86 -0.3,-0.68 -0.94,-0.84 -1.55,-0.41 -0.14,0.1 -0.26,0.22 -0.37,0.36 -1.06,1.29 -8.46,18.17 -9.22,19.65 -0.22,0.43 -0.4,0.88 -0.69,1.29 -0.06,-0.11 -0.02,-0.19 0,-0.28 0.39,-1.34 0.77,-2.68 1.18,-4.02 0.62,-2.02 1.29,-4.02 1.89,-6.05 1.15,-3.86 2.11,-7.78 2.94,-11.73 0.27,-1.27 0.44,-2.55 0.36,-3.85 -0.02,-0.48 -0.15,-0.94 -0.44,-1.32 -0.32,-0.41 -0.74,-0.56 -1.25,-0.48 -0.48,0.09 -0.88,0.33 -1.27,0.6 -0.62,0.43 -1.17,0.94 -1.72,1.45 -1.84,1.73 -3.53,3.59 -5.12,5.54 -1.78,2.2 -3.46,4.48 -5.02,6.85 -1.21,1.84 -2.41,3.68 -3.52,5.59 -0.27,0.47 -0.54,0.93 -0.83,1.41 -0.1,-0.19 0,-0.31 0.04,-0.44 0.49,-1.78 0.99,-3.56 1.47,-5.35 0.77,-2.92 1.47,-5.86 2.06,-8.82 0.26,-1.28 0.46,-2.58 0.37,-3.9 -0.03,-0.48 -0.14,-0.93 -0.4,-1.34 -0.41,-0.63 -0.99,-0.86 -1.72,-0.66 -0.46,0.13 -0.87,0.35 -1.27,0.62 -0.84,0.57 -1.63,1.21 -2.34,1.94 -0.65,0.68 -1.3,1.36 -1.93,2.07 -0.7,0.78 -1.36,1.6 -1.84,2.54 -0.1,0.18 -0.19,0.37 -0.24,0.58 -0.03,0.14 0.04,0.23 0.15,0.31 0.1,0.08 0.19,0.06 0.29,0.01 0.2,-0.09 0.33,-0.26 0.46,-0.43 0.36,-0.47 0.69,-0.97 1.1,-1.4 0.57,-0.61 1.13,-1.24 1.71,-1.85 0.95,-1.01 1.97,-1.93 3.14,-2.69 0.28,-0.18 0.58,-0.33 0.89,-0.43 0.25,-0.08 0.35,-0.02 0.41,0.25 0.07,0.31 0.13,0.62 0.09,0.93 -0.07,0.55 -0.13,1.11 -0.24,1.66 -0.45,2.21 -1.02,4.38 -1.6,6.56 -0.78,2.93 -1.58,5.86 -2.39,8.79 -0.78,2.81 -1.54,5.62 -2.19,8.46 -0.02,0.1 -0.06,0.2 -0.07,0.31 -0.04,0.42 0.16,0.74 0.54,0.86 0.31,0.1 0.64,-0.04 0.83,-0.38 0.12,-0.21 0.21,-0.44 0.3,-0.66 0.14,-0.34 0.24,-0.69 0.39,-1.03 1.17,-2.64 2.57,-5.16 4.03,-7.66 1.87,-3.21 3.88,-6.35 6.08,-9.36 2.06,-2.81 4.26,-5.49 6.76,-7.92 0.63,-0.61 1.26,-1.22 2,-1.69 0.2,-0.13 0.41,-0.26 0.66,-0.31 0.19,-0.04 0.35,0.03 0.41,0.23 0.08,0.27 0.14,0.54 0.14,0.82 0,0.98 -0.16,1.95 -0.36,2.9 -0.6,2.76 -1.27,5.5 -1.99,8.23 -0.82,3.11 -1.82,6.16 -2.74,9.23 -0.67,2.23 -1.26,4.47 -1.7,6.75 -0.08,0.41 -0.14,0.82 -0.19,1.24 -0.04,0.33 0.1,0.61 0.33,0.71 0.23,0.11 0.49,0.01 0.72,-0.26 0.17,-0.2 0.31,-0.43 0.43,-0.66 0.44,-0.83 0.87,-1.67 1.31,-2.51 0.66,-1.27 7.88,-18 8.75,-19.14 0.25,-0.32 0.46,-0.68 0.81,-0.94 0.08,0.54 -6.32,16.57 -6.35,17.07 -0.05,0.73 -0.33,1.4 -0.4,2.13 -0.11,1.18 0,2.34 0.26,3.48 0.21,0.94 0.49,1.86 1.03,2.67 0.21,0.33 0.47,0.61 0.8,0.82 0.56,0.36 1.29,0.21 1.61,-0.33 0.05,-0.09 0.12,-0.18 0.04,-0.29l0 0zm19.94 -9.36c-0.1,-0.16 -0.27,-0.15 -0.42,-0.11 -0.13,0.03 -0.26,0.1 -0.38,0.16 -1.1,0.57 -2.2,1.14 -3.32,1.67 -0.88,0.42 -1.76,0.85 -2.7,1.12 -1.18,0.34 -2.36,0.43 -3.55,-0.01 -0.81,-0.3 -1.34,-0.85 -1.6,-1.67 -0.1,-0.32 -0.16,-0.64 -0.16,-0.98 0.01,-0.4 0,-0.8 -0,-1.2 0,-0.21 -0.03,-0.42 -0.1,-0.62 -0.07,-0.19 -0.2,-0.36 -0.41,-0.36 -0.25,0 -0.41,-0.13 -0.59,-0.27 -0.88,-0.66 -2.12,-0.75 -3.05,0.31 -0.56,0.66 -0.91,1.41 -1.08,2.24 -0.13,0.67 -0.08,1.32 0.37,1.9 0.4,0.52 0.98,0.66 1.57,0.36 0.48,-0.24 0.83,-0.63 1.15,-1.05 0.32,-0.41 0.61,-0.84 0.91,-1.27 0.13,0.15 0.12,0.31 0.14,0.47 0.2,1.51 0.96,2.59 2.43,3.11 1.38,0.49 2.74,0.38 4.1,-0.09 0.79,-0.27 1.55,-0.62 2.3,-0.99 1.09,-0.54 2.19,-1.08 3.28,-1.63 0.34,-0.17 0.66,-0.38 0.97,-0.63 0.15,-0.13 0.23,-0.27 0.12,-0.46l0 0zm-15 1.02c-0.19,0.2 -0.41,0.38 -0.66,0.51 -0.18,0.09 -0.28,0.04 -0.37,-0.15 -0.07,-0.16 -0.11,-0.34 -0.07,-0.51 0.12,-0.6 0.29,-1.19 0.63,-1.71 0.56,-0.85 1.02,-0.95 1.98,-0.36 -0.43,0.81 -0.89,1.57 -1.51,2.22l0 0zm28.69 -1.15c-0.18,-0.17 -0.38,-0.11 -0.58,-0.01 -0.44,0.2 -0.89,0.39 -1.33,0.61 -1.77,0.87 -3.53,1.77 -5.3,2.63 -0.8,0.39 -1.65,0.69 -2.54,0.77 -0.91,0.09 -1.15,-0.13 -1.28,-1.04 -0.08,-0.55 -0.13,-1.11 -0.21,-1.66 -0.17,-1.12 -0.54,-1.72 -1.7,-1.85 -0.3,-0.03 -0.63,-0.07 -0.89,-0.33 0.14,-0.15 0.26,-0.28 0.39,-0.42 0.48,-0.5 0.8,-1.1 0.99,-1.76 0.1,-0.33 0.08,-0.66 -0.07,-0.97 -0.2,-0.4 -0.64,-0.57 -1.06,-0.42 -0.41,0.15 -0.7,0.46 -0.93,0.81 -0.34,0.54 -0.6,1.12 -0.7,1.74 -0.17,1.08 0.12,1.99 1.45,2.33 0.16,0.04 0.33,0.08 0.51,0.12 0.66,0.15 0.72,0.2 0.82,0.88 0.01,0.09 0.01,0.17 0.02,0.26 0.08,0.62 0.15,1.25 0.31,1.86 0.2,0.78 0.92,1.61 2.05,1.5 0.16,-0.01 0.31,-0.02 0.47,-0.05 0.9,-0.16 1.75,-0.47 2.56,-0.9 1.41,-0.74 2.81,-1.48 4.21,-2.24 0.84,-0.46 1.68,-0.93 2.51,-1.42 0.32,-0.18 0.41,-0.36 0.31,-0.46l0 0zm11.63 0.42c-0.06,-0.11 -0.18,-0.1 -0.28,-0.06 -0.13,0.05 -0.26,0.11 -0.37,0.18 -0.29,0.17 -0.57,0.34 -0.85,0.52 -1.4,0.94 -2.88,1.69 -4.54,2.06 -1.14,0.25 -2.29,0.43 -3.47,0.27 -0.97,-0.13 -1.79,-0.8 -1.85,-1.76 -0.03,-0.62 0.04,-1.22 0.11,-1.82 0.06,-0.57 0.22,-1.12 0.33,-1.69 0.04,-0.25 -0.07,-0.5 -0.25,-0.59 -0.21,-0.1 -0.47,-0.03 -0.65,0.19 -0.16,0.19 -0.25,0.42 -0.33,0.65 -0.36,1.02 -0.51,2.07 -0.42,3.14 0.1,1.16 0.66,2.05 1.78,2.5 0.56,0.23 1.15,0.24 1.75,0.24 1.68,-0.02 3.27,-0.48 4.81,-1.11 1.19,-0.48 2.25,-1.2 3.3,-1.91 0.28,-0.18 0.55,-0.37 0.82,-0.56 0.09,-0.06 0.17,-0.15 0.11,-0.26l0 0zm-11.25 -3.32c0.19,0.15 0.39,0.11 0.46,-0.11 0.13,-0.43 0.22,-0.87 0.32,-1.28 0,-0.24 -0.09,-0.41 -0.28,-0.49 -0.21,-0.08 -0.39,0 -0.49,0.19 -0.25,0.45 -0.33,0.94 -0.18,1.45 0.03,0.1 0.1,0.18 0.18,0.24l0 0zm30.34 3.07c-0.07,-0.11 -0.17,-0.18 -0.31,-0.13 -0.15,0.05 -0.3,0.1 -0.44,0.16 -0.3,0.15 -0.6,0.29 -0.89,0.45 -1.69,0.89 -3.43,1.64 -5.25,2.22 -1.05,0.33 -2.11,0.59 -3.23,0.6 -1.01,0 -2.19,-0.65 -2.57,-1.88 -0.09,-0.28 -0.17,-0.56 -0.23,-0.85 -0.09,-0.45 -0.2,-0.89 -0.38,-1.3 -0.41,-0.96 -1.27,-1.25 -2.21,-0.89 -0.59,0.23 -1.1,0.61 -1.61,0.97 -0.44,0.31 -0.79,0.74 -1.25,1.01 0,-0.22 -0.01,-0.45 0.02,-0.67 0.09,-0.65 0.18,-1.31 0.23,-1.97 0.01,-0.16 0,-0.32 -0.05,-0.46 -0.17,-0.48 -0.66,-0.56 -0.98,-0.19 -0.11,0.13 -0.16,0.27 -0.2,0.42 -0.1,0.45 -0.17,0.89 -0.23,1.34 -0.15,1.17 -0.32,2.35 -0.48,3.52 -0.03,0.21 -0.02,0.42 -0,0.63 0.02,0.25 0.19,0.4 0.42,0.49 0.25,0.09 0.45,0.01 0.62,-0.16 0.1,-0.1 0.17,-0.22 0.23,-0.34 0.24,-0.45 0.52,-0.87 0.85,-1.26 0.75,-0.9 1.67,-1.59 2.71,-2.11 0.5,-0.25 0.66,-0.16 0.86,0.37 0.07,0.19 0.12,0.4 0.18,0.6 0.11,0.37 0.19,0.75 0.32,1.11 0.36,1.06 1.04,1.84 2.07,2.31 0.85,0.4 1.74,0.36 2.62,0.22 1.26,-0.19 2.46,-0.62 3.65,-1.09 1.71,-0.67 3.34,-1.5 4.93,-2.42 0.18,-0.11 0.36,-0.22 0.52,-0.35 0.1,-0.08 0.16,-0.2 0.07,-0.33l0 0zm-18.41 0.37c0,-0 0.01,-0 0.02,-0 -0.01,0.01 -0.02,0.02 -0.03,0.03 0,-0.01 0,-0.02 0.01,-0.03l0 0zm34.84 -0.41c-0.1,-0.16 -0.27,-0.15 -0.42,-0.11 -0.13,0.03 -0.26,0.1 -0.38,0.16 -1.1,0.57 -2.2,1.14 -3.32,1.67 -0.88,0.42 -1.76,0.85 -2.7,1.12 -1.18,0.34 -2.36,0.43 -3.55,-0.01 -0.81,-0.3 -1.34,-0.85 -1.6,-1.67 -0.1,-0.32 -0.16,-0.64 -0.16,-0.98 0.01,-0.4 0,-0.8 -0,-1.2 0,-0.21 -0.03,-0.42 -0.1,-0.62 -0.07,-0.19 -0.2,-0.36 -0.41,-0.36 -0.25,0 -0.41,-0.13 -0.59,-0.27 -0.88,-0.66 -2.12,-0.75 -3.05,0.31 -0.56,0.66 -0.91,1.41 -1.08,2.24 -0.13,0.67 -0.08,1.32 0.37,1.9 0.4,0.52 0.98,0.66 1.57,0.36 0.48,-0.24 0.83,-0.63 1.15,-1.05 0.32,-0.41 0.61,-0.84 0.91,-1.27 0.13,0.15 0.12,0.31 0.14,0.47 0.2,1.51 0.96,2.59 2.43,3.11 1.38,0.49 2.74,0.38 4.1,-0.09 0.79,-0.27 1.55,-0.62 2.3,-0.99 1.09,-0.54 2.19,-1.08 3.28,-1.63 0.34,-0.17 0.67,-0.38 0.97,-0.63 0.15,-0.13 0.23,-0.27 0.12,-0.46l0 0zm-15 1.02c-0.19,0.2 -0.41,0.38 -0.66,0.51 -0.18,0.09 -0.28,0.04 -0.37,-0.15 -0.07,-0.16 -0.11,-0.34 -0.07,-0.51 0.12,-0.6 0.29,-1.19 0.63,-1.71 0.56,-0.85 1.02,-0.95 1.98,-0.36 -0.43,0.81 -0.89,1.57 -1.51,2.22l0 0zm59.34 -20.85c-0.21,-2.17 -1.28,-3.77 -3.28,-4.69 -1.17,-0.54 -2.42,-0.77 -3.71,-0.83 -1.74,-0.08 -3.45,0.17 -5.14,0.56 -3.02,0.7 -5.92,1.75 -8.61,3.34 -1.64,0.97 -3.1,2.16 -4.35,3.59 -1.65,1.89 -2.76,4.07 -3.46,6.46 -0.2,0.7 -0.41,1.41 -0.35,2.16 0.02,0.31 0.1,0.59 0.25,0.84 0.24,0.39 0.7,0.56 1.14,0.45 0.49,-0.13 0.85,-0.49 0.9,-0.92 0.05,-0.41 -0.25,-0.71 -0.66,-0.66 -0.11,0.01 -0.2,0.14 -0.33,0.06 0,-0.26 -0.04,-0.51 0,-0.74 0.52,-2.86 1.74,-5.37 3.72,-7.5 1.39,-1.5 3.04,-2.67 4.85,-3.61 1.93,-1 3.96,-1.75 6.05,-2.32 1.98,-0.54 3.99,-0.87 6.05,-0.76 1.05,0.06 2.07,0.27 3.04,0.7 1.45,0.65 2.32,1.74 2.59,3.31 0.14,0.79 0.11,1.56 0,2.34 -0.15,1.07 -0.42,2.09 -0.89,3.06 -1.23,2.5 -2.98,4.58 -5.18,6.29 -2.28,1.77 -4.8,3.06 -7.57,3.84 -1.61,0.46 -3.24,0.67 -4.92,0.56 -0.45,-0.02 -0.9,-0.09 -1.33,-0.13 -0.07,-0.16 -0.02,-0.27 0.01,-0.39 0.16,-0.57 0.32,-1.14 0.47,-1.72 0.71,-2.81 1.42,-5.62 2.14,-8.42 0.31,-1.2 0.63,-2.4 0.95,-3.59 0.04,-0.16 0.07,-0.31 0.04,-0.47 -0.03,-0.17 -0.14,-0.29 -0.31,-0.32 -0.16,-0.02 -0.27,0.06 -0.33,0.19 -0.04,0.1 -0.09,0.19 -0.13,0.29 -0.46,1.27 -0.94,2.53 -1.3,3.82 -1.19,4.11 -2.37,8.21 -3.53,12.33 -0.98,3.47 -1.94,6.95 -2.53,10.52 -0.09,0.55 -0.2,1.1 -0.3,1.65 -0.05,0.3 0.05,0.54 0.25,0.62 0.23,0.08 0.49,-0.07 0.62,-0.36 0.06,-0.14 0.1,-0.3 0.15,-0.45 0.8,-2.51 1.41,-5.07 2.09,-7.62 0.47,-1.75 0.94,-3.5 1.42,-5.32 0.94,0.32 1.85,0.38 2.77,0.48 1.04,0.11 2.06,-0.02 3.06,-0.22 1.49,-0.29 2.93,-0.78 4.33,-1.39 2.43,-1.06 4.58,-2.54 6.51,-4.34 1.27,-1.17 2.29,-2.55 3.17,-4.03 1.21,-2.07 1.86,-4.28 1.62,-6.7l0 0zm14.14 19.83c-0.1,-0.16 -0.27,-0.15 -0.42,-0.11 -0.13,0.03 -0.26,0.1 -0.38,0.16 -1.1,0.57 -2.2,1.14 -3.32,1.67 -0.88,0.42 -1.76,0.85 -2.7,1.12 -1.18,0.34 -2.36,0.43 -3.54,-0.01 -0.81,-0.3 -1.34,-0.85 -1.6,-1.67 -0.1,-0.32 -0.17,-0.64 -0.16,-0.98 0.01,-0.4 0,-0.8 -0,-1.2 0,-0.21 -0.03,-0.42 -0.1,-0.62 -0.07,-0.19 -0.2,-0.36 -0.41,-0.36 -0.25,0 -0.41,-0.13 -0.59,-0.27 -0.88,-0.66 -2.12,-0.75 -3.05,0.31 -0.56,0.66 -0.91,1.41 -1.08,2.24 -0.13,0.67 -0.08,1.32 0.37,1.9 0.4,0.52 0.98,0.66 1.57,0.36 0.49,-0.24 0.83,-0.63 1.15,-1.05 0.32,-0.41 0.61,-0.84 0.91,-1.27 0.13,0.15 0.12,0.31 0.14,0.47 0.2,1.51 0.96,2.59 2.43,3.11 1.38,0.49 2.74,0.38 4.1,-0.09 0.79,-0.27 1.55,-0.62 2.3,-0.99 1.09,-0.54 2.19,-1.08 3.28,-1.63 0.34,-0.17 0.66,-0.38 0.97,-0.63 0.15,-0.13 0.23,-0.27 0.12,-0.46l0 0zm-15 1.02c-0.19,0.2 -0.41,0.38 -0.66,0.51 -0.18,0.09 -0.28,0.04 -0.37,-0.15 -0.07,-0.16 -0.11,-0.34 -0.07,-0.51 0.12,-0.6 0.29,-1.19 0.63,-1.71 0.56,-0.85 1.02,-0.95 1.98,-0.36 -0.43,0.81 -0.89,1.57 -1.51,2.22l0 0zm26.62 -0.73c-0.06,-0.11 -0.18,-0.1 -0.28,-0.06 -0.13,0.05 -0.26,0.11 -0.37,0.18 -0.29,0.17 -0.57,0.34 -0.85,0.52 -1.4,0.94 -2.88,1.69 -4.54,2.06 -1.14,0.25 -2.29,0.43 -3.47,0.27 -0.97,-0.13 -1.79,-0.8 -1.85,-1.76 -0.03,-0.62 0.04,-1.22 0.11,-1.82 0.06,-0.57 0.22,-1.12 0.33,-1.69 0.04,-0.25 -0.07,-0.5 -0.25,-0.59 -0.21,-0.1 -0.47,-0.03 -0.65,0.19 -0.16,0.19 -0.25,0.42 -0.33,0.65 -0.36,1.02 -0.51,2.07 -0.42,3.14 0.1,1.16 0.66,2.05 1.78,2.5 0.56,0.23 1.15,0.24 1.75,0.24 1.68,-0.02 3.27,-0.48 4.81,-1.11 1.19,-0.48 2.25,-1.2 3.3,-1.91 0.28,-0.18 0.55,-0.37 0.82,-0.56 0.09,-0.06 0.17,-0.15 0.11,-0.26l0 0zm-11.25 -3.32c0.19,0.15 0.39,0.11 0.46,-0.11 0.13,-0.43 0.22,-0.87 0.32,-1.28 0,-0.24 -0.09,-0.41 -0.28,-0.49 -0.21,-0.08 -0.39,0 -0.49,0.19 -0.25,0.45 -0.33,0.94 -0.18,1.45 0.03,0.1 0.1,0.18 0.18,0.24l0 0zm26.24 3.17c-0.03,-0.22 -0.22,-0.28 -0.39,-0.29 -0.26,-0.01 -0.53,-0.02 -0.78,0.02 -1.15,0.2 -2.29,0.45 -3.46,0.55 -0.99,0.09 -1.96,-0.02 -2.83,-0.54 -0.62,-0.37 -1.16,-0.84 -1.26,-1.64 -0.02,-0.2 -0.15,-0.35 -0.37,-0.39 -0.23,-0.04 -0.41,0.05 -0.53,0.25 -0.1,0.16 -0.19,0.33 -0.29,0.49 -0.38,0.61 -0.86,1.14 -1.34,1.68 -0.8,0.9 -1.6,1.8 -2.54,2.58 -0.26,0.21 -0.54,0.42 -0.86,0.52 -0.17,-0.24 -0.15,-0.47 -0.12,-0.69 0.11,-0.71 0.22,-1.41 0.35,-2.11 0.05,-0.32 0.07,-0.63 0.05,-0.94 -0.02,-0.27 -0.17,-0.44 -0.4,-0.48 -0.2,-0.04 -0.45,0.08 -0.56,0.3 -0.06,0.11 -0.1,0.22 -0.13,0.34 -0.09,0.32 -0.18,0.64 -0.25,0.96 -0.16,0.77 -0.32,1.54 -0.27,2.33 0.07,1.14 0.8,1.92 2.12,1.16 0.72,-0.41 1.3,-0.99 1.86,-1.61 0.95,-1.05 1.85,-2.13 2.75,-3.29 0.33,0.41 0.64,0.76 1.03,1.03 0.88,0.6 1.86,0.85 2.92,0.86 0.47,0 0.94,-0.03 1.41,-0.1 0.92,-0.13 1.83,-0.23 2.75,-0.37 0.29,-0.04 0.58,-0.11 0.85,-0.23 0.17,-0.08 0.32,-0.17 0.28,-0.39l0 0zm16.39 -0.14c-0.1,-0.16 -0.27,-0.15 -0.42,-0.11 -0.13,0.03 -0.26,0.1 -0.38,0.16 -1.1,0.57 -2.2,1.14 -3.32,1.67 -0.88,0.42 -1.76,0.85 -2.7,1.12 -1.18,0.34 -2.36,0.43 -3.55,-0.01 -0.81,-0.3 -1.34,-0.85 -1.6,-1.67 -0.1,-0.32 -0.16,-0.64 -0.16,-0.98 0.01,-0.4 0,-0.8 -0,-1.2 0,-0.21 -0.03,-0.42 -0.1,-0.62 -0.07,-0.19 -0.2,-0.36 -0.41,-0.36 -0.25,0 -0.41,-0.13 -0.59,-0.27 -0.88,-0.66 -2.12,-0.75 -3.05,0.31 -0.56,0.66 -0.91,1.41 -1.08,2.24 -0.13,0.67 -0.08,1.32 0.37,1.9 0.4,0.52 0.98,0.66 1.57,0.36 0.48,-0.24 0.83,-0.63 1.15,-1.05 0.32,-0.41 0.61,-0.84 0.91,-1.27 0.13,0.15 0.12,0.31 0.14,0.47 0.2,1.51 0.96,2.59 2.43,3.11 1.38,0.49 2.74,0.38 4.1,-0.09 0.79,-0.27 1.55,-0.62 2.3,-0.99 1.09,-0.54 2.19,-1.08 3.28,-1.63 0.34,-0.17 0.66,-0.38 0.97,-0.63 0.15,-0.13 0.23,-0.27 0.12,-0.46l0 0zm-15 1.02c-0.19,0.2 -0.41,0.38 -0.66,0.51 -0.18,0.09 -0.28,0.04 -0.37,-0.15 -0.07,-0.16 -0.11,-0.34 -0.07,-0.51 0.12,-0.6 0.29,-1.19 0.63,-1.71 0.56,-0.85 1.02,-0.95 1.98,-0.36 -0.43,0.81 -0.89,1.57 -1.51,2.22l0 0z"/>
  </g>
 </g>
</svg>
